<svg width="28" height="28" viewBox="0 0 28 28" fill="none" xmlns="http://www.w3.org/2000/svg">
<path fill-rule="evenodd" clip-rule="evenodd" d="M4.99902 9.00002H22.999C22.999 8.44773 22.5513 8 21.999 8H5.99898C5.4467 8.00005 4.99902 8.44778 4.99902 9.00002Z" fill="url(#paint0_linear_104_4875)"/>
<path fill-rule="evenodd" clip-rule="evenodd" d="M16 2.99999H19.5C20.3284 2.99999 21 2.32843 21 1.49997C21 0.671508 20.3284 0 19.5 0H8.50002C7.67156 0 7 0.671563 7 1.50002C7 2.32848 7.67156 3.00005 8.50002 3.00005H12C12 1.89547 12.8955 1.00007 14 1.00007C15.1045 1.00007 16 1.89541 16 2.99999Z" fill="url(#paint1_linear_104_4875)"/>
<path fill-rule="evenodd" clip-rule="evenodd" d="M12.999 3.00002V7.00002H14.999V3.00002C14.999 2.44773 14.5513 2 13.999 2C13.4468 2 12.999 2.44773 12.999 3.00002Z" fill="url(#paint2_linear_104_4875)"/>
<path fill-rule="evenodd" clip-rule="evenodd" d="M5.99898 28.0003H21.999C22.5513 28.0003 22.999 27.5525 22.999 27.0002H4.99902C4.99902 27.5525 5.4467 28.0003 5.99898 28.0003Z" fill="url(#paint3_linear_104_4875)"/>
<path fill-rule="evenodd" clip-rule="evenodd" d="M1.00002 20.475V15.5251C0.999906 15.2488 0.8855 14.985 0.684031 14.7961L0 14.1545V21.8455L0.683977 21.2045C0.885336 21.0153 0.999633 20.7514 1.00002 20.475Z" fill="url(#paint4_linear_104_4875)"/>
<path fill-rule="evenodd" clip-rule="evenodd" d="M26.9997 10H26.2217C26.4017 10.3027 26.4976 10.6479 26.4997 11V25C26.4976 25.3521 26.4016 25.6973 26.2217 26H26.9997C27.552 26 27.9997 25.5523 27.9997 25V11C27.9997 10.4477 27.552 10 26.9997 10Z" fill="url(#paint5_linear_104_4875)"/>
<path d="M24.5 10H1.00002C0.447726 10 0 10.4477 0 11V12.7835L1.36801 14.066C1.77067 14.4445 1.99937 14.9724 2.00003 15.525V20.475C1.99905 21.0276 1.7704 21.5553 1.36801 21.934L0 23.2165V25C0 25.5523 0.447726 26 1.00002 26H24.5C25.0523 26 25.5 25.5523 25.5 25V11C25.5 10.4477 25.0523 10 24.5 10ZM3.1465 12.6465L4.64652 11.1465C4.84269 10.957 5.15457 10.9597 5.34745 11.1525C5.54034 11.3454 5.54302 11.6572 5.35352 11.8535L3.8535 13.3535C3.65734 13.543 3.34545 13.5403 3.15257 13.3474C2.95974 13.1545 2.95701 12.8427 3.1465 12.6465ZM8.35351 11.8535L3.8535 16.3535C3.65734 16.543 3.34545 16.5403 3.15257 16.3475C2.95969 16.1546 2.95701 15.8428 3.1465 15.6465L7.64652 11.1465C7.84268 10.957 8.15456 10.9598 8.34745 11.1526C8.54027 11.3455 8.54301 11.6573 8.35351 11.8535Z" fill="url(#paint6_linear_104_4875)"/>
<defs>
<linearGradient id="paint0_linear_104_4875" x1="2.33844" y1="7.40999" x2="20.5636" y2="21.9391" gradientUnits="userSpaceOnUse">
<stop stop-color="#AB83FE"/>
<stop offset="0.677083" stop-color="#66A6FF"/>
</linearGradient>
<linearGradient id="paint1_linear_104_4875" x1="4.93066" y1="-1.77003" x2="27.1648" y2="2.82535" gradientUnits="userSpaceOnUse">
<stop stop-color="#AB83FE"/>
<stop offset="0.677083" stop-color="#66A6FF"/>
</linearGradient>
<linearGradient id="paint2_linear_104_4875" x1="12.7034" y1="-0.950015" x2="16.0143" y2="-0.891359" gradientUnits="userSpaceOnUse">
<stop stop-color="#AB83FE"/>
<stop offset="0.677083" stop-color="#66A6FF"/>
</linearGradient>
<linearGradient id="paint3_linear_104_4875" x1="2.33845" y1="26.4102" x2="20.5636" y2="40.9393" gradientUnits="userSpaceOnUse">
<stop stop-color="#AB83FE"/>
<stop offset="0.677083" stop-color="#66A6FF"/>
</linearGradient>
<linearGradient id="paint4_linear_104_4875" x1="-0.147813" y1="9.61686" x2="1.50815" y2="9.6264" gradientUnits="userSpaceOnUse">
<stop stop-color="#AB83FE"/>
<stop offset="0.677083" stop-color="#66A6FF"/>
</linearGradient>
<linearGradient id="paint5_linear_104_4875" x1="25.9589" y1="0.559979" x2="28.9032" y2="0.57447" gradientUnits="userSpaceOnUse">
<stop stop-color="#AB83FE"/>
<stop offset="0.677083" stop-color="#66A6FF"/>
</linearGradient>
<linearGradient id="paint6_linear_104_4875" x1="-3.76916" y1="0.559979" x2="38.2493" y2="3.52591" gradientUnits="userSpaceOnUse">
<stop stop-color="#AB83FE"/>
<stop offset="0.677083" stop-color="#66A6FF"/>
</linearGradient>
</defs>
</svg>
