<svg width="20" height="28" viewBox="0 0 20 28" fill="none" xmlns="http://www.w3.org/2000/svg">
<path d="M2.5 25.5C2.50165 26.88 3.61997 27.9983 5 28H17C18.38 27.9983 19.4983 26.88 19.5 25.5V13C19.5 12.7239 19.2761 12.5 19 12.5H14.5V13C14.5 13.8284 13.8284 14.5 13 14.5H9C8.17157 14.5 7.5 13.8284 7.5 13V12.5H2.5V25.5Z" fill="url(#paint0_linear_104_4805)"/>
<path fill-rule="evenodd" clip-rule="evenodd" d="M10.4182 20.664C10.513 20.7685 10.5593 20.9081 10.5457 21.0485L10.2072 24.541L13.1567 21.5H11.9567C11.8149 21.5007 11.6795 21.4412 11.5842 21.3364C11.4888 21.2315 11.4425 21.0911 11.4567 20.95L11.7952 17.4575L8.84668 20.5H10.0467C10.1881 20.4997 10.3231 20.5593 10.4182 20.664Z" fill="url(#paint1_linear_104_4805)"/>
<path fill-rule="evenodd" clip-rule="evenodd" d="M2.18493 11.3199L8.54143 7.77585L8.55993 7.76535L16.5964 3.28535C16.8376 3.15098 16.9242 2.84657 16.7899 2.60535L16.0594 1.29535C15.3872 0.0898532 13.8653 -0.34279 12.6594 0.328853L2.17743 6.17185C0.971933 6.84406 0.53929 8.36604 1.21093 9.57185L2.18493 11.3199Z" fill="url(#paint2_linear_104_4805)"/>
<path fill-rule="evenodd" clip-rule="evenodd" d="M8.50195 13C8.50195 13.2761 8.72581 13.5 9.00195 13.5H13.0019C13.2781 13.5 13.5019 13.2761 13.5019 13V12.5H8.50195V13Z" fill="url(#paint3_linear_104_4805)"/>
<path fill-rule="evenodd" clip-rule="evenodd" d="M3.91406 11.5H9.49956V10.715C9.4867 10.0079 9.20575 9.3322 8.71356 8.82446L3.91406 11.5Z" fill="url(#paint4_linear_104_4805)"/>
<path fill-rule="evenodd" clip-rule="evenodd" d="M18.502 11.4998V8.89976C17.8229 8.29014 16.9339 7.96754 16.022 7.99976C15.122 7.99976 14.3265 8.03526 13.703 8.46976C12.9659 8.98228 12.5192 9.81716 12.502 10.7148V11.4998H16.502V10.4998C16.502 10.2236 16.7258 9.99976 17.002 9.99976C17.2781 9.99976 17.502 10.2236 17.502 10.4998V11.4998H18.502Z" fill="url(#paint5_linear_104_4805)"/>
<defs>
<linearGradient id="paint0_linear_104_4805" x1="-0.0127741" y1="3.355" x2="28.0728" y2="4.71927" gradientUnits="userSpaceOnUse">
<stop stop-color="#AB83FE"/>
<stop offset="0.677083" stop-color="#66A6FF"/>
</linearGradient>
<linearGradient id="paint1_linear_104_4805" x1="8.20962" y1="13.2783" x2="15.3417" y2="13.4705" gradientUnits="userSpaceOnUse">
<stop stop-color="#AB83FE"/>
<stop offset="0.677083" stop-color="#66A6FF"/>
</linearGradient>
<linearGradient id="paint2_linear_104_4805" x1="-1.46432" y1="-6.65892" x2="24.8602" y2="-5.01343" gradientUnits="userSpaceOnUse">
<stop stop-color="#AB83FE"/>
<stop offset="0.677083" stop-color="#66A6FF"/>
</linearGradient>
<linearGradient id="paint3_linear_104_4805" x1="7.7629" y1="11.91" x2="15.6558" y2="13.6579" gradientUnits="userSpaceOnUse">
<stop stop-color="#AB83FE"/>
<stop offset="0.677083" stop-color="#66A6FF"/>
</linearGradient>
<linearGradient id="paint4_linear_104_4805" x1="3.08847" y1="7.24592" x2="12.2596" y2="8.09389" gradientUnits="userSpaceOnUse">
<stop stop-color="#AB83FE"/>
<stop offset="0.677083" stop-color="#66A6FF"/>
</linearGradient>
<linearGradient id="paint5_linear_104_4805" x1="11.6151" y1="5.93126" x2="21.4942" y2="6.68086" gradientUnits="userSpaceOnUse">
<stop stop-color="#AB83FE"/>
<stop offset="0.677083" stop-color="#66A6FF"/>
</linearGradient>
</defs>
</svg>
