<svg width="22" height="22" viewBox="0 0 22 22" fill="none" xmlns="http://www.w3.org/2000/svg">
<path fill-rule="evenodd" clip-rule="evenodd" d="M19.4602 1.12615C19.8508 0.735621 20.4839 0.735621 20.8745 1.12615C21.265 1.51667 21.265 2.14983 20.8745 2.54036L12.4149 10.9999L20.8744 19.4595C21.2649 19.85 21.2649 20.4832 20.8744 20.8737C20.4839 21.2642 19.8507 21.2642 19.4602 20.8737L11.0007 12.4142L2.54113 20.8737C2.15061 21.2642 1.51744 21.2642 1.12692 20.8737C0.736392 20.4832 0.736392 19.85 1.12692 19.4595L9.58645 10.9999L1.12688 2.54037C0.736353 2.14985 0.736353 1.51668 1.12688 1.12616C1.5174 0.735633 2.15057 0.735633 2.54109 1.12616L11.0007 9.58573L19.4602 1.12615Z" fill="#90949A"/>
</svg>
