<svg width="18" height="28" viewBox="0 0 18 28" fill="none" xmlns="http://www.w3.org/2000/svg">
<path fill-rule="evenodd" clip-rule="evenodd" d="M0 2C0 0.89543 0.895431 0 2 0H16C17.1046 0 18 0.895431 18 2V23H0V2ZM12.215 4.96962C12.5079 5.21541 12.5461 5.65209 12.3003 5.94499L8.21966 10.8077H11.2664C11.5355 10.8077 11.7802 10.9636 11.8939 11.2075C12.0076 11.4513 11.9697 11.739 11.7968 11.9451L6.76173 17.9452C6.51594 18.2381 6.07926 18.2763 5.78636 18.0305C5.49347 17.7847 5.45528 17.348 5.70107 17.0551L9.78169 12.1924H6.7349C6.46584 12.1924 6.22115 12.0365 6.10744 11.7926C5.99374 11.5488 6.03161 11.2611 6.20457 11.055L11.2396 5.05492C11.4854 4.76203 11.9221 4.72384 12.215 4.96962Z" fill="url(#paint0_linear_104_4888)"/>
<path fill-rule="evenodd" clip-rule="evenodd" d="M0 26C0 27.1046 0.895431 28 2 28H16C17.1046 28 18 27.1046 18 26V24H0V26ZM4 26C4 26.2761 3.77614 26.5 3.5 26.5C3.22386 26.5 3 26.2761 3 26C3 25.7239 3.22386 25.5 3.5 25.5C3.77614 25.5 4 25.7239 4 26ZM5.61328 26.5C5.88942 26.5 6.11328 26.2761 6.11328 26C6.11328 25.7239 5.88942 25.5 5.61328 25.5C5.33714 25.5 5.11328 25.7239 5.11328 26C5.11328 26.2761 5.33714 26.5 5.61328 26.5ZM7.99023 26C7.99023 25.7239 8.21409 25.5 8.49023 25.5H14.5707C14.8469 25.5 15.0707 25.7239 15.0707 26C15.0707 26.2761 14.8469 26.5 14.5707 26.5H8.49023C8.21409 26.5 7.99023 26.2761 7.99023 26Z" fill="url(#paint1_linear_104_4888)"/>
<defs>
<linearGradient id="paint0_linear_104_4888" x1="-2.66058" y1="-16.52" x2="27.1231" y2="-15.672" gradientUnits="userSpaceOnUse">
<stop stop-color="#AB83FE"/>
<stop offset="0.677083" stop-color="#66A6FF"/>
</linearGradient>
<linearGradient id="paint1_linear_104_4888" x1="-2.66058" y1="-16.52" x2="27.1231" y2="-15.672" gradientUnits="userSpaceOnUse">
<stop stop-color="#AB83FE"/>
<stop offset="0.677083" stop-color="#66A6FF"/>
</linearGradient>
</defs>
</svg>
