<svg width="16" height="28" viewBox="0 0 16 28" fill="none" xmlns="http://www.w3.org/2000/svg">
<path fill-rule="evenodd" clip-rule="evenodd" d="M5.52287 1.00002H10.4729C10.7493 0.999687 11.0134 0.885336 11.2029 0.684031L11.8439 0H4.15234L4.79334 0.683977C4.98239 0.885609 5.24648 1.00002 5.52287 1.00002Z" fill="url(#paint0_linear_104_4836)"/>
<path d="M0.999039 28H14.999C15.5513 28 15.9991 27.5523 15.9991 27V1.00002C15.9991 0.447726 15.5513 0 14.999 0H13.2155L11.9335 1.36801C11.5546 1.7704 11.0268 1.99899 10.474 2.00003H5.52405C4.97132 1.99927 4.44342 1.7704 4.06504 1.36752L2.78256 0H0.999039C0.44675 0 -0.000976562 0.447726 -0.000976562 1.00002V27C-0.000976562 27.5523 0.44675 28 0.999039 28ZM11.999 25.5C12.2752 25.5 12.4991 25.7239 12.4991 26C12.4991 26.2761 12.2752 26.5 11.999 26.5H3.99903C3.72291 26.5 3.49902 26.2762 3.49902 26C3.49902 25.7239 3.72286 25.5 3.99903 25.5H11.999ZM1.14555 4.64652L2.64557 3.1465C2.84173 2.95701 3.15362 2.95974 3.3465 3.15257C3.53938 3.34545 3.54206 3.65728 3.35257 3.8535L1.85255 5.35352C1.65638 5.54302 1.3445 5.54028 1.15162 5.34745C0.958789 5.15452 0.956055 4.84269 1.14555 4.64652ZM1.14555 7.64652L5.64556 3.1465C5.84173 2.95701 6.15361 2.95974 6.34649 3.15257C6.53938 3.34545 6.54206 3.65728 6.35256 3.8535L1.85255 8.35352C1.65638 8.54301 1.3445 8.54027 1.15162 8.34745C0.958789 8.15456 0.956055 7.84268 1.14555 7.64652Z" fill="url(#paint1_linear_104_4836)"/>
<defs>
<linearGradient id="paint0_linear_104_4836" x1="3.01546" y1="-0.590009" x2="14.4282" y2="3.29773" gradientUnits="userSpaceOnUse">
<stop stop-color="#AB83FE"/>
<stop offset="0.677083" stop-color="#66A6FF"/>
</linearGradient>
<linearGradient id="paint1_linear_104_4836" x1="-2.36595" y1="-16.52" x2="24.113" y2="-15.8499" gradientUnits="userSpaceOnUse">
<stop stop-color="#AB83FE"/>
<stop offset="0.677083" stop-color="#66A6FF"/>
</linearGradient>
</defs>
</svg>
