<svg width="26" height="25" viewBox="0 0 26 25" fill="none" xmlns="http://www.w3.org/2000/svg">
<path fill-rule="evenodd" clip-rule="evenodd" d="M3.53042 12.5298H2.40918V15.075C2.73588 14.7816 3.11678 14.555 3.53042 14.4079V12.5298Z" fill="url(#paint0_linear_104_4907)"/>
<path fill-rule="evenodd" clip-rule="evenodd" d="M1.66504 21.6619C1.67295 22.6068 3.1109 23.4305 5.16504 23.6667V15.5C3.1109 15.7362 1.67308 16.5599 1.66504 17.5048V21.6619Z" fill="url(#paint1_linear_104_4907)"/>
<path fill-rule="evenodd" clip-rule="evenodd" d="M23.832 21.6619C23.8241 22.6068 22.3862 23.4305 20.332 23.6667V15.5C22.3862 15.7362 23.824 16.5599 23.832 17.5048V21.6619Z" fill="url(#paint2_linear_104_4907)"/>
<path fill-rule="evenodd" clip-rule="evenodd" d="M4.20996 15.333H5.3312V24.3028H4.20996V15.333Z" fill="url(#paint3_linear_104_4907)"/>
<path fill-rule="evenodd" clip-rule="evenodd" d="M21.2861 15.333H20.1649V24.3028H21.2861V15.333Z" fill="url(#paint4_linear_104_4907)"/>
<path fill-rule="evenodd" clip-rule="evenodd" d="M1.84961 10.848V11.4086H4.09203V10.848C4.0973 6.20808 7.85572 2.44715 12.4956 2.43881C12.6379 2.43881 12.7808 2.44237 12.9239 2.44948C17.4607 2.7343 20.9752 6.5303 20.9103 11.0756V11.4086H23.1528V11.1232C23.1528 5.31586 18.5591 0.415537 12.9115 0.204239C10.0184 0.0960148 7.20558 1.16882 5.11939 3.17615C3.03321 5.18348 1.85292 7.95286 1.84961 10.848Z" fill="url(#paint5_linear_104_4907)"/>
<path fill-rule="evenodd" clip-rule="evenodd" d="M22.5919 12.5298H21.4707V14.4079C21.8843 14.555 22.2652 14.7816 22.5919 15.075V12.5298Z" fill="url(#paint6_linear_104_4907)"/>
<path fill-rule="evenodd" clip-rule="evenodd" d="M1.45312 18.136V21.4996C0.833886 21.4996 0.331883 20.9976 0.331883 20.3784V19.2572C0.331883 18.6379 0.833886 18.136 1.45312 18.136Z" fill="url(#paint7_linear_104_4907)"/>
<path fill-rule="evenodd" clip-rule="evenodd" d="M24.0439 18.136V21.4996C24.6632 21.4996 25.1652 20.9976 25.1652 20.3784V19.2572C25.1652 18.6379 24.6632 18.136 24.0439 18.136Z" fill="url(#paint8_linear_104_4907)"/>
<defs>
<linearGradient id="paint0_linear_104_4907" x1="2.24345" y1="11.0281" x2="4.09951" y2="11.0643" gradientUnits="userSpaceOnUse">
<stop stop-color="#AB83FE"/>
<stop offset="0.677083" stop-color="#66A6FF"/>
</linearGradient>
<linearGradient id="paint1_linear_104_4907" x1="1.1477" y1="10.6817" x2="6.94158" y2="10.7916" gradientUnits="userSpaceOnUse">
<stop stop-color="#AB83FE"/>
<stop offset="0.677083" stop-color="#66A6FF"/>
</linearGradient>
<linearGradient id="paint2_linear_104_4907" x1="24.3494" y1="10.6817" x2="18.5555" y2="10.7916" gradientUnits="userSpaceOnUse">
<stop stop-color="#AB83FE"/>
<stop offset="0.677083" stop-color="#66A6FF"/>
</linearGradient>
<linearGradient id="paint3_linear_104_4907" x1="4.04423" y1="10.0408" x2="5.90094" y2="10.0511" gradientUnits="userSpaceOnUse">
<stop stop-color="#AB83FE"/>
<stop offset="0.677083" stop-color="#66A6FF"/>
</linearGradient>
<linearGradient id="paint4_linear_104_4907" x1="21.4519" y1="10.0408" x2="19.5952" y2="10.0511" gradientUnits="userSpaceOnUse">
<stop stop-color="#AB83FE"/>
<stop offset="0.677083" stop-color="#66A6FF"/>
</linearGradient>
<linearGradient id="paint5_linear_104_4907" x1="-1.29921" y1="-6.41821" x2="33.7305" y2="-3.47035" gradientUnits="userSpaceOnUse">
<stop stop-color="#AB83FE"/>
<stop offset="0.677083" stop-color="#66A6FF"/>
</linearGradient>
<linearGradient id="paint6_linear_104_4907" x1="21.305" y1="11.0281" x2="23.161" y2="11.0643" gradientUnits="userSpaceOnUse">
<stop stop-color="#AB83FE"/>
<stop offset="0.677083" stop-color="#66A6FF"/>
</linearGradient>
<linearGradient id="paint7_linear_104_4907" x1="1.61886" y1="16.1514" x2="-0.237505" y2="16.1788" gradientUnits="userSpaceOnUse">
<stop stop-color="#AB83FE"/>
<stop offset="0.677083" stop-color="#66A6FF"/>
</linearGradient>
<linearGradient id="paint8_linear_104_4907" x1="23.8782" y1="16.1514" x2="25.7346" y2="16.1788" gradientUnits="userSpaceOnUse">
<stop stop-color="#AB83FE"/>
<stop offset="0.677083" stop-color="#66A6FF"/>
</linearGradient>
</defs>
</svg>
