<svg width="24" height="28" viewBox="0 0 24 28" fill="none" xmlns="http://www.w3.org/2000/svg">
<path d="M16.4991 8.99998V1.00002C16.4991 0.447727 16.0513 0 15.499 0H1.49904C0.94675 0 0.499023 0.447727 0.499023 1.00002V1.673L1.799 2.24202C1.83438 2.25756 1.86796 2.27697 1.89902 2.30005C2.27615 2.58382 2.49823 3.02805 2.49905 3.5V6.49999C2.49834 6.97195 2.2762 7.41623 1.89908 7.7L0.499078 8.75V8.99998C0.499078 9.55227 0.946805 9.99999 1.49909 9.99999H15.4991C16.0513 9.99999 16.4991 9.55227 16.4991 8.99998ZM3.64552 1.64648L4.14553 1.14647C4.27109 1.01648 4.45698 0.964359 4.63176 1.01013C4.80659 1.05591 4.94309 1.19241 4.98887 1.36724C5.03464 1.54208 4.98252 1.72796 4.85253 1.85347L4.35252 2.35348C4.15636 2.54297 3.84448 2.54023 3.65159 2.34741C3.45877 2.15452 3.45603 1.8427 3.64552 1.64648ZM7.85252 1.85352L4.35252 5.35352C4.15636 5.54302 3.84448 5.54028 3.65159 5.34745C3.45871 5.15457 3.45603 4.84274 3.64552 4.64652L7.14552 1.14652C7.27108 1.01653 7.45697 0.964414 7.6318 1.01019C7.80664 1.05596 7.94314 1.19246 7.98891 1.3673C8.03469 1.54213 7.98251 1.72796 7.85252 1.85352Z" fill="url(#paint0_linear_104_4790)"/>
<path fill-rule="evenodd" clip-rule="evenodd" d="M1.498 6.49989V3.4999C1.498 3.35951 1.43905 3.22564 1.33553 3.13092L0.498047 2.7644V7.49991L1.29807 6.89993C1.42352 6.80515 1.49751 6.65717 1.498 6.49989Z" fill="url(#paint1_linear_104_4790)"/>
<path fill-rule="evenodd" clip-rule="evenodd" d="M19.498 2.49976H20.9981V7.49978H19.498V2.49976Z" fill="url(#paint2_linear_104_4790)"/>
<path fill-rule="evenodd" clip-rule="evenodd" d="M17.2197 9.99999H17.4977C18.05 9.99999 18.4977 9.55227 18.4977 8.99998V1.00002C18.4977 0.447727 18.05 0 17.4977 0H17.2197C17.3997 0.302695 17.4957 0.647883 17.4977 1.00002V9.00003C17.4957 9.35211 17.3997 9.69735 17.2197 9.99999Z" fill="url(#paint3_linear_104_4790)"/>
<path d="M9.99902 27C9.99902 27.5523 10.4467 28.0001 10.999 28.0001H12.999C13.5513 28.0001 13.999 27.5523 13.999 27V16H9.99902V27Z" fill="url(#paint4_linear_104_4790)"/>
<path fill-rule="evenodd" clip-rule="evenodd" d="M21.5 11.5C21.4983 12.88 20.38 13.9984 19 14H15.5V15H19C20.9319 14.9975 22.4975 13.432 22.5 11.5V8.5H21.5V11.5Z" fill="url(#paint5_linear_104_4790)"/>
<path fill-rule="evenodd" clip-rule="evenodd" d="M22.499 2.49976H21.999V7.49978H22.499C23.0513 7.49978 23.499 7.05205 23.499 6.49976V3.49977C23.499 2.94748 23.0513 2.49976 22.499 2.49976Z" fill="url(#paint6_linear_104_4790)"/>
<path fill-rule="evenodd" clip-rule="evenodd" d="M14 13H10C9.72389 13 9.5 13.2238 9.5 13.5V15H14.5V13.5C14.5 13.2239 14.2762 13 14 13Z" fill="url(#paint7_linear_104_4790)"/>
<defs>
<linearGradient id="paint0_linear_104_4790" x1="-1.86594" y1="-5.9" x2="24.4976" y2="-4.03178" gradientUnits="userSpaceOnUse">
<stop stop-color="#AB83FE"/>
<stop offset="0.677083" stop-color="#66A6FF"/>
</linearGradient>
<linearGradient id="paint1_linear_104_4790" x1="0.350243" y1="-0.0295421" x2="2.00602" y2="-0.0140569" gradientUnits="userSpaceOnUse">
<stop stop-color="#AB83FE"/>
<stop offset="0.677083" stop-color="#66A6FF"/>
</linearGradient>
<linearGradient id="paint2_linear_104_4790" x1="19.2763" y1="-0.450259" x2="21.7599" y2="-0.417259" gradientUnits="userSpaceOnUse">
<stop stop-color="#AB83FE"/>
<stop offset="0.677083" stop-color="#66A6FF"/>
</linearGradient>
<linearGradient id="paint3_linear_104_4790" x1="17.0308" y1="-5.9" x2="19.1471" y2="-5.88802" gradientUnits="userSpaceOnUse">
<stop stop-color="#AB83FE"/>
<stop offset="0.677083" stop-color="#66A6FF"/>
</linearGradient>
<linearGradient id="paint4_linear_104_4790" x1="9.40778" y1="8.91996" x2="16.0303" y2="9.01773" gradientUnits="userSpaceOnUse">
<stop stop-color="#AB83FE"/>
<stop offset="0.677083" stop-color="#66A6FF"/>
</linearGradient>
<linearGradient id="paint5_linear_104_4790" x1="14.4653" y1="4.66499" x2="26.031" y2="5.21663" gradientUnits="userSpaceOnUse">
<stop stop-color="#AB83FE"/>
<stop offset="0.677083" stop-color="#66A6FF"/>
</linearGradient>
<linearGradient id="paint6_linear_104_4790" x1="21.7773" y1="-0.450259" x2="24.2609" y2="-0.417259" gradientUnits="userSpaceOnUse">
<stop stop-color="#AB83FE"/>
<stop offset="0.677083" stop-color="#66A6FF"/>
</linearGradient>
<linearGradient id="paint7_linear_104_4790" x1="8.76095" y1="11.82" x2="16.9407" y2="12.7257" gradientUnits="userSpaceOnUse">
<stop stop-color="#AB83FE"/>
<stop offset="0.677083" stop-color="#66A6FF"/>
</linearGradient>
</defs>
</svg>
