<svg width="28" height="28" viewBox="0 0 28 28" fill="none" xmlns="http://www.w3.org/2000/svg">
<path d="M20.3576 13.0066H7.64061C5.62417 13.0093 3.92405 14.5105 3.67161 16.5111L2.51514 25.7736C2.44492 26.3397 2.62117 26.9088 2.99912 27.3361C3.66975 28.0648 4.76826 28.2036 5.59913 27.6646C5.93124 27.4464 6.18729 27.1303 6.33161 26.7601L7.41962 23.9301C7.86899 22.7757 8.97794 22.0131 10.2166 22.0066H17.7816C19.0214 22.0119 20.1318 22.7747 20.5816 23.9301L21.6706 26.7621C21.8134 27.13 22.0668 27.4445 22.3961 27.6621C23.2263 28.2063 24.3287 28.0682 24.9991 27.3361C25.3765 26.9085 25.5522 26.3395 25.4816 25.7736L24.3266 16.5111C24.0742 14.5105 22.3741 13.0094 20.3576 13.0066ZM9.99912 18.0066H8.4991V19.5066C8.4991 19.7828 8.27526 20.0066 7.99909 20.0066C7.72292 20.0066 7.49908 19.7828 7.49908 19.5066V18.0066H5.99906C5.72294 18.0066 5.49905 17.7828 5.49905 17.5066C5.49905 17.2305 5.72289 17.0066 5.99906 17.0066H7.49908V15.5066C7.49908 15.2305 7.72292 15.0066 7.99909 15.0066C8.27526 15.0066 8.4991 15.2304 8.4991 15.5066V17.0066H9.99912C10.2752 17.0066 10.4991 17.2304 10.4991 17.5066C10.4991 17.7827 10.2753 18.0066 9.99912 18.0066ZM18.4991 18.0066H17.9991C17.723 18.0066 17.4991 17.7828 17.4991 17.5066C17.4991 17.2305 17.723 17.0066 17.9991 17.0066H18.4991C18.7753 17.0066 18.9991 17.2304 18.9991 17.5066C18.9991 17.7827 18.7753 18.0066 18.4991 18.0066ZM20.4991 19.5066C20.4991 19.7827 20.2753 20.0066 19.9991 20.0066C19.723 20.0066 19.4991 19.7828 19.4991 19.5066V19.0066C19.4991 18.7305 19.7229 18.5066 19.9991 18.5066C20.2752 18.5066 20.4991 18.7304 20.4991 19.0066V19.5066ZM20.4991 16.0066C20.4991 16.2827 20.2753 16.5066 19.9991 16.5066C19.723 16.5066 19.4991 16.2828 19.4991 16.0066V15.5066C19.4991 15.2305 19.7229 15.0066 19.9991 15.0066C20.2752 15.0066 20.4991 15.2304 20.4991 15.5066V16.0066ZM21.9991 18.0066H21.4991C21.223 18.0066 20.9991 17.7828 20.9991 17.5066C20.9991 17.2305 21.223 17.0066 21.4991 17.0066H21.9991C22.2753 17.0066 22.4991 17.2304 22.4991 17.5066C22.4991 17.7827 22.2753 18.0066 21.9991 18.0066Z" fill="url(#paint0_linear_104_4895)"/>
<path fill-rule="evenodd" clip-rule="evenodd" d="M1.00002 10.4816V5.53166C0.999687 5.25521 0.885336 4.99113 0.684031 4.80164L0 4.16064V11.8522L0.683977 11.2112C0.885609 11.0221 1.00002 10.758 1.00002 10.4816Z" fill="url(#paint1_linear_104_4895)"/>
<path d="M1.00002 16.0056H2.74602C3.22323 13.6803 5.26777 12.0098 7.64154 12.0056H20.3585C22.6257 12.0102 24.6069 13.538 25.1875 15.7296C25.386 15.541 25.4989 15.2795 25.5 15.0056V1.00563C25.5 0.453342 25.0523 0.00561523 24.5 0.00561523H1.00002C0.447726 0.00566992 0 0.453396 0 1.00569V2.78921L1.36801 4.07114C1.7704 4.45007 1.99899 4.97791 2.00003 5.53064V10.4806C1.99927 11.0333 1.7704 11.5612 1.36752 11.9396L0 13.2222V15.0057C0 15.5579 0.447726 16.0056 1.00002 16.0056Z" fill="url(#paint2_linear_104_4895)"/>
<path fill-rule="evenodd" clip-rule="evenodd" d="M26.9997 0.0065918H26.2217C26.4017 0.309287 26.4976 0.654475 26.4997 1.00661V15.0066C26.4989 15.3581 26.405 15.7032 26.2276 16.0066H26.9997C27.552 16.0066 27.9997 15.5589 27.9997 15.0066V1.00661C27.9997 0.454318 27.552 0.0065918 26.9997 0.0065918Z" fill="url(#paint3_linear_104_4895)"/>
<defs>
<linearGradient id="paint0_linear_104_4895" x1="-0.899177" y1="4.16434" x2="37.0084" y2="6.74058" gradientUnits="userSpaceOnUse">
<stop stop-color="#AB83FE"/>
<stop offset="0.677083" stop-color="#66A6FF"/>
</linearGradient>
<linearGradient id="paint1_linear_104_4895" x1="-0.147813" y1="-0.377356" x2="1.50815" y2="-0.36782" gradientUnits="userSpaceOnUse">
<stop stop-color="#AB83FE"/>
<stop offset="0.677083" stop-color="#66A6FF"/>
</linearGradient>
<linearGradient id="paint2_linear_104_4895" x1="-3.76916" y1="-9.43441" x2="38.2493" y2="-6.46847" gradientUnits="userSpaceOnUse">
<stop stop-color="#AB83FE"/>
<stop offset="0.677083" stop-color="#66A6FF"/>
</linearGradient>
<linearGradient id="paint3_linear_104_4895" x1="25.9589" y1="-9.43343" x2="28.9032" y2="-9.41894" gradientUnits="userSpaceOnUse">
<stop stop-color="#AB83FE"/>
<stop offset="0.677083" stop-color="#66A6FF"/>
</linearGradient>
</defs>
</svg>
