<svg width="14" height="14" viewBox="0 0 14 14" fill="none" xmlns="http://www.w3.org/2000/svg">
<path d="M13.2341 8.73309C12.1299 9.03992 10.964 9.048 9.85567 8.7565C8.74733 8.465 7.73628 7.88439 6.92591 7.07402C6.11555 6.26366 5.53493 5.25262 5.24343 4.14428C4.95192 3.03594 4.96 1.87006 5.26682 0.765869L5.267 0.765924C4.17791 1.0689 3.18721 1.65195 2.3936 2.45699C1.59999 3.26203 1.03116 4.26096 0.743789 5.35428C0.456416 6.44759 0.460527 7.59711 0.755713 8.68834C1.0509 9.77957 1.62686 10.7744 2.42621 11.5738C3.22556 12.3731 4.2204 12.949 5.31163 13.2442C6.40287 13.5394 7.55239 13.5435 8.6457 13.2561C9.73901 12.9687 10.7379 12.3999 11.543 11.6063C12.348 10.8127 12.931 9.82195 13.234 8.73286L13.2341 8.73309Z" stroke="white" stroke-linecap="round" stroke-linejoin="round"/>
</svg>
