<svg width="16" height="28" viewBox="0 0 16 28" fill="none" xmlns="http://www.w3.org/2000/svg">
<path d="M8.73013 13.9999L7.99983 12.5393L7.26953 13.9999L7.99983 15.4606L8.73013 13.9999Z" fill="url(#paint0_linear_104_4782)"/>
<path d="M12.6621 0H3.33789C1.82261 0 0.589844 1.23277 0.589844 2.74805V25.252C0.589844 26.7672 1.82261 28 3.33789 28H12.6621C14.1774 28 15.4102 26.7672 15.4102 25.252V2.74805C15.4102 1.23277 14.1774 0 12.6621 0ZM5.61885 13.6332L7.26631 10.3382C7.40522 10.0603 7.68927 9.88477 8 9.88477C8.31073 9.88477 8.59478 10.0603 8.73369 10.3382L10.3811 13.6332C10.4966 13.8641 10.4966 14.1359 10.3811 14.3668L8.73369 17.6618C8.59478 17.9397 8.31073 18.1152 8 18.1152C7.68927 18.1152 7.40522 17.9397 7.26631 17.6618L5.61885 14.3668C5.50335 14.1359 5.50335 13.8641 5.61885 13.6332V13.6332ZM4.70508 4.93555C4.25205 4.93555 3.88477 4.56827 3.88477 4.11523C3.88477 3.6622 4.25205 3.29492 4.70508 3.29492H6.35254C6.80557 3.29492 7.17285 3.6622 7.17285 4.11523C7.17285 4.56827 6.80557 4.93555 6.35254 4.93555H4.70508Z" fill="url(#paint1_linear_104_4782)"/>
<defs>
<linearGradient id="paint0_linear_104_4782" x1="7.05364" y1="10.8157" x2="9.47119" y2="10.8693" gradientUnits="userSpaceOnUse">
<stop stop-color="#AB83FE"/>
<stop offset="0.677083" stop-color="#66A6FF"/>
</linearGradient>
<linearGradient id="paint1_linear_104_4782" x1="-1.60075" y1="-16.52" x2="22.9281" y2="-15.945" gradientUnits="userSpaceOnUse">
<stop stop-color="#AB83FE"/>
<stop offset="0.677083" stop-color="#66A6FF"/>
</linearGradient>
</defs>
</svg>
