<svg width="28" height="22" viewBox="0 0 28 22" fill="none" xmlns="http://www.w3.org/2000/svg">
<path d="M6.33513 4.05737H4.47461C4.02158 4.05737 3.6543 4.42465 3.6543 4.87769C3.6543 5.33072 4.02158 5.698 4.47461 5.698H6.33513C6.78816 5.698 7.15544 5.33072 7.15544 4.87769C7.15544 4.42465 6.78816 4.05737 6.33513 4.05737Z" fill="url(#paint0_linear_104_4826)"/>
<path d="M25.1503 0.782227H2.84966C1.27832 0.782227 0 2.0606 0 3.63194V9.02943C0 10.6008 1.27832 11.8791 2.84966 11.8791H3.32216V19.5773H2.47559C2.02256 19.5773 1.65528 19.9446 1.65528 20.3976C1.65528 20.8507 2.02256 21.218 2.47559 21.218H4.14247C4.5955 21.218 4.96278 20.8507 4.96278 20.3976V15.4617H5.9588V13.821H4.96284V11.8791H5.95886V8.98579H4.47497C4.02194 8.98579 3.65466 8.61851 3.65466 8.16548C3.65466 7.71245 4.02194 7.34517 4.47497 7.34517H23.525C23.9781 7.34517 24.3453 7.71245 24.3453 8.16548C24.3453 8.61851 23.9781 8.98579 23.525 8.98579H22.0411V11.8791H23.0372V13.821H22.0411V15.4617H23.0372V20.3976C23.0372 20.8507 23.4044 21.218 23.8575 21.218H25.5244C25.9774 21.218 26.3447 20.8507 26.3447 20.3976C26.3447 19.9446 25.9774 19.5773 25.5244 19.5773H24.6778V11.8791H25.1503C26.7216 11.8791 28 10.6008 28 9.02943V3.63194C28 2.0606 26.7216 0.782227 25.1503 0.782227ZM6.33549 5.69814H4.47497C4.02194 5.69814 3.65466 5.33086 3.65466 4.87783C3.65466 4.4248 4.02194 4.05752 4.47497 4.05752H6.33549C6.78852 4.05752 7.1558 4.4248 7.1558 4.87783C7.1558 5.33086 6.78852 5.69814 6.33549 5.69814Z" fill="url(#paint1_linear_104_4826)"/>
<path d="M7.59863 17.1473C7.59863 17.6003 7.96591 17.9676 8.41895 17.9676H19.5794C20.0324 17.9676 20.3997 17.6003 20.3997 17.1473V8.98584H7.59863V17.1473Z" fill="url(#paint2_linear_104_4826)"/>
<defs>
<linearGradient id="paint0_linear_104_4826" x1="3.13679" y1="3.0894" x2="8.88333" y2="3.63254" gradientUnits="userSpaceOnUse">
<stop stop-color="#AB83FE"/>
<stop offset="0.677083" stop-color="#66A6FF"/>
</linearGradient>
<linearGradient id="paint1_linear_104_4826" x1="-4.13869" y1="-11.2749" x2="42.0589" y2="-8.47143" gradientUnits="userSpaceOnUse">
<stop stop-color="#AB83FE"/>
<stop offset="0.677083" stop-color="#66A6FF"/>
</linearGradient>
<linearGradient id="paint2_linear_104_4826" x1="5.70651" y1="3.68659" x2="26.8208" y2="5.01937" gradientUnits="userSpaceOnUse">
<stop stop-color="#AB83FE"/>
<stop offset="0.677083" stop-color="#66A6FF"/>
</linearGradient>
</defs>
</svg>
