<svg width="14" height="28" viewBox="0 0 14 28" fill="none" xmlns="http://www.w3.org/2000/svg">
<path fill-rule="evenodd" clip-rule="evenodd" d="M8.03115 18.1965V26.9161C8.03115 27.2835 7.73313 27.5815 7.3658 27.5815H6.63392C6.26659 27.5815 5.96857 27.2835 5.96857 26.9161V15.0009C6.30624 15.0452 6.65055 15.068 6.99986 15.068C7.34944 15.068 7.69348 15.0452 8.03115 15.0009V17.1098H9.71586V16.2905C9.71586 15.9906 9.95926 15.7472 10.2592 15.7472C10.5592 15.7472 10.8026 15.9906 10.8026 16.2905V19.0157C10.8026 19.3154 10.5592 19.5591 10.2592 19.5591C9.95926 19.5591 9.71586 19.3154 9.71586 19.0157V18.1965H8.03115ZM4.88738 20.8496L1.12485 26.5496C0.990118 26.7539 0.978197 27.0159 1.09436 27.2313C1.21024 27.447 1.43535 27.5815 1.68014 27.5815H2.55701C2.78045 27.5815 2.98921 27.4692 3.1123 27.2826L4.88738 24.5935V20.8496ZM9.11233 20.8496V24.5935L10.8874 27.2826C11.0105 27.4692 11.2193 27.5815 11.4427 27.5815H12.3196C12.5644 27.5815 12.7895 27.447 12.9054 27.2313C13.0215 27.0159 13.0096 26.7539 12.8749 26.5496L9.11233 20.8496ZM6.99986 0.418701C3.2559 0.418701 0.21582 3.45878 0.21582 7.20274C0.21582 10.9467 3.2559 13.9868 6.99986 13.9868C10.7444 13.9868 13.7839 10.9467 13.7839 7.20274C13.7839 3.45878 10.7444 0.418701 6.99986 0.418701ZM6.99986 2.46991C4.38782 2.46991 2.26703 4.5907 2.26703 7.20274C2.26703 9.81478 4.38782 11.9356 6.99986 11.9356C9.6119 11.9356 11.7327 9.81478 11.7327 7.20274C11.7327 4.5907 9.6119 2.46991 6.99986 2.46991ZM6.99986 3.55664C9.01226 3.55664 10.646 5.19035 10.646 7.20274C10.646 9.21514 9.01226 10.8488 6.99986 10.8488C4.98746 10.8488 3.35376 9.21514 3.35376 7.20274C3.35376 5.19035 4.98746 3.55664 6.99986 3.55664Z" fill="url(#paint0_linear_104_4821)"/>
<defs>
<linearGradient id="paint0_linear_104_4821" x1="-1.78968" y1="-15.6073" x2="20.6679" y2="-15.1105" gradientUnits="userSpaceOnUse">
<stop stop-color="#AB83FE"/>
<stop offset="0.677083" stop-color="#66A6FF"/>
</linearGradient>
</defs>
</svg>
