<svg width="28" height="28" viewBox="0 0 28 28" fill="none" xmlns="http://www.w3.org/2000/svg">
<path d="M0.629883 25.539C0.629883 26.8982 1.73167 28 3.09082 28H4.12988C5.48903 28 6.59082 26.8982 6.59082 25.539V21.8203H0.629883V25.539Z" fill="url(#paint0_linear_104_4921)"/>
<path d="M3.67679 16.7346C2.05886 16.7189 0.663122 17.6985 0.0659342 19.0972C-0.164191 19.6361 0.236833 20.2345 0.822864 20.2345H6.44053C7.0265 20.2345 7.42982 19.6352 7.19735 19.0973C6.60432 17.7251 5.25851 16.7498 3.67679 16.7346Z" fill="url(#paint1_linear_104_4921)"/>
<path d="M21.4092 25.539C21.4092 26.8982 22.511 28 23.8701 28H24.9092C26.2683 28 27.3701 26.8982 27.3701 25.539V21.8203H21.4092V25.539Z" fill="url(#paint2_linear_104_4921)"/>
<path d="M27.9336 19.0972C27.3364 17.6985 25.9407 16.7189 24.3227 16.7346C22.741 16.7498 21.3953 17.7251 20.8022 19.0973C20.5697 19.6352 20.973 20.2345 21.559 20.2345H27.1767C27.7626 20.2345 28.1637 19.6361 27.9336 19.0972Z" fill="url(#paint3_linear_104_4921)"/>
<path d="M16.6797 4.375C17.1327 4.375 17.5 4.00772 17.5 3.55469V3.00781H20.5625C21.0155 3.00781 21.3828 2.64053 21.3828 2.1875C21.3828 1.73447 21.0155 1.36719 20.5625 1.36719H17.5V0.820312C17.5 0.367281 17.1327 0 16.6797 0H11.3203C10.8673 0 10.5 0.367281 10.5 0.820312V1.36719H7.4375C6.98447 1.36719 6.61719 1.73447 6.61719 2.1875C6.61719 2.64053 6.98447 3.00781 7.4375 3.00781H10.5V3.55469C10.5 4.00772 10.8673 4.375 11.3203 4.375H13.1797V19.9463C12.6267 20.2403 12.25 20.8222 12.25 21.4922V21.8203H8.47656V25.375H12.2924C12.4673 26.1588 13.1671 26.7422 14 26.7422C14.835 26.7422 15.5328 26.1573 15.7075 25.375H19.5234V21.8203H15.75V21.4922C15.75 20.8208 15.3725 20.2401 14.8203 19.9464V4.375H16.6797Z" fill="url(#paint4_linear_104_4921)"/>
<defs>
<linearGradient id="paint0_linear_104_4921" x1="-0.251205" y1="18.1743" x2="9.60207" y2="18.5953" gradientUnits="userSpaceOnUse">
<stop stop-color="#AB83FE"/>
<stop offset="0.677083" stop-color="#66A6FF"/>
</linearGradient>
<linearGradient id="paint1_linear_104_4921" x1="-1.07372" y1="14.6693" x2="10.8549" y2="15.7657" gradientUnits="userSpaceOnUse">
<stop stop-color="#AB83FE"/>
<stop offset="0.677083" stop-color="#66A6FF"/>
</linearGradient>
<linearGradient id="paint2_linear_104_4921" x1="20.5281" y1="18.1743" x2="30.3814" y2="18.5953" gradientUnits="userSpaceOnUse">
<stop stop-color="#AB83FE"/>
<stop offset="0.677083" stop-color="#66A6FF"/>
</linearGradient>
<linearGradient id="paint3_linear_104_4921" x1="19.6616" y1="14.6693" x2="31.5903" y2="15.7657" gradientUnits="userSpaceOnUse">
<stop stop-color="#AB83FE"/>
<stop offset="0.677083" stop-color="#66A6FF"/>
</linearGradient>
<linearGradient id="paint4_linear_104_4921" x1="4.43468" y1="-15.7779" x2="28.8718" y2="-15.1803" gradientUnits="userSpaceOnUse">
<stop stop-color="#AB83FE"/>
<stop offset="0.677083" stop-color="#66A6FF"/>
</linearGradient>
</defs>
</svg>
