<svg width="18" height="28" viewBox="0 0 18 28" fill="none" xmlns="http://www.w3.org/2000/svg">
<path fill-rule="evenodd" clip-rule="evenodd" d="M3.87805 4.57272H14.122L12.9455 0.482096C12.8416 0.119955 12.7116 0.00986914 12.6825 0.000244141L5.3118 0.000955078C5.28839 0.00975977 5.15823 0.120119 5.05395 0.482205L3.87805 4.57272ZM14.122 23.4275H3.87805L5.05384 27.5182C5.15812 27.8803 5.28828 27.9904 5.31688 28L12.6881 27.9992C12.7115 27.9904 12.8412 27.8803 12.9451 27.518L14.122 23.4275ZM0.505859 8.25855V19.7417C0.506511 20.4714 0.796613 21.171 1.31251 21.6871C1.82841 22.2032 2.52797 22.4935 3.25768 22.4944H14.7414C15.4712 22.4936 16.1708 22.2033 16.6868 21.6872C17.2029 21.1711 17.4931 20.4715 17.4939 19.7417V8.25855C17.4931 7.52877 17.2028 6.82911 16.6868 6.31306C16.1708 5.797 15.4712 5.50671 14.7414 5.50585H3.25768C2.52797 5.50674 1.8284 5.79706 1.3125 6.31313C0.796587 6.82919 0.506525 7.52884 0.505859 8.25855ZM8.99987 17.0589C9.2238 17.0589 9.4408 17.1365 9.61391 17.2786C9.78701 17.4206 9.9055 17.6183 9.9492 17.8379C9.9929 18.0576 9.9591 18.2855 9.85356 18.483C9.74802 18.6805 9.57727 18.8353 9.3704 18.9211C9.16352 19.0068 8.93333 19.0181 8.71903 18.9532C8.50472 18.8882 8.31958 18.7509 8.19513 18.5648C8.07068 18.3786 8.01462 18.1551 8.03651 17.9322C8.0584 17.7093 8.15688 17.501 8.31518 17.3426C8.40485 17.2523 8.51155 17.1808 8.62908 17.1321C8.74661 17.0834 8.87265 17.0585 8.99987 17.0589Z" fill="url(#paint0_linear_104_4816)"/>
<defs>
<linearGradient id="paint0_linear_104_4816" x1="-2.00514" y1="-16.5196" x2="26.1066" y2="-15.7642" gradientUnits="userSpaceOnUse">
<stop stop-color="#AB83FE"/>
<stop offset="0.677083" stop-color="#66A6FF"/>
</linearGradient>
</defs>
</svg>
