<svg width="18" height="15" viewBox="0 0 18 15" fill="none" xmlns="http://www.w3.org/2000/svg">
<path fill-rule="evenodd" clip-rule="evenodd" d="M13.0742 14.7425C14.1061 15.1939 14.4931 14.248 14.4931 14.248L17.2232 0.53291C17.2017 -0.391463 15.9549 0.16746 15.9549 0.16746L0.670439 6.16514C0.670439 6.16514 -0.0604613 6.42311 0.0040299 6.87454C0.0685211 7.32598 0.648942 7.54095 0.648942 7.54095L4.49692 8.83078C4.49692 8.83078 5.65776 12.6358 5.89423 13.3667C6.1092 14.0761 6.30267 14.0976 6.30267 14.0976C6.51764 14.1835 6.71111 14.0331 6.71111 14.0331L9.20477 11.7759L13.0742 14.7425ZM13.7399 2.96216C13.7399 2.96216 14.2774 2.63971 14.2559 2.96216C14.2559 2.96216 14.3419 3.00516 14.0624 3.30611C13.8044 3.56408 7.72076 9.02434 6.90387 9.75524C6.83938 9.79823 6.79638 9.86272 6.79638 9.94871L6.55992 11.9694C6.51692 12.1844 6.23746 12.2059 6.17297 12.0124L5.16261 8.70188C5.11961 8.5729 5.16261 8.42242 5.29159 8.33643L13.7399 2.96216Z" fill="white"/>
</svg>
