<svg width="31" height="31" viewBox="0 0 31 31" fill="none" xmlns="http://www.w3.org/2000/svg">
<path fill-rule="evenodd" clip-rule="evenodd" d="M12.3545 11.3686C12.3545 9.63141 13.7628 8.22314 15.4999 8.22314C17.2371 8.22314 18.6454 9.63141 18.6454 11.3686C18.6454 13.1058 17.2371 14.5141 15.4999 14.5141C13.7628 14.5141 12.3545 13.1058 12.3545 11.3686ZM15.4999 6.72314C12.9343 6.72314 10.8545 8.80299 10.8545 11.3686C10.8545 13.9342 12.9343 16.0141 15.4999 16.0141C18.0656 16.0141 20.1454 13.9342 20.1454 11.3686C20.1454 8.80299 18.0656 6.72314 15.4999 6.72314ZM11.6044 18.4094C10.3724 18.4094 9.1908 18.8989 8.31961 19.77C7.44841 20.6412 6.95898 21.8228 6.95898 23.0549V25.0026C6.95898 25.4168 7.29477 25.7526 7.70898 25.7526C8.1232 25.7526 8.45898 25.4168 8.45898 25.0026V23.0549C8.45898 22.2207 8.79038 21.4206 9.38027 20.8307C9.97015 20.2408 10.7702 19.9094 11.6044 19.9094H19.3953C20.2296 19.9094 21.0296 20.2408 21.6195 20.8307C22.2094 21.4206 22.5408 22.2207 22.5408 23.0549V25.0026C22.5408 25.4168 22.8766 25.7526 23.2908 25.7526C23.705 25.7526 24.0408 25.4168 24.0408 25.0026V23.0549C24.0408 21.8228 23.5514 20.6412 22.6802 19.77C21.809 18.8989 20.6274 18.4094 19.3953 18.4094H11.6044Z" fill="url(#paint0_linear_2_4673)"/>
<circle cx="15.5001" cy="15.5001" r="12.5357" stroke="url(#paint1_linear_2_4673)" stroke-width="1.5"/>
<defs>
<linearGradient id="paint0_linear_2_4673" x1="4.43412" y1="-4.50424" x2="32.6768" y2="-3.38141" gradientUnits="userSpaceOnUse">
<stop stop-color="#AB83FE"/>
<stop offset="0.677083" stop-color="#66A6FF"/>
</linearGradient>
<linearGradient id="paint1_linear_2_4673" x1="-1.71317" y1="-13.4628" x2="42.2027" y2="-11.5178" gradientUnits="userSpaceOnUse">
<stop stop-color="#AB83FE"/>
<stop offset="0.677083" stop-color="#66A6FF"/>
</linearGradient>
</defs>
</svg>
