<svg width="29" height="20" viewBox="0 0 29 20" fill="none" xmlns="http://www.w3.org/2000/svg">
<path d="M24.0504 19.3625C23.8754 19.3625 23.7004 19.1875 23.7004 19.0125V1.07498C23.7004 0.899976 23.8754 0.724976 24.0504 0.724976H28.3379C28.5129 0.724976 28.6879 0.899976 28.6879 1.07498V19.0125C28.6879 19.1875 28.5129 19.3625 28.3379 19.3625H24.0504ZM16.7879 19.3625C16.7879 19.3625 16.4379 19.275 16.4379 19.0125V7.98747C16.5254 6.49997 15.3004 5.36248 13.9004 5.36248H5.76289C5.32539 5.36248 5.41289 5.71248 5.41289 5.71248V19.0125C5.41289 19.3625 5.06289 19.3625 5.06289 19.3625H1.12539C0.950391 19.3625 0.775391 19.1875 0.775391 19.0125V1.07498C0.775391 0.899976 0.950391 0.724976 1.12539 0.724976H16.1754C18.8879 0.724976 21.1629 2.99998 21.1629 5.71248V19.0125C21.1629 19.1875 20.9879 19.3625 20.8129 19.3625H16.7879ZM8.73789 19.3625C8.56289 19.3625 8.38789 19.1875 8.38789 19.0125V8.51248C8.38789 8.33748 8.56289 8.16248 8.73789 8.16248H13.1129C13.2879 8.16248 13.4629 8.33748 13.4629 8.51248V19.0125C13.4629 19.1875 13.2879 19.3625 13.1129 19.3625H8.73789Z" fill="white"/>
</svg>
