<?xml version="1.0" encoding="utf-8"?><svg viewBox="0 0 29 40" xmlns="http://www.w3.org/2000/svg" xmlns:xlink="http://www.w3.org/1999/xlink"><style>:root>svg{display:none}:root>svg:target{display:block}</style><svg fill="none" viewBox="0 0 24 24" id="arrow-down" xmlns="http://www.w3.org/2000/svg"><path d="M18 9l-6 6-6-6" stroke="#fff" stroke-width="2"/></svg><svg viewBox="0 0 24 24" id="arrow-left" xmlns="http://www.w3.org/2000/svg"><path d="M7 11a1 1 0 100 2v-2zm14 2h1v-2h-1v2zM7 13h14v-2H7v2z"/><path d="M2.285 11.797l5.45-3.893A.8.8 0 019 8.554v6.891a.8.8 0 01-1.265.651l-5.45-3.893a.25.25 0 010-.406z"/></svg><svg viewBox="0 0 24 24" id="arrow-right" xmlns="http://www.w3.org/2000/svg"><path d="M17 11a1 1 0 110 2v-2zM3 13H2v-2h1v2zm14 0H3v-2h14v2z"/><path d="M21.715 11.797l-5.45-3.893a.8.8 0 00-1.265.65v6.891a.8.8 0 001.265.651l5.45-3.893a.25.25 0 000-.406z"/></svg><svg fill="none" viewBox="0 0 24 24" id="close" xmlns="http://www.w3.org/2000/svg"><path d="M18 6L6 18M6 6l12 12" stroke="#fff" stroke-width="2" stroke-linecap="square" stroke-linejoin="round"/></svg><svg fill="none" viewBox="0 0 24 24" id="close-modal" xmlns="http://www.w3.org/2000/svg"><path d="M18 6L6 18M6 6l12 12"/></svg><svg viewBox="0 0 29 40" id="fire" xmlns="http://www.w3.org/2000/svg"><path d="M25.563 15.182a.253.253 0 00-.31-.081.264.264 0 00-.171.284c.022.224.034.452.037.678.01.939-.37 1.859-1.041 2.524a3.437 3.437 0 01-2.478 1.006c-1.275-.016-2.333-.677-3.06-1.91-.6-1.02-.336-2.337-.057-3.73.164-.815.333-1.659.333-2.461 0-6.25-4.23-9.855-6.752-11.448A.27.27 0 0011.917 0a.287.287 0 00-.156.05.251.251 0 00-.113.266c.964 5.083-1.911 8.14-4.955 11.376C3.556 15.028 0 18.81 0 25.63 0 33.553 6.492 40 14.472 40c6.57 0 12.363-4.549 14.087-11.062 1.175-4.44-.057-10.097-2.996-13.756zm-10.73 21.75a7.232 7.232 0 01-5.35-1.999 7.239 7.239 0 01-2.26-5.22c0-3.667 1.412-6.36 5.21-9.934a.259.259 0 01.305-.047c.064.03.168.105.154.267-.136 1.569-.134 2.872.006 3.871.36 2.554 2.242 4.27 4.685 4.27a4.702 4.702 0 003.213-1.261.287.287 0 01.258-.073.236.236 0 01.175.144c.362.868.547 1.79.55 2.74.012 3.823-3.104 7.072-6.946 7.243z"/></svg><svg fill="none" viewBox="0 0 24 24" id="location" xmlns="http://www.w3.org/2000/svg"><path d="M12 2c-4.411 0-8 3.623-8 8.022a7.93 7.93 0 001.314 4.382L12 22l6.686-7.596A7.93 7.93 0 0020 10.022C20 5.622 16.412 2 12 2zm0 12.01c-2.206 0-4-1.789-4-3.988 0-2.2 1.794-4.033 4-4.033s4 1.833 4 4.033-1.794 3.988-4 3.988z" fill="#fff"/></svg><svg fill="none" viewBox="0 0 16 16" id="play" xmlns="http://www.w3.org/2000/svg"><path d="M12.117 6.537L5.6 3.197C4.405 2.585 3 3.475 3 4.843v6.314c0 1.368 1.405 2.258 2.6 1.646l6.518-3.34c1.176-.603 1.176-2.323 0-2.926z" fill="#fff"/></svg><svg viewBox="0 0 24 24" id="play-video" xmlns="http://www.w3.org/2000/svg"><path d="M18.176 9.805L8.4 4.795c-1.792-.918-3.9.417-3.9 2.47v9.47c0 2.053 2.108 3.388 3.899 2.47l9.777-5.01c1.765-.904 1.765-3.486 0-4.39z"/></svg><svg viewBox="0 0 24 24" id="tooltip" xmlns="http://www.w3.org/2000/svg"><path fill-rule="evenodd" clip-rule="evenodd" d="M21 12a9 9 0 11-18 0 9 9 0 0118 0zm-8-4a1 1 0 11-2 0 1 1 0 012 0zm0 9v-6h-2v6h2z"/></svg></svg>