<svg width="200" height="200" viewBox="0 0 200 200" fill="none" xmlns="http://www.w3.org/2000/svg">
<g clip-path="url(#clip0_3_37)">
<rect width="200" height="200" fill="#194FEC"/>
<g clip-path="url(#clip1_3_37)">
<path d="M50.2366 101.985L48.2575 95.3605H40.5036L38.5245 101.985H35L40.7748 83H47.9593L53.7612 101.985H50.2366ZM41.3983 92.3444H47.3357L44.8144 83.8887H43.9197L41.3983 92.3444Z" fill="white"/>
<path d="M74.8706 92.5329C74.8706 94.6334 74.1025 96.33 72.5662 97.6225C71.0479 98.8972 68.8248 99.6332 65.8967 99.8307V101.985H62.7789V99.8307C59.8328 99.6332 57.5916 98.8972 56.0553 97.6225C54.537 96.33 53.7779 94.6334 53.7779 92.5329C53.7779 90.4504 54.537 88.7718 56.0553 87.4972C57.5916 86.2046 59.8328 85.4595 62.7789 85.262V83H65.8967V85.262C68.8248 85.4595 71.0479 86.2046 72.5662 87.4972C74.1025 88.7718 74.8706 90.4504 74.8706 92.5329ZM65.8967 96.8147C67.8126 96.689 69.2043 96.2761 70.0719 95.5759C70.9394 94.8578 71.3733 93.8435 71.3733 92.5329C71.3733 91.2224 70.9304 90.217 70.0448 89.5169C69.1772 88.8167 67.7945 88.4038 65.8967 88.2781V96.8147ZM58.5766 89.5169C57.7091 90.217 57.2753 91.2224 57.2753 92.5329C57.2753 93.8435 57.7091 94.8578 58.5766 95.5759C59.4623 96.2761 60.8631 96.689 62.7789 96.8147V88.2781C60.8631 88.4038 59.4623 88.8167 58.5766 89.5169Z" fill="white"/>
<path d="M97.1103 92.5329C97.1103 94.6334 96.3424 96.33 94.8061 97.6225C93.2878 98.8972 91.0647 99.6332 88.1366 99.8307V101.985H85.0188V99.8307C82.0727 99.6332 79.8315 98.8972 78.2952 97.6225C76.7769 96.33 76.0178 94.6334 76.0178 92.5329C76.0178 90.4504 76.7769 88.7718 78.2952 87.4972C79.8315 86.2046 82.0727 85.4595 85.0188 85.262V83H88.1366V85.262C91.0647 85.4595 93.2878 86.2046 94.8061 87.4972C96.3424 88.7718 97.1103 90.4504 97.1103 92.5329ZM88.1366 96.8147C90.0525 96.689 91.4442 96.2761 92.3118 95.5759C93.1794 94.8578 93.6132 93.8435 93.6132 92.5329C93.6132 91.2224 93.1703 90.217 92.2847 89.5169C91.4171 88.8167 90.0344 88.4038 88.1366 88.2781V96.8147ZM80.8166 89.5169C79.949 90.217 79.5152 91.2224 79.5152 92.5329C79.5152 93.8435 79.949 94.8578 80.8166 95.5759C81.7022 96.2761 83.103 96.689 85.0188 96.8147V88.2781C83.103 88.4038 81.7022 88.8167 80.8166 89.5169Z" fill="white"/>
<path d="M99.2831 101.985V83H112.215V86.0161H102.78V90.971H110.86V93.9871H102.78V98.969H112.215V101.985H99.2831Z" fill="white"/>
<path d="M130.676 83V86.0161H124.304V101.985H120.807V86.0161H114.381V83H130.676Z" fill="white"/>
<path d="M148.891 83V86.0161H142.52V101.985H139.023V86.0161H132.597V83H148.891Z" fill="white"/>
<path d="M162.443 101.985L160.463 95.3605H152.709L150.73 101.985H147.205L152.98 83H160.165L165.967 101.985H162.443ZM153.604 92.3444H159.541L157.02 83.8887H156.125L153.604 92.3444Z" fill="white"/>
<path d="M69.1358 114.603V113.761H71.991C72.0023 114.193 71.9458 114.603 71.8216 114.99C71.6973 115.371 71.5109 115.711 71.2623 116.008C71.0138 116.305 70.7032 116.541 70.3304 116.715C69.9633 116.883 69.5453 116.967 69.0765 116.967C68.6303 116.967 68.2179 116.895 67.8396 116.749C67.4611 116.597 67.1307 116.384 66.8482 116.109C66.5715 115.834 66.3569 115.509 66.2043 115.133C66.0519 114.757 65.9756 114.345 65.9756 113.896C65.9756 113.447 66.0519 113.037 66.2043 112.667C66.3625 112.291 66.58 111.969 66.8568 111.699C67.1392 111.425 67.4696 111.214 67.848 111.068C68.2321 110.922 68.6472 110.849 69.0934 110.849C69.4832 110.849 69.8362 110.903 70.1525 111.009C70.4688 111.11 70.7512 111.259 70.9997 111.455C71.2539 111.646 71.4685 111.879 71.6436 112.154L70.8303 112.692C70.6665 112.412 70.4377 112.188 70.144 112.019C69.8559 111.851 69.5057 111.767 69.0934 111.767C68.7094 111.767 68.362 111.857 68.0514 112.036C67.7407 112.21 67.4921 112.457 67.3058 112.777C67.1194 113.091 67.0262 113.464 67.0262 113.896C67.0262 114.322 67.1165 114.698 67.2973 115.024C67.4837 115.343 67.7322 115.593 68.0428 115.773C68.3535 115.952 68.7037 116.042 69.0934 116.042C69.3589 116.042 69.5962 116.005 69.8051 115.932C70.0141 115.859 70.1948 115.756 70.3474 115.621C70.4998 115.486 70.6269 115.332 70.7286 115.158C70.8303 114.984 70.9065 114.799 70.9573 114.603H69.1358Z" fill="white"/>
<path d="M84.4031 114.03H85.4876L87.4955 116.841H86.2924L84.4031 114.03ZM83.1831 110.951H84.1828V116.841H83.1831V110.951ZM83.7762 111.809V110.951H85.0131C85.4424 110.951 85.8152 111.026 86.1315 111.178C86.4534 111.329 86.702 111.542 86.8771 111.817C87.0522 112.087 87.1397 112.406 87.1397 112.777C87.1397 113.147 87.0522 113.469 86.8771 113.744C86.702 114.019 86.4534 114.232 86.1315 114.384C85.8152 114.535 85.4424 114.611 85.0131 114.611H83.7762V113.795H84.9708C85.1967 113.795 85.3944 113.756 85.5638 113.677C85.7389 113.599 85.8744 113.486 85.9705 113.34C86.0665 113.189 86.1145 113.009 86.1145 112.802C86.1145 112.589 86.0665 112.409 85.9705 112.263C85.8744 112.117 85.7389 112.005 85.5638 111.927C85.3944 111.848 85.1967 111.809 84.9708 111.809H83.7762Z" fill="white"/>
<path d="M99.1086 113.896C99.1086 114.3 99.1937 114.662 99.3627 114.981C99.5379 115.296 99.7784 115.542 100.083 115.722C100.388 115.902 100.736 115.991 101.125 115.991C101.521 115.991 101.868 115.902 102.167 115.722C102.472 115.542 102.709 115.296 102.879 114.981C103.054 114.662 103.142 114.3 103.142 113.896C103.142 113.492 103.057 113.133 102.887 112.819C102.718 112.499 102.481 112.249 102.176 112.07C101.877 111.89 101.526 111.8 101.125 111.8C100.736 111.8 100.388 111.89 100.083 112.07C99.7784 112.249 99.5379 112.499 99.3627 112.819C99.1937 113.133 99.1086 113.492 99.1086 113.896ZM98.0496 113.896C98.0496 113.453 98.1261 113.046 98.2784 112.676C98.4308 112.305 98.6454 111.986 98.9223 111.716C99.2048 111.441 99.5323 111.228 99.9054 111.077C100.284 110.925 100.691 110.849 101.125 110.849C101.571 110.849 101.981 110.925 102.354 111.077C102.727 111.228 103.052 111.441 103.328 111.716C103.61 111.986 103.828 112.305 103.98 112.676C104.133 113.046 104.209 113.453 104.209 113.896C104.209 114.333 104.133 114.74 103.98 115.116C103.828 115.492 103.613 115.817 103.336 116.092C103.06 116.367 102.732 116.583 102.354 116.74C101.981 116.892 101.571 116.967 101.125 116.967C100.684 116.967 100.275 116.892 99.8968 116.74C99.5181 116.583 99.1906 116.367 98.9137 116.092C98.6429 115.817 98.4308 115.492 98.2784 115.116C98.1261 114.74 98.0496 114.333 98.0496 113.896Z" fill="white"/>
<path d="M115.306 110.951H116.306V114.864C116.306 115.228 116.401 115.523 116.594 115.747C116.791 115.966 117.082 116.075 117.466 116.075C117.845 116.075 118.133 115.966 118.331 115.747C118.528 115.523 118.627 115.228 118.627 114.864V110.951H119.627V114.906C119.627 115.231 119.573 115.523 119.466 115.781C119.364 116.033 119.217 116.249 119.025 116.429C118.833 116.608 118.604 116.746 118.339 116.841C118.073 116.937 117.783 116.984 117.466 116.984C117.15 116.984 116.859 116.937 116.594 116.841C116.328 116.746 116.097 116.608 115.899 116.429C115.707 116.249 115.56 116.033 115.458 115.781C115.357 115.523 115.306 115.231 115.306 114.906V110.951Z" fill="white"/>
<path d="M131.075 110.951H132.074V116.841H131.075V110.951ZM131.668 111.826V110.951H132.863C133.292 110.951 133.664 111.026 133.981 111.178C134.303 111.324 134.551 111.534 134.727 111.809C134.902 112.078 134.989 112.401 134.989 112.777C134.989 113.152 134.902 113.478 134.727 113.753C134.551 114.028 134.303 114.241 133.981 114.392C133.664 114.538 133.292 114.611 132.863 114.611H131.668V113.736H132.863C133.207 113.736 133.484 113.655 133.693 113.492C133.902 113.329 134.006 113.091 134.006 112.777C134.006 112.462 133.902 112.227 133.693 112.07C133.484 111.907 133.207 111.826 132.863 111.826H131.668Z" fill="white"/>
</g>
</g>
<defs>
<clipPath id="clip0_3_37">
<rect width="200" height="200" fill="white"/>
</clipPath>
<clipPath id="clip1_3_37">
<rect width="131" height="34" fill="white" transform="translate(35 83)"/>
</clipPath>
</defs>
</svg>
