<svg width="200" height="200" viewBox="0 0 200 200" fill="none" xmlns="http://www.w3.org/2000/svg">
<g clip-path="url(#clip0_12_2)">
<rect width="200" height="200" fill="#5B3AEF"/>
<path d="M46.888 109.936V98.968H42.064L41.992 100.792C41.96 101.768 41.896 102.68 41.8 103.528C41.72 104.376 41.6 105.152 41.44 105.856C41.296 106.56 41.096 107.168 40.84 107.68C40.6 108.176 40.304 108.56 39.952 108.832L34.888 108.232C35.448 108.248 35.904 108.064 36.256 107.68C36.624 107.28 36.912 106.728 37.12 106.024C37.344 105.32 37.504 104.488 37.6 103.528C37.712 102.568 37.792 101.52 37.84 100.384L38.032 95.2H51.568V109.936H46.888ZM34.384 115.384V108.232H53.848V115.384H49.504V112H38.752V115.384H34.384ZM64.3763 112.336C63.0323 112.336 61.7923 112.12 60.6563 111.688C59.5203 111.256 58.5283 110.648 57.6803 109.864C56.8483 109.064 56.2003 108.136 55.7363 107.08C55.2723 106.024 55.0403 104.864 55.0403 103.6C55.0403 102.336 55.2723 101.176 55.7363 100.12C56.2003 99.064 56.8483 98.144 57.6803 97.36C58.5283 96.56 59.5203 95.944 60.6563 95.512C61.7923 95.08 63.0323 94.864 64.3763 94.864C65.7363 94.864 66.9763 95.08 68.0963 95.512C69.2323 95.944 70.2163 96.56 71.0483 97.36C71.8803 98.144 72.5283 99.064 72.9923 100.12C73.4723 101.176 73.7123 102.336 73.7123 103.6C73.7123 104.864 73.4723 106.032 72.9923 107.104C72.5283 108.16 71.8803 109.08 71.0483 109.864C70.2163 110.648 69.2323 111.256 68.0963 111.688C66.9763 112.12 65.7363 112.336 64.3763 112.336ZM64.3763 108.4C65.0163 108.4 65.6083 108.288 66.1523 108.064C66.7123 107.84 67.1923 107.52 67.5923 107.104C68.0083 106.672 68.3283 106.16 68.5523 105.568C68.7923 104.976 68.9123 104.32 68.9123 103.6C68.9123 102.864 68.7923 102.208 68.5523 101.632C68.3283 101.04 68.0083 100.536 67.5923 100.12C67.1923 99.688 66.7123 99.36 66.1523 99.136C65.6083 98.912 65.0163 98.8 64.3763 98.8C63.7363 98.8 63.1363 98.912 62.5763 99.136C62.0323 99.36 61.5523 99.688 61.1363 100.12C60.7363 100.536 60.4163 101.04 60.1763 101.632C59.9523 102.208 59.8403 102.864 59.8403 103.6C59.8403 104.32 59.9523 104.976 60.1763 105.568C60.4163 106.16 60.7363 106.672 61.1363 107.104C61.5523 107.52 62.0323 107.84 62.5763 108.064C63.1363 108.288 63.7363 108.4 64.3763 108.4ZM86.8611 112L82.1331 104.008L85.9491 101.752L92.2131 112H86.8611ZM76.1571 112V95.2H80.8851V112H76.1571ZM79.5171 105.568V101.728H85.6131V105.568H79.5171ZM86.4051 104.104L82.0131 103.624L87.1731 95.2H92.1651L86.4051 104.104ZM97.2466 112V97.912L98.3026 98.968H92.0866V95.2H107.063V98.968H100.871L101.927 97.912V112H97.2466ZM109.253 112V95.2H113.933V105.064L120.869 95.2H125.333V112H120.653V102.16L113.741 112H109.253ZM137.125 112.336C135.797 112.336 134.565 112.128 133.429 111.712C132.309 111.28 131.333 110.672 130.501 109.888C129.685 109.104 129.045 108.184 128.581 107.128C128.117 106.056 127.885 104.88 127.885 103.6C127.885 102.32 128.117 101.152 128.581 100.096C129.045 99.024 129.685 98.096 130.501 97.312C131.333 96.528 132.309 95.928 133.429 95.512C134.565 95.08 135.797 94.864 137.125 94.864C138.677 94.864 140.061 95.136 141.277 95.68C142.509 96.224 143.533 97.008 144.349 98.032L141.325 100.768C140.781 100.128 140.181 99.64 139.525 99.304C138.885 98.968 138.165 98.8 137.365 98.8C136.677 98.8 136.045 98.912 135.469 99.136C134.893 99.36 134.397 99.688 133.981 100.12C133.581 100.536 133.261 101.04 133.021 101.632C132.797 102.224 132.685 102.88 132.685 103.6C132.685 104.32 132.797 104.976 133.021 105.568C133.261 106.16 133.581 106.672 133.981 107.104C134.397 107.52 134.893 107.84 135.469 108.064C136.045 108.288 136.677 108.4 137.365 108.4C138.165 108.4 138.885 108.232 139.525 107.896C140.181 107.56 140.781 107.072 141.325 106.432L144.349 109.168C143.533 110.176 142.509 110.96 141.277 111.52C140.061 112.064 138.677 112.336 137.125 112.336Z" fill="white"/>
<rect x="154" y="83" width="6" height="6" fill="#FC4D9B"/>
<rect x="160" y="89" width="6" height="6" fill="#FC4D9B"/>
<rect x="148" y="89" width="6" height="6" fill="#A05AFF"/>
<rect x="154" y="95" width="6" height="6" fill="#FC4D9B"/>
</g>
<defs>
<clipPath id="clip0_12_2">
<rect width="200" height="200" fill="white"/>
</clipPath>
</defs>
</svg>
