<svg width="200" height="200" viewBox="0 0 200 200" fill="none" xmlns="http://www.w3.org/2000/svg">
<g clip-path="url(#clip0_11_2)">
<rect width="200" height="200" fill="#FE4B4B"/>
<g clip-path="url(#clip1_11_2)">
<path d="M168.785 91.211H153.023C152.78 91.211 152.548 91.3095 152.378 91.4825L148.599 95.3175C148.556 95.3608 148.527 95.4157 148.515 95.4755C148.503 95.5353 148.509 95.5973 148.532 95.6537C148.555 95.71 148.594 95.7584 148.645 95.7925C148.695 95.8267 148.754 95.8453 148.814 95.8459H155.995C156.33 95.8459 156.604 96.1242 156.604 96.4638V108.825C156.604 109.338 157.012 109.752 157.518 109.752H160.258C160.764 109.752 161.172 109.338 161.172 108.825V96.4638C161.172 96.1242 161.446 95.8459 161.781 95.8459H168.785C169.291 95.8459 169.699 95.4325 169.699 94.9186V92.1376C169.699 91.6251 169.291 91.211 168.785 91.211Z" fill="white"/>
<path d="M148.56 91.211H143.213C142.969 91.211 142.737 91.3095 142.567 91.4824L131.022 103.198V92.1369C131.022 91.6243 130.614 91.2103 130.109 91.2103H127.369C126.863 91.2103 126.455 91.6237 126.455 92.1369V108.824C126.455 109.337 126.863 109.751 127.369 109.751H130.645C130.889 109.751 131.12 109.652 131.291 109.479L136.498 104.195C136.555 104.138 136.622 104.092 136.696 104.061C136.77 104.03 136.849 104.014 136.929 104.014C137.009 104.014 137.088 104.03 137.162 104.061C137.236 104.092 137.303 104.138 137.36 104.195L142.567 109.479C142.737 109.652 142.972 109.751 143.213 109.751H148.56C148.62 109.751 148.68 109.732 148.73 109.698C148.78 109.664 148.819 109.616 148.842 109.559C148.865 109.503 148.871 109.441 148.86 109.381C148.848 109.321 148.819 109.266 148.776 109.223L140.158 100.481L148.773 91.7394C148.965 91.5444 148.831 91.211 148.56 91.211ZM74.0818 106.662H83.2174C83.5529 106.662 83.8268 106.94 83.8268 107.28V108.825C83.8268 109.338 84.2342 109.752 84.7403 109.752H87.4805C87.9859 109.752 88.394 109.338 88.394 108.825V107.28C88.394 106.94 88.6679 106.662 89.0034 106.662H98.139C98.6444 106.662 99.0525 106.247 99.0525 105.735V92.1383C99.0525 91.625 98.6444 91.211 98.139 91.211H74.0818C73.5764 91.211 73.1683 91.625 73.1683 92.1383V105.735C73.1683 106.247 73.5764 106.662 74.0818 106.662ZM89.6121 95.8465H93.2665C93.9396 95.8465 94.4846 96.3997 94.4846 97.0824V100.791C94.4846 101.473 93.9396 102.027 93.2665 102.027H89.6121C89.4514 102.026 89.2925 101.993 89.1443 101.931C88.9961 101.869 88.8616 101.777 88.7485 101.663C88.6354 101.548 88.5459 101.412 88.485 101.262C88.4242 101.113 88.3933 100.952 88.394 100.791V97.0824C88.394 96.3997 88.9383 95.8465 89.6121 95.8465ZM78.9543 95.8465H82.6087C83.2811 95.8465 83.8261 96.3997 83.8261 97.0824V100.791C83.8261 101.473 83.2811 102.027 82.6087 102.027H78.9543C78.7936 102.026 78.6346 101.994 78.4863 101.931C78.338 101.869 78.2035 101.778 78.0903 101.663C77.9771 101.548 77.8875 101.412 77.8266 101.262C77.7657 101.113 77.7348 100.952 77.7355 100.791V97.0824C77.7355 96.3997 78.2812 95.8465 78.9543 95.8465ZM102.096 108.825C102.096 109.338 102.504 109.752 103.01 109.752H105.75C106.256 109.752 106.664 109.338 106.664 108.825V107.279C106.664 106.94 106.938 106.661 107.273 106.661H118.236C118.571 106.661 118.845 106.94 118.845 107.279V108.825C118.845 109.338 119.253 109.752 119.758 109.752H122.499C123.004 109.752 123.412 109.338 123.412 108.825V92.1376C123.412 91.625 123.004 91.211 122.499 91.211H103.01C102.504 91.211 102.096 91.6243 102.096 92.1376V108.825ZM107.882 95.8459H117.626C118.3 95.8459 118.845 96.399 118.845 97.0817V100.79C118.845 101.473 118.3 102.026 117.626 102.026H107.882C107.721 102.025 107.562 101.993 107.414 101.93C107.266 101.868 107.132 101.777 107.018 101.662C106.905 101.547 106.816 101.411 106.755 101.261C106.694 101.112 106.663 100.952 106.664 100.79V97.0817C106.664 96.3997 107.209 95.8459 107.882 95.8459Z" fill="white"/>
<path fill-rule="evenodd" clip-rule="evenodd" d="M31.8992 92.2016L37.7283 86.4226C38.0871 86.0671 37.6393 85.6228 37.1901 85.8005C36.6526 85.8894 32.9749 86.9564 32.347 87.1335C31.8095 87.223 31.0022 87.8451 31.0022 88.379V91.758C31.0022 92.2016 31.4507 92.6467 31.8992 92.2016ZM31.8992 100.115C32.258 99.6706 45.5322 86.6003 46.1594 85.9782C46.7873 85.3555 46.1594 85 45.6212 85C45.083 85 42.7515 85.0889 42.303 85.0889C42.0762 85.108 41.8556 85.1731 41.6545 85.2804C41.4546 85.3872 41.2779 85.5339 41.1369 85.7116C40.8678 85.8887 31.7205 94.9586 31.5411 95.137C31.361 95.3154 31.0029 95.6688 31.0029 96.2034V99.5817C31.0029 100.116 31.4514 100.56 31.8999 100.115H31.8992ZM52.7068 86.2448C52.0789 86.0671 50.554 85.6221 50.0158 85.6221C49.4783 85.6221 49.1188 85.9775 48.9401 86.156L31.8992 103.049C31.6116 103.225 31.3761 103.475 31.2186 103.772C31.0611 104.069 30.9858 104.403 31.0022 104.738C31.0022 105.805 31.1816 106.072 31.2713 107.05C31.361 108.028 32.1683 107.939 32.7962 107.405L53.2443 87.1342C53.6038 86.778 53.3347 86.4226 52.7068 86.2448ZM56.8323 91.8462C57.1908 91.4618 57.3842 90.9506 57.3704 90.4236V88.2006C57.3704 87.4896 56.3838 87.0446 55.5765 87.7562L34.3211 108.829C33.5145 109.628 33.7836 110.251 34.3211 110.607C34.8593 110.963 35.1291 111.318 35.9357 111.674C36.7437 112.029 37.0121 111.496 37.1915 111.318L56.8323 91.8462ZM56.2044 95.4029C55.7559 95.8472 39.523 111.853 38.9841 112.474C38.3562 113.097 38.626 113.541 39.0738 113.808C39.5223 114.075 40.7781 114.875 41.3163 114.875C41.8545 114.875 42.0339 114.785 42.2133 114.608L56.7432 100.204C56.9226 100.026 57.2814 99.6706 57.2814 99.1374V95.7591C57.3704 95.1363 56.8322 94.7808 56.2044 95.4029ZM56.3838 103.227C55.5765 103.938 44.9933 114.52 44.4544 114.964C43.9162 115.497 43.9162 116.209 44.8132 115.942C45.7102 115.587 57.2801 110.785 57.2801 105.894V103.76C57.2801 102.96 56.8322 102.693 56.3838 103.227Z" fill="white"/>
</g>
</g>
<defs>
<clipPath id="clip0_11_2">
<rect width="200" height="200" fill="white"/>
</clipPath>
<clipPath id="clip1_11_2">
<rect width="139" height="31" fill="white" transform="translate(31 85)"/>
</clipPath>
</defs>
</svg>
