<svg width="200" height="200" viewBox="0 0 200 200" fill="none" xmlns="http://www.w3.org/2000/svg">
<g clip-path="url(#clip0_3_2)">
<rect width="200" height="200" fill="#0788FC"/>
<g clip-path="url(#clip1_3_2)">
<mask id="mask0_3_2" style="mask-type:luminance" maskUnits="userSpaceOnUse" x="27" y="80" width="145" height="40">
<path d="M171.944 80H27.5V120H171.944V80Z" fill="white"/>
</mask>
<g mask="url(#mask0_3_2)">
<path d="M49.388 99.1019C49.388 105.012 54.2786 109.388 60.3537 109.388C66.4289 109.388 71.2891 104.955 71.2891 99.1019C71.2891 93.1914 66.4289 88.8155 60.3537 88.8155C54.1874 88.8155 49.388 93.3619 49.388 99.1019ZM54.2786 99.1019C54.2786 95.4079 57.1339 93.0778 60.3537 93.0778C63.452 93.0778 66.3986 95.4079 66.3986 99.1019C66.3986 102.796 63.6951 105.126 60.3537 105.126C57.1339 105.126 54.2786 102.796 54.2786 99.1019Z" fill="white"/>
<path d="M74.1819 109.047H78.8901V97.0276L84.6009 105.041H85.8462L91.3747 97.1128V109.047H96.0829V89.1565H91.8303L85.3602 98.6756L78.556 89.1565H74.1819V109.047Z" fill="white"/>
<path d="M114.144 109.047H118.853V89.1565H100.02V109.047H104.728V93.2767H114.144V109.047Z" fill="white"/>
<path d="M121.738 99.1019C121.738 105.012 126.628 109.388 132.704 109.388C138.779 109.388 143.639 104.955 143.639 99.1019C143.639 93.1914 138.779 88.8155 132.704 88.8155C126.538 88.8155 121.738 93.3619 121.738 99.1019ZM126.628 99.1019C126.628 95.4079 129.484 93.0778 132.704 93.0778C135.802 93.0778 138.749 95.4079 138.749 99.1019C138.749 102.796 136.045 105.126 132.704 105.126C129.484 105.126 126.628 102.796 126.628 99.1019Z" fill="white"/>
<path d="M143.52 93.2767H150.324V109.047H155.032V93.2767H161.867V89.1565H143.52V93.2767Z" fill="white"/>
<path d="M27.5 109.388H33.5796V102.105L40.8331 109.388H48.548L38.2709 98.7321L48.2544 88.8044H40.4558L33.5796 95.7712V80.4917H27.5V109.388Z" fill="white"/>
<path d="M49.167 114.991H27.5V119.708H49.167V114.991Z" fill="white"/>
<path d="M167.791 82.4503C168.42 82.4503 168.988 82.5893 169.494 82.8673C170.009 83.1453 170.411 83.529 170.703 84.0185C170.996 84.502 171.14 85.0399 171.14 85.6321C171.14 86.2244 170.992 86.7683 170.693 87.2639C170.396 87.7534 169.989 88.1402 169.476 88.4242C168.962 88.7082 168.393 88.8502 167.772 88.8502C167.151 88.8502 166.583 88.7082 166.069 88.4242C165.561 88.1402 165.159 87.7534 164.861 87.2639C164.568 86.7743 164.422 86.2365 164.422 85.6503C164.422 85.064 164.568 84.5262 164.861 84.0367C165.159 83.5471 165.564 83.1604 166.078 82.8763C166.592 82.5923 167.163 82.4503 167.791 82.4503ZM167.772 88.261C168.279 88.261 168.74 88.1462 169.152 87.9166C169.571 87.6809 169.898 87.3636 170.132 86.9647C170.373 86.5598 170.494 86.1156 170.494 85.6321C170.494 85.1426 170.377 84.7014 170.142 84.3086C169.913 83.9158 169.593 83.6076 169.18 83.384C168.768 83.1543 168.306 83.0395 167.791 83.0395C167.278 83.0395 166.814 83.1543 166.401 83.384C165.989 83.6136 165.666 83.9279 165.431 84.3267C165.197 84.7256 165.079 85.1668 165.079 85.6503C165.079 86.1337 165.197 86.5749 165.431 86.9738C165.666 87.3726 165.987 87.6869 166.392 87.9166C166.804 88.1462 167.264 88.261 167.772 88.261ZM169.542 85.1426C169.542 85.3964 169.482 85.617 169.361 85.8044C169.247 85.9857 169.077 86.1277 168.848 86.2304L169.657 87.4089H168.667L167.972 86.3936H167.934H167.316V87.4089H166.326V83.8916H167.934C168.436 83.8916 168.829 84.0064 169.114 84.2361C169.4 84.4597 169.542 84.7619 169.542 85.1426ZM167.867 85.6865C168.09 85.6865 168.261 85.6412 168.381 85.5505C168.508 85.4538 168.571 85.3179 168.571 85.1426C168.571 84.9674 168.508 84.8314 168.381 84.7347C168.261 84.638 168.09 84.5896 167.867 84.5896H167.306V85.6865H167.867Z" fill="white"/>
</g>
</g>
</g>
<defs>
<clipPath id="clip0_3_2">
<rect width="200" height="200" fill="white"/>
</clipPath>
<clipPath id="clip1_3_2">
<rect width="144.444" height="40" fill="white" transform="translate(27.5 80)"/>
</clipPath>
</defs>
</svg>
