<svg width="200" height="200" viewBox="0 0 200 200" fill="none" xmlns="http://www.w3.org/2000/svg">
<g clip-path="url(#clip0_3_18)">
<rect width="200" height="200" fill="#FF5454"/>
<g clip-path="url(#clip1_3_18)">
<mask id="mask0_3_18" style="mask-type:luminance" maskUnits="userSpaceOnUse" x="37" y="80" width="126" height="40">
<path d="M162.5 80H37.5V120H162.5V80Z" fill="white"/>
</mask>
<g mask="url(#mask0_3_18)">
<path d="M51.0088 85.9949C51.0088 88.7043 49.943 90.4353 47.8361 91.2381L52.0499 97.2843H47.4643L43.7711 91.8904H41.218V97.2843H37.5V80.4004H43.8206C46.4233 80.4004 48.2575 80.852 49.3729 81.73C50.4635 82.6081 51.0088 84.0381 51.0088 85.9949ZM46.5224 88.0019C46.9934 87.5754 47.2164 86.9231 47.2164 86.02C47.2164 85.1168 46.9686 84.4896 46.4976 84.1384C46.0267 83.7872 45.1839 83.6367 43.9942 83.6367H41.218V88.629H43.9446C45.2087 88.629 46.0762 88.4283 46.5224 88.0019Z" fill="white"/>
<path d="M59.2372 92.919C59.857 93.6968 60.6996 94.0981 61.7407 94.0981C62.7817 94.0981 63.6245 93.6968 64.2441 92.919C64.8639 92.1413 65.1612 91.0625 65.1612 89.7078V80.4004H68.8794V89.8332C68.8794 92.2918 68.21 94.1733 66.8715 95.4779C65.533 96.7824 63.8227 97.4348 61.7407 97.4348C59.6586 97.4348 57.9484 96.7824 56.6099 95.4528C55.2714 94.1233 54.602 92.2667 54.602 89.8332V80.4004H58.3201V89.7329C58.3201 91.0625 58.6175 92.1413 59.2372 92.919Z" fill="white"/>
<path d="M76.6373 83.7631C76.2903 84.0641 76.092 84.4655 76.092 84.9422C76.092 85.4439 76.315 85.8203 76.7364 86.1213C77.1825 86.4224 78.174 86.7485 79.7604 87.1499C81.3468 87.5513 82.5613 88.1283 83.4536 88.9311C84.3211 89.7088 84.7674 90.8628 84.7674 92.3931C84.7674 93.8984 84.1973 95.1278 83.0819 96.081C81.9665 97.0343 80.4791 97.4859 78.645 97.4859C75.9928 97.4859 73.638 96.4824 71.5064 94.5256L73.7371 91.766C75.5219 93.3716 77.2074 94.1492 78.7194 94.1492C79.4134 94.1492 79.9339 93.9988 80.3305 93.6978C80.727 93.3966 80.9254 92.9952 80.9254 92.4935C80.9254 91.9917 80.727 91.5904 80.3056 91.2893C79.8844 90.9883 79.0664 90.6872 77.8518 90.3862C75.9185 89.9095 74.4808 89.3074 73.5885 88.5548C72.6961 87.8022 72.25 86.6231 72.25 85.0175C72.25 83.4119 72.82 82.1826 73.9603 81.3045C75.1005 80.4265 76.5134 80 78.2235 80C79.339 80 80.4545 80.2007 81.5699 80.577C82.6853 80.9533 83.652 81.5052 84.4699 82.2077L82.586 84.9673C81.1485 83.8634 79.6365 83.3115 78.0996 83.3115C77.5048 83.3115 77.009 83.462 76.6373 83.7631Z" fill="white"/>
<path d="M91.8569 83.7631C91.5099 84.0641 91.3116 84.4655 91.3116 84.9422C91.3116 85.4439 91.5346 85.8203 91.9561 86.1213C92.4023 86.4224 93.3936 86.7485 94.9801 87.1499C96.5664 87.5513 97.781 88.1283 98.6733 88.9311C99.5409 89.7088 99.987 90.8628 99.987 92.3931C99.987 93.8984 99.4169 95.1278 98.3015 96.081C97.1861 97.0343 95.6989 97.4859 93.8646 97.4859C91.2125 97.4859 88.8576 96.4824 86.7261 94.5256L88.9569 91.766C90.7415 93.3716 92.427 94.1492 93.939 94.1492C94.6331 94.1492 95.1536 93.9988 95.5501 93.6978C95.9468 93.3966 96.1451 92.9952 96.1451 92.4935C96.1451 91.9917 95.9468 91.5904 95.5254 91.2893C95.104 90.9883 94.2861 90.6872 93.0715 90.3862C91.1381 89.9095 89.7005 89.3074 88.8081 88.5548C87.9158 87.8022 87.4696 86.6231 87.4696 85.0175C87.4696 83.4119 88.0398 82.1826 89.18 81.3045C90.3201 80.4265 91.733 80 93.4433 80C94.5586 80 95.6741 80.2007 96.7895 80.577C97.9049 80.9533 98.8716 81.5052 99.6896 82.2077L97.8058 84.9673C96.3681 83.8634 94.8561 83.3115 93.3194 83.3115C92.7245 83.3115 92.2286 83.462 91.8569 83.7631Z" fill="white"/>
<path d="M103.184 80.4004H106.902V97.2843H103.184V80.4004Z" fill="white"/>
<path d="M122.89 97.2843L121.328 93.6465H114.339L112.777 97.2843H108.811L116.024 80.4004H119.618L126.831 97.2843H122.89ZM117.858 85.4179L115.751 90.3099H119.916L117.858 85.4179Z" fill="white"/>
<path d="M140.439 80.4004H144.157V97.2843H140.439L132.483 86.6973V97.2843H128.765V80.4004H132.26L140.439 91.2632V80.4004Z" fill="white"/>
<path d="M51.0088 108.099C51.0088 110.809 49.943 112.54 47.8361 113.343L52.0499 119.389H47.4643L43.7711 113.995H41.218V119.389H37.5V102.505H43.8206C46.4233 102.505 48.2575 102.956 49.3729 103.834C50.4635 104.713 51.0088 106.143 51.0088 108.099ZM46.5224 110.106C46.9934 109.68 47.2164 109.028 47.2164 108.124C47.2164 107.221 46.9686 106.594 46.4976 106.243C46.0267 105.892 45.1839 105.741 43.9942 105.741H41.218V110.734H43.9446C45.2087 110.734 46.0762 110.533 46.5224 110.106Z" fill="white"/>
<path d="M68.8555 117.054C67.17 118.71 65.0879 119.563 62.634 119.563C60.1801 119.563 58.0981 118.735 56.4125 117.054C54.727 115.398 53.8842 113.316 53.8842 110.833C53.8842 108.349 54.727 106.292 56.4125 104.611C58.0981 102.955 60.1801 102.102 62.634 102.102C65.0879 102.102 67.17 102.93 68.8555 104.611C70.5411 106.267 71.3837 108.349 71.3837 110.833C71.3837 113.316 70.5411 115.373 68.8555 117.054ZM67.5914 110.833C67.5914 109.327 67.1205 108.048 66.1537 106.969C65.1871 105.915 64.0221 105.363 62.634 105.363C61.246 105.363 60.081 105.89 59.1142 106.969C58.1476 108.023 57.6766 109.327 57.6766 110.833C57.6766 112.338 58.1476 113.617 59.1142 114.671C60.0561 115.725 61.246 116.251 62.634 116.251C64.0221 116.251 65.1871 115.725 66.1537 114.671C67.1205 113.617 67.5914 112.338 67.5914 110.833Z" fill="white"/>
<path d="M81.8435 119.389H74.5312V102.505H81.0255C82.1656 102.505 83.1324 102.63 83.9504 102.906C84.7683 103.182 85.388 103.559 85.8094 104.01C86.553 104.888 86.9247 105.867 86.9247 106.945C86.9247 108.275 86.5034 109.253 85.6605 109.881C85.3631 110.106 85.1649 110.257 85.0658 110.307C84.9665 110.357 84.7435 110.458 84.4709 110.583C85.5119 110.809 86.3299 111.285 86.9495 111.988C87.5691 112.715 87.8666 113.593 87.8666 114.647C87.8666 115.826 87.47 116.855 86.6769 117.758C85.735 118.862 84.1239 119.389 81.8435 119.389ZM78.2494 109.329H80.0091C81.0503 109.329 81.8186 109.203 82.3144 108.977C82.8101 108.752 83.058 108.275 83.058 107.522C83.058 106.77 82.8349 106.268 82.364 106.042C81.893 105.791 81.1246 105.691 80.034 105.691H78.2494V109.329ZM78.2494 116.203H80.8024C81.8682 116.203 82.6614 116.077 83.2066 115.801C83.7272 115.525 83.9999 115.023 83.9999 114.221C83.9999 113.443 83.7272 112.916 83.1571 112.665C82.587 112.414 81.6947 112.289 80.4554 112.289H78.2494V116.203Z" fill="white"/>
<path d="M104.993 117.054C103.308 118.71 101.226 119.563 98.7717 119.563C96.3179 119.563 94.2358 118.735 92.5503 117.054C90.8648 115.398 90.022 113.316 90.022 110.833C90.022 108.349 90.8648 106.292 92.5503 104.611C94.2358 102.955 96.3179 102.102 98.7717 102.102C101.226 102.102 103.308 102.93 104.993 104.611C106.679 106.267 107.522 108.349 107.522 110.833C107.522 113.316 106.679 115.373 104.993 117.054ZM103.729 110.833C103.729 109.327 103.258 108.048 102.291 106.969C101.325 105.915 100.16 105.363 98.7717 105.363C97.3836 105.363 96.2187 105.89 95.2521 106.969C94.2854 108.023 93.8144 109.327 93.8144 110.833C93.8144 112.338 94.2854 113.617 95.2521 114.671C96.194 115.725 97.3836 116.251 98.7717 116.251C100.16 116.251 101.325 115.725 102.291 114.671C103.258 113.617 103.729 112.338 103.729 110.833Z" fill="white"/>
<path d="M117.735 105.766V119.389H114.017V105.766H109.282V102.505H122.444V105.766H117.735Z" fill="white"/>
<path d="M125.171 102.505H128.889V119.389H125.171V102.505Z" fill="white"/>
<path d="M140.663 116.051C142.497 116.051 143.984 115.323 145.149 113.843L147.529 116.327C145.645 118.484 143.414 119.563 140.836 119.563C138.258 119.563 136.151 118.735 134.491 117.104C132.83 115.474 131.987 113.391 131.987 110.883C131.987 108.374 132.83 106.292 134.54 104.611C136.226 102.93 138.308 102.102 140.762 102.102C143.488 102.102 145.794 103.156 147.628 105.263L145.323 107.922C144.158 106.442 142.695 105.69 140.935 105.69C139.547 105.69 138.333 106.141 137.341 107.069C136.35 107.998 135.854 109.252 135.854 110.807C135.854 112.388 136.325 113.642 137.267 114.596C138.184 115.574 139.324 116.051 140.663 116.051Z" fill="white"/>
<path d="M154.372 105.865C154.025 106.166 153.827 106.568 153.827 107.044C153.827 107.546 154.05 107.922 154.471 108.223C154.917 108.524 155.909 108.851 157.495 109.252C159.082 109.653 160.296 110.23 161.189 111.033C162.056 111.811 162.501 112.965 162.501 114.495C162.501 116.001 161.932 117.23 160.817 118.183C159.701 119.136 158.214 119.588 156.38 119.588C153.728 119.588 151.373 118.585 149.241 116.628L151.447 113.868C153.257 115.474 154.917 116.251 156.429 116.251C157.123 116.251 157.644 116.101 158.041 115.8C158.437 115.499 158.635 115.097 158.635 114.596C158.635 114.094 158.437 113.692 158.016 113.391C157.594 113.09 156.776 112.789 155.562 112.488C153.629 112.012 152.191 111.41 151.299 110.657C150.406 109.904 149.96 108.725 149.96 107.12C149.96 105.514 150.53 104.285 151.67 103.407C152.811 102.529 154.223 102.102 155.934 102.102C157.049 102.102 158.165 102.303 159.28 102.679C160.395 103.055 161.362 103.607 162.18 104.31L160.296 107.069C158.859 105.966 157.347 105.414 155.81 105.414C155.215 105.414 154.719 105.564 154.372 105.865Z" fill="white"/>
</g>
</g>
</g>
<defs>
<clipPath id="clip0_3_18">
<rect width="200" height="200" fill="white"/>
</clipPath>
<clipPath id="clip1_3_18">
<rect width="125" height="40" fill="white" transform="translate(37.5 80)"/>
</clipPath>
</defs>
</svg>
