<?xml version="1.0" encoding="utf-8"?><svg viewBox="0 0 48 48" xmlns="http://www.w3.org/2000/svg" xmlns:xlink="http://www.w3.org/1999/xlink"><style>:root>svg{display:none}:root>svg:target{display:block}</style><svg fill="none" viewBox="0 0 48 48" id="Github" xmlns="http://www.w3.org/2000/svg"><g clip-path="url(#aclip0_910_44)" fill="#fff"><path fill-rule="evenodd" clip-rule="evenodd" d="M24 1A24.086 24.086 0 008.454 6.693 23.834 23.834 0 00.319 21.044a23.754 23.754 0 003.153 16.172 23.98 23.98 0 0012.938 10.29c1.192.221 1.641-.518 1.641-1.146 0-.628-.024-2.45-.032-4.442-6.676 1.443-8.087-2.817-8.087-2.817-1.089-2.766-2.663-3.493-2.663-3.493-2.178-1.478.163-1.45.163-1.45 2.413.17 3.68 2.461 3.68 2.461 2.138 3.648 5.616 2.593 6.983 1.976.215-1.545.838-2.596 1.526-3.193-5.333-.6-10.937-2.647-10.937-11.791a9.213 9.213 0 012.472-6.406c-.246-.6-1.069-3.026.234-6.322 0 0 2.015-.64 6.602 2.446a22.904 22.904 0 0112.017 0c4.583-3.086 6.594-2.446 6.594-2.446 1.307 3.288.484 5.714.238 6.322a9.194 9.194 0 012.476 6.414c0 9.163-5.615 11.183-10.957 11.772.859.742 1.626 2.193 1.626 4.421 0 3.193-.028 5.762-.028 6.548 0 .636.433 1.38 1.65 1.146a23.98 23.98 0 0012.938-10.291 23.754 23.754 0 003.151-16.175A23.834 23.834 0 0039.56 6.69 24.086 24.086 0 0024.009 1H24z"/><path d="M9.089 35.264c-.052.119-.243.154-.398.071-.155-.083-.27-.237-.214-.36.056-.122.242-.154.397-.07.155.082.274.24.215.359zm.974 1.079a.4.4 0 01-.493-.11c-.155-.167-.187-.396-.068-.499.12-.102.334-.055.489.11.155.167.19.396.072.499zm.945 1.371c-.147.103-.397 0-.536-.206a.395.395 0 010-.569c.147-.098.397 0 .537.202.139.202.143.47 0 .573zm1.284 1.328c-.131.146-.397.106-.616-.091-.219-.198-.27-.467-.139-.609.131-.142.397-.102.624.091.226.194.27.466.131.609zm1.8.774c-.06.186-.33.269-.6.19-.27-.08-.449-.3-.397-.49.051-.19.326-.277.6-.19.274.087.449.297.397.49zm1.964.134c0 .194-.223.36-.509.364-.286.004-.52-.154-.52-.348 0-.193.222-.36.508-.363.286-.004.52.15.52.347zm1.828-.304c.036.194-.163.395-.45.443-.285.047-.536-.067-.572-.257-.035-.19.171-.395.45-.447.278-.05.536.068.572.261z"/></g><defs><clipPath id="aclip0_910_44"><path fill="#fff" d="M0 0h48v48H0z"/></clipPath></defs></svg><svg fill="none" viewBox="0 0 48 48" id="Instagram" xmlns="http://www.w3.org/2000/svg"><g clip-path="url(#bclip0_17_63)" fill="#fff"><path d="M24 4.322c6.413 0 7.172.028 9.694.14 2.343.104 3.61.497 4.453.825 1.116.432 1.922.957 2.756 1.791.844.844 1.36 1.64 1.79 2.756.329.844.723 2.12.826 4.454.112 2.53.14 3.29.14 9.693 0 6.413-.028 7.172-.14 9.694-.103 2.344-.497 3.61-.825 4.453-.431 1.116-.957 1.922-1.79 2.756-.845.844-1.642 1.36-2.757 1.791-.844.328-2.119.722-4.453.825-2.532.112-3.29.14-9.694.14-6.413 0-7.172-.028-9.694-.14-2.343-.103-3.61-.497-4.453-.825-1.115-.431-1.922-.956-2.756-1.79-.844-.844-1.36-1.641-1.79-2.757-.329-.844-.723-2.119-.826-4.453-.112-2.531-.14-3.29-.14-9.694 0-6.412.028-7.172.14-9.694.103-2.343.497-3.609.825-4.453.431-1.115.957-1.921 1.79-2.756.845-.844 1.642-1.36 2.757-1.79.844-.329 2.119-.722 4.453-.825 2.522-.113 3.281-.141 9.694-.141zM24 0c-6.516 0-7.331.028-9.89.14-2.55.113-4.304.526-5.822 1.116-1.585.619-2.926 1.435-4.257 2.775-1.34 1.332-2.156 2.672-2.775 4.247C.666 9.806.253 11.55.141 14.1.028 16.669 0 17.484 0 24s.028 7.331.14 9.89c.113 2.55.526 4.304 1.116 5.822.619 1.585 1.435 2.925 2.775 4.257a11.732 11.732 0 004.247 2.765c1.528.591 3.272 1.003 5.822 1.116 2.56.112 3.375.14 9.89.14 6.516 0 7.332-.028 9.891-.14 2.55-.113 4.303-.525 5.822-1.116a11.732 11.732 0 004.247-2.765 11.732 11.732 0 002.766-4.247c.59-1.528 1.003-3.272 1.115-5.822.113-2.56.14-3.375.14-9.89 0-6.516-.027-7.332-.14-9.891-.112-2.55-.525-4.303-1.115-5.822-.591-1.594-1.407-2.935-2.747-4.266a11.732 11.732 0 00-4.247-2.765C38.194.675 36.45.262 33.9.15 31.331.028 30.516 0 24 0z"/><path d="M24 11.672c-6.806 0-12.328 5.522-12.328 12.328 0 6.806 5.522 12.328 12.328 12.328 6.806 0 12.328-5.522 12.328-12.328 0-6.806-5.522-12.328-12.328-12.328zm0 20.325a7.998 7.998 0 010-15.994 7.998 7.998 0 010 15.994zm15.694-20.813a2.879 2.879 0 11-2.878-2.878 2.885 2.885 0 012.878 2.878z"/></g><defs><clipPath id="bclip0_17_63"><path fill="#fff" d="M0 0h48v48H0z"/></clipPath></defs></svg><svg fill="none" viewBox="0 0 48 48" id="Telegram" xmlns="http://www.w3.org/2000/svg"><g clip-path="url(#cclip0_318_75)"><path fill-rule="evenodd" clip-rule="evenodd" d="M48 24c0 13.255-10.745 24-24 24S0 37.255 0 24 10.745 0 24 0s24 10.745 24 24zm-23.14-6.282c-2.334.97-7 2.98-13.996 6.029-1.136.451-1.731.893-1.786 1.326-.091.73.823 1.018 2.069 1.41.17.052.345.108.525.166 1.225.398 2.874.864 3.73.883.778.017 1.646-.304 2.603-.961 6.537-4.413 9.912-6.643 10.124-6.692.15-.033.356-.076.496.049.14.124.127.36.112.424-.09.386-3.68 3.724-5.539 5.452-.579.538-.99.92-1.074 1.007-.188.196-.38.38-.564.558-1.138 1.098-1.992 1.92.047 3.265.98.645 1.765 1.18 2.547 1.712.854.582 1.707 1.163 2.81 1.885.28.184.548.376.81.562.994.709 1.887 1.346 2.991 1.244.642-.059 1.304-.662 1.64-2.46.795-4.25 2.358-13.46 2.72-17.255a4.228 4.228 0 00-.04-.945c-.033-.187-.1-.453-.342-.65-.288-.233-.732-.282-.93-.279-.903.016-2.288.498-8.953 3.27z" fill="#fff"/></g><defs><clipPath id="cclip0_318_75"><path fill="#fff" d="M0 0h48v48H0z"/></clipPath></defs></svg><svg fill="none" viewBox="0 0 48 48" id="VK" xmlns="http://www.w3.org/2000/svg"><g clip-path="url(#dclip0_1106_8)"><path fill-rule="evenodd" clip-rule="evenodd" d="M3.374 3.374C0 6.748 0 12.18 0 23.04v1.92c0 10.861 0 16.292 3.374 19.666C6.748 48 12.18 48 23.04 48h1.92c10.861 0 16.292 0 19.666-3.374C48 41.252 48 35.82 48 24.96v-1.92c0-10.861 0-16.292-3.374-19.666C41.252 0 35.82 0 24.96 0h-1.92C12.179 0 6.748 0 3.374 3.374zM8.1 14.6c.26 12.48 6.5 19.98 17.44 19.98h.62v-7.14c4.02.4 7.06 3.34 8.28 7.14h5.68c-1.56-5.68-5.66-8.82-8.22-10.02 2.56-1.48 6.16-5.08 7.02-9.96h-5.16c-1.12 3.96-4.44 7.56-7.6 7.9v-7.9H21v13.84c-3.2-.8-7.24-4.68-7.42-13.84H8.1z" fill="#fff"/></g><defs><clipPath id="dclip0_1106_8"><path fill="#fff" d="M0 0h48v48H0z"/></clipPath></defs></svg></svg>