<svg width="24" height="25" viewBox="0 0 24 25" fill="none" xmlns="http://www.w3.org/2000/svg">
<path d="M21 18.197C21 18.521 20.9279 18.854 20.7747 19.178C20.6214 19.502 20.4231 19.808 20.1617 20.096C19.7201 20.582 19.2334 20.933 18.6835 21.158C18.1427 21.383 17.5568 21.5 16.9259 21.5C16.0065 21.5 15.024 21.284 13.9875 20.843C12.9509 20.402 11.9144 19.808 10.8868 19.061C9.85028 18.305 8.8678 17.468 7.9304 16.541C7.002 15.605 6.16375 14.624 5.41562 13.598C4.67651 12.572 4.08162 11.546 3.64897 10.529C3.21632 9.503 3 8.522 3 7.586C3 6.974 3.10816 6.389 3.32449 5.849C3.54081 5.3 3.88333 4.796 4.36104 4.346C4.93791 3.779 5.56885 3.5 6.23585 3.5C6.48823 3.5 6.74061 3.554 6.96595 3.662C7.2003 3.77 7.40761 3.932 7.56986 4.166L9.66099 7.109C9.82324 7.334 9.94041 7.541 10.0215 7.739C10.1027 7.928 10.1477 8.117 10.1477 8.288C10.1477 8.504 10.0846 8.72 9.95844 8.927C9.84126 9.134 9.67001 9.35 9.45368 9.566L8.76865 10.277C8.6695 10.376 8.62444 10.493 8.62444 10.637C8.62444 10.709 8.63345 10.772 8.65148 10.844C8.67852 10.916 8.70556 10.97 8.72359 11.024C8.88583 11.321 9.16525 11.708 9.56184 12.176C9.96745 12.644 10.4001 13.121 10.8688 13.598C11.3555 14.075 11.8242 14.516 12.302 14.921C12.7707 15.317 13.1582 15.587 13.4647 15.749C13.5098 15.767 13.5638 15.794 13.6269 15.821C13.699 15.848 13.7712 15.857 13.8523 15.857C14.0055 15.857 14.1227 15.803 14.2218 15.704L14.9069 15.029C15.1322 14.804 15.3485 14.633 15.5558 14.525C15.7631 14.399 15.9705 14.336 16.1958 14.336C16.3671 14.336 16.5473 14.372 16.7456 14.453C16.9439 14.534 17.1512 14.651 17.3766 14.804L20.36 16.919C20.5944 17.081 20.7566 17.27 20.8558 17.495C20.9459 17.72 21 17.945 21 18.197Z" stroke="#D5D5D5" stroke-width="2" stroke-miterlimit="10"/>
</svg>
