<svg width="24" height="25" viewBox="0 0 24 25" fill="none" xmlns="http://www.w3.org/2000/svg">
<path d="M12 16.8333C11.4477 16.8333 11 16.3856 11 15.8333V13.5H8.66663C8.11434 13.5 7.66663 13.0523 7.66663 12.5C7.66663 11.9477 8.11434 11.5 8.66663 11.5H11V9.16667C11 8.61438 11.4477 8.16667 12 8.16667C12.5522 8.16667 13 8.61438 13 9.16667V11.5H15.3333C15.8856 11.5 16.3333 11.9477 16.3333 12.5C16.3333 13.0523 15.8856 13.5 15.3333 13.5H13V15.8333C13 16.3856 12.5522 16.8333 12 16.8333Z" fill="white"/>
<path fill-rule="evenodd" clip-rule="evenodd" d="M2 12.5C2 6.97715 6.47715 2.5 12 2.5C17.5228 2.5 22 6.97715 22 12.5C22 18.0228 17.5228 22.5 12 22.5C6.47715 22.5 2 18.0228 2 12.5ZM12 4.5C7.58172 4.5 4 8.08172 4 12.5C4 16.9183 7.58172 20.5 12 20.5C16.4183 20.5 20 16.9183 20 12.5C20 8.08172 16.4183 4.5 12 4.5Z" fill="white"/>
</svg>
