<svg width="24" height="25" viewBox="0 0 24 25" fill="none" xmlns="http://www.w3.org/2000/svg">
<path fill-rule="evenodd" clip-rule="evenodd" d="M12.9886 21.4463C17.4941 20.954 21 17.1365 21 12.5C21 7.52944 16.9706 3.5 12 3.5C7.02944 3.5 3 7.52944 3 12.5C3 15.3792 4.35198 17.9426 6.45572 19.59L4.23006 21.3211C4.1549 21.3795 4.19624 21.5 4.29145 21.5H12H12.9C12.9385 21.5 12.9719 21.4782 12.9886 21.4463Z" fill="white"/>
<path d="M12.9886 21.4463L12.88 20.4522L12.35 20.5101L12.1027 20.9825L12.9886 21.4463ZM6.45572 19.59L7.06966 20.3793L8.08109 19.5927L7.07226 18.8027L6.45572 19.59ZM4.23006 21.3211L3.61612 20.5317L3.61611 20.5317L4.23006 21.3211ZM20 12.5C20 16.6206 16.8838 20.0148 12.88 20.4522L13.0973 22.4404C18.1043 21.8933 22 17.6523 22 12.5H20ZM12 4.5C16.4183 4.5 20 8.08172 20 12.5H22C22 6.97715 17.5228 2.5 12 2.5V4.5ZM4 12.5C4 8.08172 7.58172 4.5 12 4.5V2.5C6.47715 2.5 2 6.97715 2 12.5H4ZM7.07226 18.8027C5.20015 17.3366 4 15.0587 4 12.5H2C2 15.6996 3.50381 18.5485 5.83917 20.3773L7.07226 18.8027ZM4.844 22.1104L7.06966 20.3793L5.84178 18.8006L3.61612 20.5317L4.844 22.1104ZM4.29145 20.5C5.1484 20.5 5.52041 21.5843 4.84401 22.1104L3.61611 20.5317C2.78939 21.1747 3.24408 22.5 4.29145 22.5V20.5ZM12 20.5H4.29145V22.5H12V20.5ZM12.9 20.5H12V22.5H12.9V20.5ZM12.1027 20.9825C12.2517 20.6979 12.5519 20.5 12.9 20.5V22.5C13.3252 22.5 13.6921 22.2586 13.8746 21.9102L12.1027 20.9825Z" fill="#3D3E55"/>
</svg>
