<svg width="55" height="56" viewBox="0 0 55 56" fill="none" xmlns="http://www.w3.org/2000/svg">
<path d="M23.1516 2.23531C24.1434 1.59919 25.4674 1.95395 26.0083 3.00074L28.3644 7.56096C28.6377 8.09 29.1326 8.46972 29.7144 8.59683L34.729 9.69242C35.8801 9.94391 36.5655 11.131 36.2077 12.2536L34.6492 17.1442C34.4684 17.7116 34.5498 18.33 34.8713 18.8312L37.6425 23.1518C38.2786 24.1436 37.9239 25.4676 36.8771 26.0085L32.3168 28.3646C31.7878 28.638 31.4081 29.1328 31.281 29.7146L30.1854 34.7292C29.9339 35.8803 28.7468 36.5657 27.6242 36.2079L22.7336 34.6494C22.1662 34.4686 21.5478 34.55 21.0466 34.8715L16.726 37.6427C15.7342 38.2788 14.4102 37.9241 13.8693 36.8773L11.5132 32.3171C11.2399 31.788 10.745 31.4083 10.1632 31.2812L5.14857 30.1856C3.99748 29.9341 3.31213 28.747 3.66988 27.6244L5.2284 22.7338C5.4092 22.1664 5.32779 21.548 5.0063 21.0468L2.2351 16.7262C1.59898 15.7344 1.95374 14.4104 3.00053 13.8696L7.56076 11.5134C8.08979 11.2401 8.46951 10.7452 8.59662 10.1634L9.69221 5.14878C9.9437 3.99769 11.1308 3.31234 12.2534 3.67009L17.144 5.22861C17.7114 5.40941 18.3298 5.328 18.831 5.00651L23.1516 2.23531Z" stroke="#FFC700" stroke-width="3"/>
<circle cx="19.6391" cy="20.1117" r="7.0793" transform="rotate(15 19.6391 20.1117)" stroke="#FFC700" stroke-width="3"/>
<path d="M39.5213 30.6237C40.3147 29.7525 41.6853 29.7525 42.4787 30.6237L44.0683 32.3692C44.4693 32.8094 45.0456 33.0481 45.6404 33.0203L47.9987 32.9101C49.1756 32.8551 50.1449 33.8244 50.0899 35.0013L49.9797 37.3596C49.9519 37.9544 50.1906 38.5307 50.6308 38.9317L52.3763 40.5213C53.2475 41.3147 53.2475 42.6853 52.3763 43.4787L50.6308 45.0683C50.1906 45.4693 49.9519 46.0456 49.9797 46.6404L50.0899 48.9987C50.1449 50.1756 49.1756 51.1449 47.9987 51.0899L45.6404 50.9797C45.0456 50.9519 44.4693 51.1906 44.0683 51.6308L42.4787 53.3763C41.6853 54.2475 40.3147 54.2475 39.5213 53.3763L37.9317 51.6308C37.5307 51.1906 36.9544 50.9519 36.3596 50.9797L34.0013 51.0899C32.8244 51.1449 31.8551 50.1756 31.9101 48.9987L32.0203 46.6404C32.0481 46.0456 31.8094 45.4693 31.3692 45.0683L29.6237 43.4787C28.7525 42.6853 28.7525 41.3147 29.6237 40.5213L31.3692 38.9317C31.8094 38.5307 32.0481 37.9544 32.0203 37.3596L31.9101 35.0013C31.8551 33.8244 32.8244 32.8551 34.0013 32.9101L36.3596 33.0203C36.9544 33.0481 37.5307 32.8094 37.9317 32.3692L39.5213 30.6237Z" stroke="#FFC700" stroke-width="3"/>
<circle cx="41.0001" cy="41.9996" r="3.9" stroke="#FFC700" stroke-width="3"/>
</svg>
