<svg width="55" height="55" viewBox="0 0 55 55" fill="none" xmlns="http://www.w3.org/2000/svg">
<path d="M26.9007 2.44861C27.256 2.18267 27.744 2.18267 28.0993 2.44861L31.8059 5.22335C32.0408 5.39916 32.341 5.46297 32.6271 5.39789L37.1419 4.37067C37.5746 4.27222 38.0204 4.47071 38.2368 4.85816L40.4944 8.90065C40.6374 9.15678 40.8857 9.33719 41.1735 9.39408L45.7158 10.292C46.1512 10.3781 46.4777 10.7407 46.5178 11.1827L46.936 15.7939C46.9625 16.0861 47.116 16.3519 47.3557 16.5209L51.1401 19.1888C51.5028 19.4444 51.6536 19.9086 51.5105 20.3286L50.017 24.7113C49.9223 24.989 49.9544 25.2943 50.1047 25.5462L52.4768 29.5226C52.7041 29.9037 52.6531 30.3891 52.3515 30.7146L49.2045 34.1109C49.0051 34.3261 48.9103 34.618 48.9451 34.9093L49.4948 39.5067C49.5475 39.9473 49.3034 40.37 48.8955 40.5447L44.6392 42.3674C44.3695 42.4829 44.1641 42.7109 44.0775 42.9912L42.7097 47.4148C42.5786 47.8387 42.1837 48.1256 41.74 48.1192L37.1103 48.0532C36.817 48.049 36.5366 48.1738 36.3434 48.3946L33.2947 51.8794C33.0025 52.2134 32.5251 52.3148 32.1223 52.1286L27.9197 50.1851C27.6535 50.062 27.3465 50.062 27.0803 50.1851L22.8777 52.1286C22.4749 52.3148 21.9975 52.2134 21.7053 51.8794L18.6566 48.3946C18.4634 48.1738 18.183 48.049 17.8897 48.0532L13.26 48.1192C12.8163 48.1256 12.4214 47.8387 12.2903 47.4148L10.9225 42.9912C10.8359 42.7109 10.6305 42.4829 10.3608 42.3674L6.10449 40.5447C5.69655 40.37 5.45254 39.9473 5.50522 39.5067L6.05489 34.9093C6.08972 34.618 5.99487 34.3261 5.79548 34.1109L2.64848 30.7146C2.34686 30.3891 2.29585 29.9037 2.5232 29.5226L4.89529 25.5462C5.04559 25.2943 5.07767 24.989 4.98304 24.7113L3.48952 20.3286C3.34638 19.9086 3.49719 19.4444 3.85989 19.1888L7.64425 16.5209C7.88403 16.3519 8.03749 16.0861 8.06399 15.7939L8.48219 11.1827C8.52228 10.7407 8.84883 10.3781 9.28418 10.292L13.8265 9.39408C14.1143 9.33719 14.3626 9.15678 14.5056 8.90065L16.7632 4.85816C16.9796 4.47071 17.4254 4.27221 17.8581 4.37067L22.3729 5.39789C22.659 5.46297 22.9592 5.39916 23.1941 5.22335L26.9007 2.44861Z" stroke="#FFC700" stroke-width="3"/>
<path d="M15.3574 32V30.4766L17.4492 28.3613C17.8828 27.9082 18.2188 27.5449 18.457 27.2715C18.6992 26.998 18.8691 26.7656 18.9668 26.5742C19.0645 26.3828 19.1133 26.1836 19.1133 25.9766C19.1133 25.7227 19.0312 25.5391 18.8672 25.4258C18.7031 25.3125 18.5098 25.2559 18.2871 25.2559C18.0176 25.2559 17.7441 25.334 17.4668 25.4902C17.1934 25.6426 16.8828 25.8691 16.5352 26.1699L15.2637 24.6816C15.5215 24.4512 15.7949 24.2324 16.084 24.0254C16.373 23.8145 16.7148 23.6426 17.1094 23.5098C17.5039 23.377 17.9844 23.3105 18.5508 23.3105C19.1328 23.3105 19.6367 23.4121 20.0625 23.6152C20.4922 23.8184 20.8242 24.0977 21.0586 24.4531C21.293 24.8047 21.4102 25.2051 21.4102 25.6543C21.4102 26.1504 21.3184 26.5938 21.1348 26.9844C20.9551 27.3711 20.6836 27.7598 20.3203 28.1504C19.957 28.5371 19.5039 28.9766 18.9609 29.4688L18.334 30.0312V30.0898H21.5742V32H15.3574ZM28.8223 27.7285C28.8223 28.416 28.7676 29.0312 28.6582 29.5742C28.5488 30.1133 28.373 30.5723 28.1309 30.9512C27.8926 31.3301 27.5762 31.6191 27.1816 31.8184C26.7871 32.0176 26.3027 32.1172 25.7285 32.1172C25.1895 32.1172 24.7246 32.0176 24.334 31.8184C23.9434 31.6191 23.6211 31.3301 23.3672 30.9512C23.1172 30.5723 22.9316 30.1133 22.8105 29.5742C22.6895 29.0312 22.6289 28.416 22.6289 27.7285C22.6289 26.8027 22.7285 26.0117 22.9277 25.3555C23.127 24.6953 23.4531 24.1895 23.9062 23.8379C24.3594 23.4863 24.9668 23.3105 25.7285 23.3105C26.4395 23.3105 27.0234 23.4863 27.4805 23.8379C27.9375 24.1855 28.2754 24.6895 28.4941 25.3496C28.7129 26.0059 28.8223 26.7988 28.8223 27.7285ZM24.9375 27.7285C24.9375 28.5684 24.9883 29.2031 25.0898 29.6328C25.1914 30.0586 25.4043 30.2715 25.7285 30.2715C26.0449 30.2715 26.2559 30.0605 26.3613 29.6387C26.4668 29.2129 26.5195 28.5762 26.5195 27.7285C26.5195 27.1621 26.498 26.6895 26.4551 26.3105C26.4121 25.9316 26.332 25.6465 26.2148 25.4551C26.1016 25.2598 25.9395 25.1621 25.7285 25.1621C25.5137 25.1621 25.3477 25.2598 25.2305 25.4551C25.1172 25.6465 25.0391 25.9316 24.9961 26.3105C24.957 26.6895 24.9375 27.1621 24.9375 27.7285ZM31.8281 23.3105C32.5 23.3105 33.0391 23.5449 33.4453 24.0137C33.8555 24.4824 34.0605 25.1406 34.0605 25.9883C34.0605 26.8359 33.8691 27.498 33.4863 27.9746C33.1035 28.4512 32.5508 28.6895 31.8281 28.6895C31.1719 28.6895 30.6426 28.4512 30.2402 27.9746C29.8418 27.498 29.6426 26.8359 29.6426 25.9883C29.6426 25.1406 29.8301 24.4824 30.2051 24.0137C30.584 23.5449 31.125 23.3105 31.8281 23.3105ZM31.8516 24.7402C31.6836 24.7402 31.5664 24.8555 31.5 25.0859C31.4375 25.3125 31.4062 25.6211 31.4062 26.0117C31.4062 26.3945 31.4375 26.7031 31.5 26.9375C31.5664 27.168 31.6836 27.2832 31.8516 27.2832C32.0195 27.2832 32.1348 27.1699 32.1973 26.9434C32.2598 26.7129 32.291 26.4023 32.291 26.0117C32.291 25.6211 32.2598 25.3125 32.1973 25.0859C32.1348 24.8555 32.0195 24.7402 31.8516 24.7402ZM38.332 23.4336L33.5801 32H31.8398L36.5918 23.4336H38.332ZM38.3438 26.7207C39.0156 26.7207 39.5547 26.9551 39.9609 27.4238C40.3711 27.8926 40.5762 28.5508 40.5762 29.3984C40.5762 30.2422 40.3848 30.9023 40.002 31.3789C39.6191 31.8555 39.0664 32.0938 38.3438 32.0938C37.6875 32.0938 37.1582 31.8555 36.7559 31.3789C36.3574 30.9023 36.1582 30.2422 36.1582 29.3984C36.1582 28.5508 36.3457 27.8926 36.7207 27.4238C37.0996 26.9551 37.6406 26.7207 38.3438 26.7207ZM38.3672 28.1504C38.1992 28.1504 38.082 28.2656 38.0156 28.4961C37.9531 28.7227 37.9219 29.0312 37.9219 29.4219C37.9219 29.8047 37.9531 30.1133 38.0156 30.3477C38.082 30.5781 38.1992 30.6934 38.3672 30.6934C38.5352 30.6934 38.6504 30.5801 38.7129 30.3535C38.7793 30.123 38.8125 29.8125 38.8125 29.4219C38.8125 29.0156 38.7793 28.7031 38.7129 28.4844C38.6504 28.2617 38.5352 28.1504 38.3672 28.1504Z" fill="#FFC700"/>
</svg>
