<svg width="24" height="25" viewBox="0 0 24 25" fill="none" xmlns="http://www.w3.org/2000/svg">
<path d="M7.62469 8.71913C7.19343 8.37412 6.56414 8.44404 6.21913 8.87531C5.87412 9.30657 5.94404 9.93586 6.37531 10.2809L10.7506 13.7811C11.481 14.3655 12.519 14.3655 13.2494 13.7811L17.6247 10.2809C18.056 9.93586 18.1259 9.30657 17.7809 8.87531C17.4359 8.44404 16.8066 8.37412 16.3753 8.71913L12 12.2194L7.62469 8.71913Z" fill="#D5D5D5"/>
<path fill-rule="evenodd" clip-rule="evenodd" d="M7 3.5C4.23858 3.5 2 5.73858 2 8.5V16.5C2 19.2614 4.23858 21.5 7 21.5H17C19.7614 21.5 22 19.2614 22 16.5V8.5C22 5.73858 19.7614 3.5 17 3.5H7ZM4 8.5C4 6.84315 5.34315 5.5 7 5.5H17C18.6569 5.5 20 6.84315 20 8.5V16.5C20 18.1569 18.6569 19.5 17 19.5H7C5.34315 19.5 4 18.1569 4 16.5V8.5Z" fill="#D5D5D5"/>
</svg>
