<svg width="68" height="68" viewBox="0 0 68 68" fill="none" xmlns="http://www.w3.org/2000/svg">
<path d="M14.1031 29.4699L33.4217 34.6463L27.4688 56.8626L10.5651 52.3333C9.23145 51.9759 8.44 50.6051 8.79735 49.2714L14.1031 29.4699Z" stroke="#FFC700" stroke-width="3"/>
<path d="M13.6641 19.5175C13.8785 18.7173 14.701 18.2424 15.5012 18.4568L57.0361 29.586C57.8363 29.8004 58.3111 30.6229 58.0967 31.4231L56.0262 39.1505C55.8118 39.9507 54.9892 40.4256 54.189 40.2112L12.6542 29.082C11.854 28.8676 11.3792 28.0451 11.5936 27.2449L13.6641 19.5175Z" stroke="#FFC700" stroke-width="3"/>
<path d="M49.9946 14.5782C45.8479 9.34091 37.1604 18.8613 35.3643 23.9786C36.2699 22.6924 40.4512 22.2838 44.3044 21.5404C49.2079 20.5944 52.8522 18.1873 49.9946 14.5782Z" stroke="#FFC700" stroke-width="3"/>
<path d="M27.6211 6.59421C33.7807 3.72457 36.0969 17.3246 34.9488 23.15C34.8591 21.4512 31.5879 18.8997 28.7628 16.1973C25.1678 12.7584 23.3763 8.57177 27.6211 6.59421Z" stroke="#FFC700" stroke-width="3"/>
<path d="M33.4215 34.6462L52.74 39.8226L47.4342 59.6241C47.0769 60.9577 45.706 61.7492 44.3724 61.3918L27.4687 56.8625L33.4215 34.6462Z" stroke="#FFC700" stroke-width="3"/>
</svg>
