<svg width="55" height="55" viewBox="0 0 55 55" fill="none" xmlns="http://www.w3.org/2000/svg">
<path d="M7.5 28.5H27.5V51.5H10C8.61929 51.5 7.5 50.3807 7.5 49V28.5Z" stroke="#FFC700" stroke-width="3"/>
<path d="M4.5 19C4.5 18.1716 5.17157 17.5 6 17.5H49C49.8284 17.5 50.5 18.1716 50.5 19V27C50.5 27.8284 49.8284 28.5 49 28.5H6C5.17157 28.5 4.5 27.8284 4.5 27V19Z" stroke="#FFC700" stroke-width="3"/>
<path d="M38.3145 4.826C32.9536 0.840433 27.0262 12.285 26.6157 17.6927C27.1576 16.216 31.0906 14.7391 34.6202 13.0237C39.1118 10.8408 42.0089 7.57257 38.3145 4.826Z" stroke="#FFC700" stroke-width="3"/>
<path d="M14.6371 2.90486C19.8441 -1.46122 25.6013 11.076 26 17C25.4737 15.3823 21.6536 13.7643 18.2254 11.8852C13.8627 9.49396 11.0488 5.91366 14.6371 2.90486Z" stroke="#FFC700" stroke-width="3"/>
<path d="M27.5 28.5H47.5V49C47.5 50.3807 46.3807 51.5 45 51.5H27.5V28.5Z" stroke="#FFC700" stroke-width="3"/>
</svg>
