<svg width="24" height="25" viewBox="0 0 24 25" fill="none" xmlns="http://www.w3.org/2000/svg">
<path fill-rule="evenodd" clip-rule="evenodd" d="M22 11.2595V18.096C22 19.937 20.5076 21.4294 18.6667 21.4294H17.4444C16.8922 21.4294 16.4444 20.9817 16.4444 20.4294V20.2072C16.4444 19.6549 16.8922 19.2072 17.4444 19.2072H18.6667C19.2803 19.2072 19.7778 18.7097 19.7778 18.096V11.2595C19.7778 10.9134 19.6165 10.5871 19.3416 10.3769L12.6749 5.27884C12.2765 4.97418 11.7235 4.97418 11.3251 5.27884L4.65839 10.3769C4.38348 10.5871 4.22222 10.9134 4.22222 11.2595V18.096C4.22222 18.7097 4.71968 19.2072 5.33333 19.2072H6.55556C7.10784 19.2072 7.55556 19.6549 7.55556 20.2072V20.4294C7.55556 20.9817 7.10784 21.4294 6.55556 21.4294H5.33333C3.49239 21.4294 2 19.937 2 18.096V11.2595C2 10.2213 2.48377 9.24231 3.3085 8.61164L9.97517 3.5136C11.1704 2.59963 12.8297 2.59964 14.0248 3.5136L20.6915 8.61164C21.5162 9.24232 22 10.2213 22 11.2595ZM11.8889 11.6516H12.1111C13.768 11.6516 15.1111 12.9948 15.1111 14.6516V18.2072C15.1111 19.864 13.768 21.2072 12.1111 21.2072H11.8889C10.232 21.2072 8.88889 19.864 8.88889 18.2072V14.6516C8.88889 12.9948 10.232 11.6516 11.8889 11.6516ZM13.1111 14.6516C13.1111 14.0993 12.6634 13.6516 12.1111 13.6516H11.8889C11.3366 13.6516 10.8889 14.0993 10.8889 14.6516V18.2072C10.8889 18.7594 11.3366 19.2072 11.8889 19.2072H12.1111C12.6634 19.2072 13.1111 18.7594 13.1111 18.2072V14.6516Z" fill="#FFC700"/>
</svg>
