<svg width="17" height="17" viewBox="0 0 17 17" fill="none" xmlns="http://www.w3.org/2000/svg">
<path d="M8.75331 4.53241C8.32162 4.53241 7.95996 4.95004 7.95996 5.42872C7.95996 5.90739 8.32162 6.30896 8.75273 6.30896C9.1983 6.30896 9.55996 5.90739 9.55996 5.42872C9.55996 4.9494 9.1983 4.53241 8.75331 4.53241ZM9.39331 7.18984H8.12719V11.7324H9.39331V7.18984Z" fill="white"/>
<path d="M8.75976 0.532715C4.35109 0.532715 0.759766 4.12404 0.759766 8.5327C0.759766 12.9414 4.35109 16.5327 8.75976 16.5327C9.81084 16.5352 10.852 16.3296 11.8233 15.9279C12.7946 15.5262 13.6768 14.9362 14.4191 14.192C15.1632 13.4497 15.7531 12.5675 16.1548 11.5962C16.5565 10.6249 16.7621 9.58378 16.7597 8.5327C16.7597 4.12404 13.1684 0.532715 8.75976 0.532715ZM13.3771 13.166C12.7699 13.7765 12.0479 14.2608 11.2527 14.591C10.4575 14.9212 9.60479 15.0908 8.74375 15.09C5.13709 15.09 2.20243 12.156 2.20243 8.5487C2.20243 4.94204 5.15243 1.99138 8.75976 1.99138C12.3664 1.99138 15.3011 4.92538 15.3011 8.5327C15.3011 10.28 14.6277 11.9314 13.3771 13.166Z" fill="white"/>
</svg>
