<svg width="24" height="25" viewBox="0 0 24 25" fill="none" xmlns="http://www.w3.org/2000/svg">
<path d="M12 12.5C13.1046 12.5 14 11.6046 14 10.5C14 9.39543 13.1046 8.5 12 8.5C10.8954 8.5 10 9.39543 10 10.5C10 11.6046 10.8954 12.5 12 12.5Z" fill="#3D3E55"/>
<path fill-rule="evenodd" clip-rule="evenodd" d="M12 3.5C8.13401 3.5 5 6.63401 5 10.5C5 13.2937 6.63609 15.7031 9 16.8261V18.5C9 20.1569 10.3431 21.5 12 21.5C13.6569 21.5 15 20.1569 15 18.5V16.8261C17.3639 15.7031 19 13.2937 19 10.5C19 6.63401 15.866 3.5 12 3.5ZM7 10.5C7 7.73858 9.23858 5.5 12 5.5C14.7614 5.5 17 7.73858 17 10.5C17 12.6755 15.6101 14.5289 13.6668 15.2157L13 15.4514V18.5C13 19.0523 12.5523 19.5 12 19.5C11.4477 19.5 11 19.0523 11 18.5V15.4514L10.3332 15.2157C8.38991 14.5289 7 12.6755 7 10.5Z" fill="#3D3E55"/>
</svg>
