<svg width="24" height="25" viewBox="0 0 24 25" fill="none" xmlns="http://www.w3.org/2000/svg">
<path fill-rule="evenodd" clip-rule="evenodd" d="M12.0671 9.30857L11.8564 11.5H14.0579H18.0041C18.6928 11.5 19.1753 12.1799 18.948 12.8301L17.1997 17.8301C17.0594 18.2313 16.6808 18.5 16.2558 18.5H8.84612V10.9559L9.12946 10.3666L10.776 6.94191C10.9059 6.67178 11.1791 6.5 11.4788 6.5C11.9389 6.5 12.299 6.89639 12.255 7.35443L12.0671 9.30857ZM8.80768 20.5H7.80768H6.84612H5.96143C4.30457 20.5 2.96143 19.1569 2.96143 17.5V10.5C2.96143 9.39543 3.85686 8.5 4.96143 8.5H7.80768H7.80775L8.9735 6.0753C9.43646 5.11237 10.4103 4.5 11.4788 4.5C13.1038 4.5 14.3787 5.88666 14.2499 7.5C14.2486 7.51527 14.2473 7.53056 14.2458 7.54586L14.0579 9.5H16.0671H18.0041C20.0702 9.5 21.5179 11.5398 20.8359 13.4902L19.0876 18.4902C18.6667 19.6939 17.5309 20.5 16.2558 20.5H8.84612H8.80768ZM4.96143 10.5H6.80768V18.5H5.96143C5.40914 18.5 4.96143 18.0523 4.96143 17.5V10.5Z" fill="#3D3E55"/>
</svg>
