<svg width="60" height="66" viewBox="0 0 60 66" fill="none" xmlns="http://www.w3.org/2000/svg">
<path fill-rule="evenodd" clip-rule="evenodd" d="M52.7496 17.1447L32.4168 5.45716C30.9213 4.5975 29.0787 4.5975 27.5832 5.45716L7.25045 17.1447C5.75492 18.0044 4.83363 19.5931 4.83363 21.3124V44.6876C4.83363 46.4069 5.75492 47.9956 7.25045 48.8553L27.5832 60.5428C29.0787 61.4025 30.9213 61.4025 32.4168 60.5428L52.7496 48.8553C54.2451 47.9956 55.1664 46.4069 55.1664 44.6876V21.3124C55.1664 19.5931 54.2451 18.0044 52.7496 17.1447ZM34.8336 1.28948C31.8426 -0.429828 28.1574 -0.429827 25.1664 1.28948L4.83363 12.9771C1.84257 14.6964 0 17.8738 0 21.3124V44.6876C0 48.1262 1.84257 51.3036 4.83363 53.0229L25.1664 64.7105C28.1574 66.4298 31.8426 66.4298 34.8336 64.7105L55.1664 53.0229C58.1574 51.3036 60 48.1262 60 44.6876V21.3124C60 17.8738 58.1574 14.6964 55.1664 12.9771L34.8336 1.28948Z" fill="white"/>
<path fill-rule="evenodd" clip-rule="evenodd" d="M22.002 32.002V40.8705L27.2541 46.998H31.7459L36.998 40.8705V32.002H22.002ZM20.8008 30C20.3585 30 20 30.3585 20 30.8008V41.3149C20 41.506 20.0684 41.6909 20.1928 41.836L26.0936 48.7204C26.2458 48.8979 26.4679 49 26.7016 49H32.2984C32.5321 49 32.7542 48.8979 32.9064 48.7204L38.8072 41.836C38.9316 41.6909 39 41.506 39 41.3149V30.8008C39 30.3585 38.6415 30 38.1992 30H20.8008Z" fill="white"/>
<path fill-rule="evenodd" clip-rule="evenodd" d="M16 32C16 31.4477 16.4542 31 17.0145 31L42.9855 31C43.5458 31 44 31.4477 44 32C44 32.5523 43.5458 33 42.9855 33L17.0145 33C16.4542 33 16 32.5523 16 32Z" fill="white"/>
<path d="M40.9985 30.2323C41.0264 30.6553 40.6582 31 40.2077 31C36.3202 31 35.9531 31 30.5 31C25.1625 31 23.7115 31 20.7933 31C20.3427 31 19.9736 30.6553 20.0015 30.2323C20.3785 24.5153 24.9348 20 30.5 20C36.0652 20 40.6214 24.5153 40.9985 30.2323Z" fill="#FF8A00"/>
<path d="M28.0066 19.9479C27.9479 19.446 28.2902 19 28.7342 19H31.2658C31.7098 19 32.0521 19.446 31.9934 19.9479L31.4878 24.2734C31.4391 24.6894 31.1281 25 30.7602 25H29.2398C28.8719 25 28.5609 24.6894 28.5122 24.2734L28.0066 19.9479Z" fill="#FFC700"/>
<path fill-rule="evenodd" clip-rule="evenodd" d="M27.2152 21.7531C23.9002 23.16 21.4081 26.6376 21.0551 30.9208H39.9449C39.5586 26.2338 36.6109 22.5115 32.8264 21.4114L32.4649 24.384C32.3524 25.3091 31.6327 26 30.7816 26H29.2184C28.3673 26 27.6476 25.3091 27.5351 24.384L27.2152 21.7531ZM29.0523 21.2064C29.5255 21.1226 30.0091 21.0792 30.5 21.0792C30.6546 21.0792 30.8085 21.0835 30.9616 21.092L30.6164 23.931H29.3836L29.0523 21.2064ZM32.9164 19.2834C37.9233 20.4786 41.647 25.3129 41.9964 31.064C42.0632 32.1627 41.1858 33 40.1909 33H20.81C19.8168 33 18.9367 32.1643 19.0036 31.064C19.3277 25.7295 22.5549 21.1838 27.0166 19.5993C27.1316 18.7072 27.8312 18 28.6985 18H31.3015C32.0634 18 32.6959 18.5458 32.9164 19.2834Z" fill="white"/>
</svg>
