<svg width="86" height="86" viewBox="0 0 86 86" fill="none" xmlns="http://www.w3.org/2000/svg">
<path d="M38.5 6.06218C41.2846 4.45448 44.7154 4.45448 47.5 6.06218L72.7391 20.634C75.5237 22.2417 77.2391 25.2128 77.2391 28.4282V57.5718C77.2391 60.7872 75.5237 63.7583 72.7391 65.366L47.5 79.9378C44.7154 81.5455 41.2846 81.5455 38.5 79.9378L13.2609 65.366C10.4763 63.7583 8.76091 60.7872 8.76091 57.5718V28.4282C8.76091 25.2128 10.4763 22.2417 13.2609 20.634L38.5 6.06218Z" stroke="#3D3E55" stroke-width="6"/>
<path d="M32.25 53.2043V40.25H53.75V53.2043L46.4251 61.75H39.5749L32.25 53.2043Z" fill="white" stroke="#3D3E55" stroke-width="2.5" stroke-linecap="round" stroke-linejoin="round"/>
<path d="M27 42L59 42" stroke="#3D3E55" stroke-width="2.5" stroke-linecap="round" stroke-linejoin="round"/>
<path d="M55.9673 39.9997C56.0035 40.5508 55.5517 41 54.9994 41C50.1902 41 49.7397 41 43 41C36.4019 41 34.6116 41 31.0015 41C30.4493 41 29.9965 40.5508 30.0327 39.9997C30.5089 32.7346 36.1326 27 43 27C49.8674 27 55.4911 32.7346 55.9673 39.9997Z" fill="#FF8A00" stroke="#3D3E55" stroke-width="2.5" stroke-linecap="round" stroke-linejoin="round"/>
<path d="M40.1631 27.1414C40.077 26.539 40.5445 26 41.153 26H44.847C45.4555 26 45.923 26.539 45.8369 27.1414L45.1227 32.1414C45.0523 32.6341 44.6304 33 44.1327 33H41.8673C41.3696 33 40.9477 32.6341 40.8773 32.1414L40.1631 27.1414Z" fill="#FFC700" stroke="#3D3E55" stroke-width="2.5" stroke-linecap="round" stroke-linejoin="round"/>
</svg>
