<svg width="55" height="55" viewBox="0 0 55 55" fill="none" xmlns="http://www.w3.org/2000/svg">
<path d="M13.25 24.375V40.0336C13.25 40.2802 13.3412 40.5182 13.506 40.7017L22.1187 50.2931C22.3083 50.5043 22.5788 50.625 22.8627 50.625H31.1373C31.4212 50.625 31.6917 50.5043 31.8813 50.2931L40.494 40.7017C40.6588 40.5182 40.75 40.2802 40.75 40.0336V24.375" stroke="#FFC700" stroke-width="3" stroke-linecap="round" stroke-linejoin="round"/>
<path d="M7 24.1465L47 24.1465" stroke="#FFC700" stroke-width="3" stroke-linecap="round" stroke-linejoin="round"/>
<path d="M12 20L42 20" stroke="#FFC700" stroke-width="3" stroke-linecap="round" stroke-linejoin="round"/>
<path d="M30.75 6.6543C37.5655 8.45792 42.7033 15.0688 43.1003 23.0836C43.1276 23.6352 42.6727 24.0839 42.1204 24.0839C35.9319 24.0839 35.469 24.0839 27 24.0839C18.6698 24.0839 16.5178 24.0839 11.8755 24.0839C11.3232 24.0839 10.8724 23.6352 10.8997 23.0836C11.2967 15.0688 16.4345 8.45792 23.25 6.6543" stroke="#FFC700" stroke-width="3" stroke-linecap="round" stroke-linejoin="round"/>
<path d="M23.5679 5.50717C23.488 4.90768 23.9544 4.375 24.5592 4.375H29.4415C30.0463 4.375 30.5126 4.90768 30.4327 5.50716L29.5049 12.4655C29.4387 12.9623 29.0149 13.3333 28.5137 13.3333H25.487C24.9858 13.3333 24.562 12.9623 24.4957 12.4655L23.5679 5.50717Z" stroke="#FFC700" stroke-width="3" stroke-linecap="round" stroke-linejoin="round"/>
</svg>
