<svg width="24" height="25" viewBox="0 0 24 25" fill="none" xmlns="http://www.w3.org/2000/svg">
<path d="M15 7.5C15 9.15685 13.6569 10.5 12 10.5C10.3431 10.5 9 9.15685 9 7.5C9 5.84315 10.3431 4.5 12 4.5C13.6569 4.5 15 5.84315 15 7.5Z" stroke="#3D3E55" stroke-width="2"/>
<path d="M5 20C5 16.4101 7.91015 13.5 11.5 13.5H12.5C16.0899 13.5 19 16.4101 19 20V20.5C19 21.0523 18.5523 21.5 18 21.5H6C5.44772 21.5 5 21.0523 5 20.5V20Z" stroke="#3D3E55" stroke-width="2"/>
<path d="M12 16.5L12 18.5" stroke="#3D3E55" stroke-width="2" stroke-linecap="round"/>
</svg>
