<svg width="55" height="55" viewBox="0 0 55 55" fill="none" xmlns="http://www.w3.org/2000/svg">
<path d="M40 36.229C40 36.697 39.8958 37.178 39.6745 37.646C39.4532 38.114 39.1668 38.556 38.7892 38.972C38.1512 39.674 37.4482 40.181 36.654 40.506C35.8728 40.831 35.0265 41 34.1152 41C32.7872 41 31.3681 40.688 29.8708 40.051C28.3736 39.414 26.8763 38.556 25.3921 37.477C23.8948 36.385 22.4757 35.176 21.1217 33.837C19.7807 32.485 18.5699 31.068 17.4892 29.586C16.4216 28.104 15.5623 26.622 14.9374 25.153C14.3125 23.671 14 22.254 14 20.902C14 20.018 14.1562 19.173 14.4687 18.393C14.7812 17.6 15.2759 16.872 15.9659 16.222C16.7992 15.403 17.7106 15 18.674 15C19.0386 15 19.4031 15.078 19.7286 15.234C20.0671 15.39 20.3666 15.624 20.6009 15.962L23.6214 20.213C23.8558 20.538 24.025 20.837 24.1422 21.123C24.2594 21.396 24.3245 21.669 24.3245 21.916C24.3245 22.228 24.2334 22.54 24.0511 22.839C23.8818 23.138 23.6345 23.45 23.322 23.762L22.3325 24.789C22.1893 24.932 22.1242 25.101 22.1242 25.309C22.1242 25.413 22.1372 25.504 22.1632 25.608C22.2023 25.712 22.2414 25.79 22.2674 25.868C22.5018 26.297 22.9054 26.856 23.4782 27.532C24.0641 28.208 24.689 28.897 25.366 29.586C26.0691 30.275 26.7461 30.912 27.4362 31.497C28.1132 32.069 28.673 32.459 29.1157 32.693C29.1808 32.719 29.2589 32.758 29.35 32.797C29.4542 32.836 29.5583 32.849 29.6755 32.849C29.8968 32.849 30.0661 32.771 30.2093 32.628L31.1988 31.653C31.5243 31.328 31.8368 31.081 32.1362 30.925C32.4357 30.743 32.7351 30.652 33.0606 30.652C33.308 30.652 33.5684 30.704 33.8548 30.821C34.1412 30.938 34.4407 31.107 34.7662 31.328L39.0756 34.383C39.4141 34.617 39.6485 34.89 39.7917 35.215C39.9219 35.54 40 35.865 40 36.229Z" stroke="#FFC700" stroke-width="3" stroke-miterlimit="10"/>
<circle cx="27.5" cy="27.5" r="26" stroke="#FFC700" stroke-width="3"/>
</svg>
