<svg width="55" height="55" viewBox="0 0 55 55" fill="none" xmlns="http://www.w3.org/2000/svg">
<path d="M24.1116 2.59295L11.3465 7.38755C8.40465 8.48419 6 11.9526 6 15.064V34.0129C6 37.0223 7.99535 40.9752 10.4256 42.786L21.4256 50.9725C25.0326 53.6758 30.9674 53.6758 34.5744 50.9725L45.5744 42.786C48.0046 40.9752 50 37.0223 50 34.0129V15.064C50 11.9271 47.5953 8.45868 44.6535 7.36205L31.8884 2.59295C29.714 1.80235 26.2349 1.80235 24.1116 2.59295Z" stroke="#FFC700" stroke-width="3" stroke-linecap="round" stroke-linejoin="round"/>
<rect x="18" y="15" width="17" height="8" rx="2" stroke="#FFC700" stroke-width="3"/>
<rect x="24" y="44" width="11" height="5" rx="2" transform="rotate(-90 24 44)" stroke="#FFC700" stroke-width="3"/>
<path d="M37.5 19H38.5C39.6046 19 40.5 19.8954 40.5 21V25.5C40.5 26.6046 39.6046 27.5 38.5 27.5H28.5C27.3954 27.5 26.5 28.3954 26.5 29.5V32.5" stroke="#FFC700" stroke-width="3"/>
<rect x="16" y="17" width="2" height="4" rx="1" stroke="#FFC700" stroke-width="2"/>
<rect x="35" y="17" width="2" height="4" rx="1" stroke="#FFC700" stroke-width="2"/>
</svg>
