<svg width="142" height="107" viewBox="0 0 142 107" fill="none" xmlns="http://www.w3.org/2000/svg">
<path d="M28.6773 24.5117L28.6193 47.5505C28.6193 48.0329 28.4453 48.3802 28.1553 48.5539L38.6735 42.4565C38.9442 42.3022 39.1182 41.9548 39.1376 41.4531L39.1956 18.4336L28.6773 24.5117Z" fill="#FFC700"/>
<path d="M38.4607 15.1344C38.0547 14.189 37.4746 13.2821 36.7979 12.5103C36.6819 12.3752 36.5659 12.2594 36.4499 12.1436C34.323 9.96325 31.2874 6.99174 28.5032 4.71487C27.5171 3.84657 26.473 3.07475 25.4096 2.4187C25.2355 2.30293 25.0615 2.20645 24.8875 2.10997C20.9238 -0.166901 17.3082 -0.379152 14.6979 1.1259L4.17969 7.22328L28.6772 24.5121L39.1954 18.4147C39.2148 17.3727 38.9441 16.2343 38.4607 15.1344Z" fill="#FFC700"/>
<path d="M25.9122 18.261C23.7854 16.0806 20.7498 13.1091 17.9655 10.8322C16.9795 9.94461 15.9547 9.19208 14.8913 8.53603C14.7173 8.42026 14.5432 8.32378 14.3692 8.2273C6.55787 3.71215 0.177308 7.24323 0.00329232 16.0806C-0.170723 25.2074 6.57721 36.6303 14.6012 41.2612L27.0337 48.4199C27.9038 48.9216 28.5998 48.5163 28.5998 47.5323L28.6578 24.5127C28.6965 22.4481 27.5944 19.959 25.9122 18.261Z" fill="#FF8A00"/>
<path d="M13.4608 12.6072C8.12437 9.53919 3.79333 12.009 3.77399 18.1257C3.75466 24.2424 8.06637 31.6904 13.4028 34.7584C18.7393 37.8264 23.0704 35.3566 23.0897 29.2399C23.109 23.1232 18.7973 15.6945 13.4608 12.6072Z" fill="#B01E1E"/>
<path d="M13.4604 15.7729C9.65141 13.5732 6.53847 15.3484 6.51913 19.7092C6.4998 24.0893 9.5934 29.4148 13.4024 31.6145C17.2307 33.8142 20.3244 32.039 20.3437 27.6782C20.363 23.2982 17.2694 17.9726 13.4604 15.7729Z" fill="#FF8A00"/>
<path opacity="0.5" d="M36.7785 12.5273L26.2603 18.6247C26.937 19.3965 27.517 20.3034 27.9231 21.2489L38.4413 15.1515C38.0353 14.2061 37.4746 13.2992 36.7785 12.5273Z" fill="#FFC700"/>
<path d="M37.1265 21.4258L30.8232 25.0726V41.6668L37.1265 38.0392V21.4258Z" fill="url(#paint0_linear_237_5745)"/>
<path d="M38.248 39.1172L29.6826 44.0375V46.6617L38.248 41.7221V39.1172Z" fill="#232436"/>
<path opacity="0.5" d="M36.7398 21.6573V37.8077L30.8232 41.223V41.6668L37.1265 38.0392V21.4258L36.7398 21.6573Z" fill="url(#paint1_linear_237_5745)"/>
<path d="M40.4906 25.1879C40.2779 24.7055 39.9879 24.2424 39.6398 23.7986L37.6096 21.2709C37.5516 21.1937 37.4936 21.1551 37.4356 21.1165C37.339 21.0586 37.2423 21.0586 37.1843 21.0972L30.8037 24.8019L33.8006 32.4816L40.1812 28.7768C40.6452 28.5067 40.9159 27.9085 40.9159 27.1174C40.9353 26.5385 40.7806 25.8632 40.4906 25.1879Z" fill="#C63434"/>
<path d="M31.0554 24.8376C31.1134 24.8762 31.1714 24.9148 31.2294 24.992L33.2596 27.5197C34.0716 28.5231 34.555 29.7773 34.555 30.8578C34.555 31.9191 34.0716 32.6137 33.2402 32.6716L31.21 32.8453C31.152 32.8453 31.094 32.826 31.036 32.8067C30.862 32.7102 30.688 32.4401 30.688 32.2085V25.0306C30.7073 24.799 30.862 24.7411 31.0554 24.8376Z" fill="#B01E1E"/>
<path d="M139.582 99.4193L131.075 104.32L29.6821 45.9128L38.2089 41.0117L139.582 99.4193Z" fill="#D5D5D5"/>
<path d="M139.582 99.4193L131.075 104.32L29.6821 45.9128L38.2089 41.0117L139.582 99.4193Z" fill="#D5D5D5"/>
<path d="M36.198 44.5038L35.9854 44.3687L40.2391 41.9375L40.4517 42.0533L36.198 44.5038Z" fill="#232436"/>
<path d="M39.4075 46.3554L39.1948 46.2203L43.4485 43.7891L43.6612 43.9048L39.4075 46.3554Z" fill="#232436"/>
<path d="M42.6368 48.2069L42.4048 48.0719L46.6585 45.6406L46.8712 45.7564L42.6368 48.2069Z" fill="#232436"/>
<path d="M45.8463 50.0583L45.6143 49.9232L49.868 47.4727L50.0807 47.6077L45.8463 50.0583Z" fill="#232436"/>
<path d="M47.9154 52.8394L47.374 52.5307L53.0005 49.2891L53.5226 49.5978L47.9154 52.8394Z" fill="#C63434"/>
<path d="M52.3235 53.7851L52.1108 53.6693L56.3452 51.2188L56.5772 51.3538L52.3235 53.7851Z" fill="#232436"/>
<path d="M55.5335 55.6405L55.3208 55.5248L59.5552 53.0742L59.7872 53.2093L55.5335 55.6405Z" fill="#232436"/>
<path d="M58.743 57.4882L58.5303 57.3724L62.7646 54.9219L62.9967 55.0377L58.743 57.4882Z" fill="#232436"/>
<path d="M61.9524 59.3436L61.7397 59.2086L65.9741 56.7773L66.2061 56.8931L61.9524 59.3436Z" fill="#232436"/>
<path d="M64.0211 62.1207L63.499 61.812L69.1255 58.5703L69.6476 58.879L64.0211 62.1207Z" fill="#C63434"/>
<path d="M68.449 63.0858L68.2363 62.9508L72.4707 60.5195L72.7027 60.6353L68.449 63.0858Z" fill="#232436"/>
<path d="M71.6585 64.9411L71.4458 64.806L75.6802 62.3555L75.9122 62.4905L71.6585 64.9411Z" fill="#232436"/>
<path d="M74.868 66.7887L74.6553 66.6537L78.8896 64.2031L79.1217 64.3382L74.868 66.7887Z" fill="#232436"/>
<path d="M78.0774 68.6249L77.8647 68.5091L82.0991 66.0586L82.3311 66.1937L78.0774 68.6249Z" fill="#232436"/>
<path d="M80.1466 71.4215L79.6245 71.1127L85.251 67.8711L85.7731 68.1798L80.1466 71.4215Z" fill="#C63434"/>
<path d="M84.5745 72.3632L84.3618 72.2474L88.5962 69.7969L88.8089 69.9319L84.5745 72.3632Z" fill="#232436"/>
<path d="M87.784 74.2187L87.5713 74.1029L91.8057 71.6523L92.0183 71.7681L87.784 74.2187Z" fill="#232436"/>
<path d="M90.9934 76.0702L90.7808 75.9351L95.0151 73.5039L95.2278 73.6197L90.9934 76.0702Z" fill="#232436"/>
<path d="M94.2034 77.9218L93.9907 77.7867L98.2251 75.3555L98.4378 75.4712L94.2034 77.9218Z" fill="#232436"/>
<path d="M96.2716 80.7027L95.7495 80.394L101.357 77.1523L101.898 77.4611L96.2716 80.7027Z" fill="#C63434"/>
<path d="M100.7 81.6637L100.468 81.5286L104.721 79.0781L104.934 79.2132L100.7 81.6637Z" fill="#232436"/>
<path d="M103.909 83.5192L103.677 83.3841L107.931 80.9336L108.144 81.0687L103.909 83.5192Z" fill="#232436"/>
<path d="M107.119 85.3515L106.887 85.2357L111.141 82.7852L111.354 82.9202L107.119 85.3515Z" fill="#232436"/>
<path d="M110.328 87.203L110.096 87.0873L114.35 84.6367L114.563 84.7718L110.328 87.203Z" fill="#232436"/>
<path d="M112.397 90.0035L111.856 89.6948L117.482 86.4531L118.024 86.7619L112.397 90.0035Z" fill="#C63434"/>
<path d="M116.825 90.9491L116.593 90.8333L120.847 88.3828L121.06 88.4986L116.825 90.9491Z" fill="#232436"/>
<path d="M120.035 92.8007L119.803 92.6656L124.056 90.2344L124.269 90.3502L120.035 92.8007Z" fill="#232436"/>
<path d="M123.244 94.6522L123.012 94.5172L127.266 92.0859L127.479 92.2017L123.244 94.6522Z" fill="#232436"/>
<path d="M126.454 96.5036L126.222 96.3685L130.476 93.918L130.689 94.053L126.454 96.5036Z" fill="#232436"/>
<path d="M128.523 99.2848L127.981 98.976L133.608 95.7344L134.13 96.0431L128.523 99.2848Z" fill="#C63434"/>
<path d="M133.434 105.248L128.291 102.277V103.029L133.434 106.001L142 101.08V100.309L133.434 105.248Z" fill="#3D3E55"/>
<path d="M133.434 105.247L128.291 102.276L136.856 97.3359L142 100.307L133.434 105.247Z" fill="#3D3E55"/>
<defs>
<linearGradient id="paint0_linear_237_5745" x1="34.0251" y1="31.6339" x2="37.5647" y2="37.7771" gradientUnits="userSpaceOnUse">
<stop stop-color="#BC2E2E"/>
<stop offset="1" stop-color="#C63434"/>
</linearGradient>
<linearGradient id="paint1_linear_237_5745" x1="34.0251" y1="31.6339" x2="37.5647" y2="37.7773" gradientUnits="userSpaceOnUse">
<stop stop-color="#BC2E2E"/>
<stop offset="1" stop-color="#C63434"/>
</linearGradient>
</defs>
</svg>
