<svg width="20" height="21" viewBox="0 0 20 21" fill="none" xmlns="http://www.w3.org/2000/svg">
<path d="M9.99996 15.0501C9.44767 15.0501 8.99996 14.6024 8.99996 14.0501V11.7168H6.66663C6.11434 11.7168 5.66663 11.2691 5.66663 10.7168C5.66663 10.1645 6.11434 9.7168 6.66663 9.7168H8.99996V7.38346C8.99996 6.83118 9.44767 6.38346 9.99996 6.38346C10.5522 6.38346 11 6.83118 11 7.38346V9.7168H13.3333C13.8856 9.7168 14.3333 10.1645 14.3333 10.7168C14.3333 11.2691 13.8856 11.7168 13.3333 11.7168H11V14.0501C11 14.6024 10.5522 15.0501 9.99996 15.0501Z" fill="white"/>
<path fill-rule="evenodd" clip-rule="evenodd" d="M0 10.7168C0 5.19395 4.47715 0.716797 10 0.716797C15.5228 0.716797 20 5.19395 20 10.7168C20 16.2396 15.5228 20.7168 10 20.7168C4.47715 20.7168 0 16.2396 0 10.7168ZM10 2.7168C5.58172 2.7168 2 6.29852 2 10.7168C2 15.1351 5.58172 18.7168 10 18.7168C14.4183 18.7168 18 15.1351 18 10.7168C18 6.29852 14.4183 2.7168 10 2.7168Z" fill="white"/>
</svg>
