<svg width="51" height="52" viewBox="0 0 51 52" fill="none" xmlns="http://www.w3.org/2000/svg">
<path d="M23.5 1.6547C24.7376 0.940169 26.2624 0.940169 27.5 1.6547L45.5836 12.0953C46.8213 12.8098 47.5836 14.1303 47.5836 15.5594V36.4406C47.5836 37.8697 46.8213 39.1902 45.5836 39.9047L27.5 50.3453C26.2624 51.0598 24.7376 51.0598 23.5 50.3453L5.41635 39.9047C4.17875 39.1902 3.41635 37.8697 3.41635 36.4406V15.5594C3.41635 14.1303 4.17875 12.8098 5.41635 12.0953L23.5 1.6547Z" fill="#FFC700"/>
<path fill-rule="evenodd" clip-rule="evenodd" d="M27.8728 15.7911C27.3064 15.5845 26.6303 15.498 26.0027 15.498C25.3762 15.498 24.7014 15.5842 24.1403 15.7938L24.1403 15.7938L24.1376 15.7948L19.1499 17.6739L19.1486 17.6744C18.345 17.9752 17.671 18.5732 17.2021 19.2495C16.7331 19.926 16.4102 20.766 16.4102 21.6205V29.0505C16.4102 29.8391 16.6637 30.6767 17.0256 31.3962C17.3876 32.1159 17.9092 32.819 18.5415 33.2916L18.5419 33.2919L22.8392 36.4999L22.841 36.5012C23.7496 37.1835 24.9033 37.4955 26.0102 37.4955C27.117 37.4955 28.2707 37.1835 29.1793 36.5012L29.1811 36.4999L33.4784 33.2919L33.4788 33.2916C34.1111 32.819 34.6327 32.1159 34.9948 31.3962C35.3566 30.6767 35.6102 29.8391 35.6102 29.0505V21.6205C35.6102 20.7624 35.2883 19.9203 34.8188 19.2416C34.3494 18.5631 33.6748 17.9647 32.8705 17.6639L32.8704 17.6639L27.8811 15.7941L27.8811 15.7941L27.8728 15.7911ZM24.84 17.6673L24.8412 17.6669C25.1101 17.5667 25.5298 17.498 26.0027 17.498C26.473 17.498 26.9002 17.566 27.1839 17.6687L32.1692 19.537L32.1699 19.5372C32.5156 19.6665 32.8859 19.963 33.174 20.3795C33.462 20.7958 33.6102 21.2487 33.6102 21.6205V29.0505C33.6102 29.442 33.4737 29.9694 33.2081 30.4974C32.9426 31.0252 32.5992 31.4521 32.2815 31.6895L27.9819 34.8992L27.9792 34.9012C27.4781 35.278 26.7676 35.4955 26.0102 35.4955C25.2527 35.4955 24.5422 35.278 24.0411 34.9012L24.0384 34.8992L19.7388 31.6895C19.4211 31.4521 19.0777 31.0252 18.8123 30.4974C18.5466 29.9694 18.4102 29.442 18.4102 29.0505V21.6205C18.4102 21.2551 18.5572 20.8051 18.8457 20.3891C19.134 19.9732 19.5046 19.6765 19.8504 19.5472L19.8527 19.5463L24.84 17.6673ZM28.7683 25.1407C29.1219 24.7164 29.0646 24.0858 28.6403 23.7323C28.216 23.3787 27.5855 23.436 27.2319 23.8603L25.5001 25.9384L24.7683 25.0603C24.4148 24.636 23.7842 24.5787 23.3599 24.9323C22.9357 25.2858 22.8783 25.9164 23.2319 26.3407L24.5014 27.8641C25.0212 28.4878 25.9791 28.4878 26.4988 27.8641L28.7683 25.1407Z" fill="#232436"/>
</svg>
