<svg width="188" height="74" viewBox="0 0 188 74" fill="none" xmlns="http://www.w3.org/2000/svg">
<g clip-path="url(#clip0_167_2916)">
<path d="M187.023 31.4431C158.013 28.2191 129.98 33.643 102.136 40.8116C102.211 40.6599 102.323 40.4703 102.399 40.3185C105.104 35.236 107.885 29.4708 108.336 23.5917C108.373 22.9849 107.735 22.6435 107.246 22.7573C97.8893 24.6537 91.9144 34.8947 88.0815 42.8219C88.044 42.9357 87.9688 43.0115 87.9312 43.1253C84.3238 43.0494 80.6788 43.0874 77.0713 43.2012C75.0046 43.277 72.9378 43.3908 70.8711 43.5046C76.3574 38.0807 81.0921 31.7086 84.8123 25.033C88.8707 17.7127 91.8393 8.91311 89.7725 0.492808C89.6598 0.227303 89.3967 -0.0382019 89.0961 -0.000272594C80.0024 1.06175 73.6518 10.9234 69.4807 18.2058C64.8587 26.2468 61.3264 35.2739 59.5227 44.4908C55.5019 44.9459 51.4811 45.5149 47.4979 46.1976C47.5355 46.0459 47.573 45.8941 47.6106 45.7803C47.7609 45.2114 46.8591 44.9459 46.7088 45.5148C46.6336 45.7804 46.5584 46.0838 46.5209 46.3493C43.3644 46.9182 40.2079 47.5251 37.0889 48.2078C26.1915 50.6353 15.2188 53.9731 5.37355 59.359C3.64499 60.3073 1.99158 61.3693 0.413331 62.5072C-0.225486 62.9623 -0.0751761 64.1381 0.826683 64.1002C20.2918 63.3037 39.3812 59.4349 58.3202 54.6179C58.245 61.6348 60.1239 69.8275 67.7146 71.6481C72.1487 72.7101 76.5452 70.7757 80.4533 67.8931C80.3406 69.562 80.2654 71.2688 80.3782 72.9377C80.4157 73.4687 80.7539 73.7721 81.28 73.848C86.9166 74.5307 92.3654 71.155 96.8371 67.2862C98.1523 68.2345 99.7681 68.9551 101.647 69.3724C109.388 71.0412 118.031 69.2586 125.546 67.3621C131.559 65.8449 139.262 63.8726 143.922 59.397C144.222 59.1315 144.222 58.5625 143.922 58.297C136.068 51.5077 125.922 48.132 115.964 46.0079C114.762 45.7424 113.521 45.5148 112.319 45.2873C112.544 44.2253 112.695 43.1253 112.732 42.0633C112.732 41.4943 112.206 41.153 111.68 41.2668C109.388 41.7978 107.058 42.8219 104.803 44.1873C103.376 43.9977 101.948 43.846 100.52 43.7322C100.595 43.5805 100.67 43.4287 100.745 43.3149C128.252 36.1463 155.909 30.5328 184.58 33.1499C182.514 34.6671 180.184 35.7291 177.854 36.9428C176.839 37.4359 177.741 38.9152 178.718 38.46C181.95 36.9049 185.069 35.6153 187.699 33.112C188.376 32.4672 187.812 31.5189 187.023 31.4431ZM106.457 24.7675C105.931 28.6743 104.277 32.4672 102.624 35.9567C101.76 37.7773 100.82 39.5979 99.8433 41.3806C97.4759 41.9874 95.1461 42.6322 92.7787 43.2391C91.8017 43.2012 90.7871 43.1632 89.8101 43.1253C93.2672 35.8429 98.6032 27.1192 106.457 24.7675ZM94.6952 44.9459C95.6722 45.0218 96.6868 45.0597 97.6638 45.1356C96.4989 47.032 95.2964 48.8526 94.0564 50.6732C90.7871 55.3765 87.0294 59.8521 82.7831 63.7209C83.8353 57.8419 85.902 52.0387 88.1943 46.6907C90.3738 46.0838 92.5157 45.5149 94.6952 44.9459ZM71.2468 45.0597C76.5452 44.7183 81.8813 44.5666 87.1797 44.6425C87.1421 44.6804 87.1421 44.7183 87.1045 44.7942C78.1611 47.2217 69.2552 49.725 60.3118 52.0387C62.6792 50.5594 64.8962 48.8147 66.8127 47.2217C67.5642 46.5769 68.3158 45.8941 69.0673 45.2114C69.7813 45.1735 70.4953 45.0976 71.2468 45.0597ZM60.8379 45.97C62.9798 45.7424 65.1217 45.5528 67.2636 45.3631C65.1217 47.2596 62.8671 48.9664 60.4997 50.4836C60.387 50.5594 60.2742 50.5974 60.1991 50.6732C60.2742 49.7629 60.387 48.9285 60.4997 48.1699C60.6124 47.4113 60.7251 46.6907 60.8379 45.97ZM74.1403 13.5025C77.5223 8.49588 82.257 2.76856 88.4197 1.44104C89.1713 1.28932 89.1713 7.05457 89.1337 7.81316C89.021 10.3165 88.4197 12.8198 87.7058 15.2094C86.1275 20.5574 83.3092 25.5641 80.2654 30.1914C77.1089 34.9705 73.3887 39.5979 69.1801 43.6184C66.5121 43.808 63.8065 44.0356 61.1385 44.3011C63.3556 33.3775 67.9776 22.6056 74.1403 13.5025ZM59.222 46.1596C58.9214 48.0182 58.6208 49.8767 58.4705 51.6973C57.3808 52.3042 56.2534 52.8731 55.0885 53.3662C53.4727 53.7834 51.8569 54.1627 50.2786 54.542C46.8966 54.5041 46.6712 50.9767 47.1973 47.8665C51.1805 47.1837 55.2013 46.6148 59.222 46.1596ZM30.8135 51.4697C35.8864 50.1043 41.0346 48.9664 46.1827 48.0561C45.7693 50.9387 45.9948 53.8972 48.2494 55.0351C33.6318 58.4867 18.939 61.1796 4.02077 62.2416C12.1751 57.0833 21.5694 53.9351 30.8135 51.4697ZM70.4577 70.2447C61.8149 70.9275 59.936 61.8244 60.0112 54.2765C68.6916 52.0387 77.3344 49.6491 85.9772 47.2975C83.5347 53.0248 81.5055 59.2832 80.6788 65.5036C77.7102 67.8552 74.253 69.9413 70.4577 70.2447ZM95.3716 57.2729C96.8747 52.8352 100.82 48.663 105.217 45.8562C106.87 46.0459 108.524 46.3114 110.177 46.5769C108.411 52.1145 104.052 57.3108 100.445 61.2555C99.3548 62.4692 98.0771 63.7588 96.6868 65.0484C94.9206 63.3037 94.1691 60.8003 95.3716 57.2729ZM111.868 47.2975C122.427 47.2975 133.663 52.1145 142.08 59.1315C138.097 62.5451 132.085 63.9864 127.237 65.3518C120.398 67.2862 113.183 68.5 106.081 68.3103C103.225 68.2345 100.257 67.5518 98.0771 66.1863C99.1669 65.1622 100.181 64.3278 101.121 63.3795C105.254 59.0935 110.027 52.0387 111.868 47.2975ZM110.929 43.2391C110.853 43.846 110.778 44.4528 110.628 45.0597C109.613 44.8701 108.561 44.7563 107.547 44.6045C108.674 44.0356 109.801 43.5805 110.929 43.2391ZM102.737 45.5907C98.9038 48.3975 95.6346 52.2283 94.0188 56.2109C92.4029 60.2314 93.1545 63.7209 95.4467 66.1863C91.5387 69.562 86.8791 72.4067 82.1067 72.1791C82.0691 70.2827 82.1443 68.3862 82.3698 66.4897C85.0753 64.214 87.4803 61.5969 89.3592 59.4728C93.1921 55.111 96.6116 50.3319 99.5802 45.3252C100.632 45.3631 101.685 45.4769 102.737 45.5907Z" fill="url(#paint0_radial_167_2916)"/>
</g>
<defs>
<radialGradient id="paint0_radial_167_2916" cx="0" cy="0" r="1" gradientUnits="userSpaceOnUse" gradientTransform="translate(94.012 36.9662) rotate(90) scale(36.9701 93.9891)">
<stop stop-color="#7C97F7"/>
<stop offset="1" stop-color="#5779F2"/>
</radialGradient>
<clipPath id="clip0_167_2916">
<rect width="188" height="74" fill="white"/>
</clipPath>
</defs>
</svg>
