<svg width="55" height="55" viewBox="0 0 55 55" fill="none" xmlns="http://www.w3.org/2000/svg">
<path d="M25.3204 4.598C26.1084 3.3791 27.8916 3.3791 28.6796 4.598L36.1592 16.1676C36.429 16.585 36.8447 16.887 37.3251 17.0146L50.6397 20.553C52.0425 20.9258 52.5935 22.6216 51.6778 23.7477L42.9858 34.4364C42.6722 34.8221 42.5134 35.3107 42.5404 35.807L43.2897 49.5634C43.3687 51.0127 41.9261 52.0608 40.5721 51.5379L27.7206 46.5743C27.2569 46.3952 26.7431 46.3952 26.2794 46.5743L13.4279 51.5379C12.0739 52.0608 10.6313 51.0127 10.7103 49.5634L11.4596 35.807C11.4866 35.3107 11.3278 34.8221 11.0142 34.4364L2.32224 23.7477C1.40651 22.6216 1.95753 20.9258 3.36028 20.553L16.6749 17.0146C17.1553 16.887 17.571 16.585 17.8408 16.1676L25.3204 4.598Z" stroke="#FFC700" stroke-width="3"/>
<path d="M31.2246 25.916C31.2246 26.9056 30.9284 27.6966 30.3359 28.2891C29.7435 28.875 29.0111 29.2721 28.1387 29.4805V29.5391C29.2845 29.6823 30.1536 30.0339 30.7461 30.5938C31.3451 31.1536 31.6445 31.9023 31.6445 32.8398C31.6445 33.6732 31.4395 34.4186 31.0293 35.0762C30.6257 35.7337 30.0007 36.2513 29.1543 36.6289C28.3079 37.0065 27.2174 37.1953 25.8828 37.1953C25.0951 37.1953 24.3594 37.1302 23.6758 37C22.9987 36.8763 22.3607 36.6842 21.7617 36.4238V33.8555C22.3737 34.168 23.015 34.4056 23.6855 34.5684C24.3561 34.7246 24.9811 34.8027 25.5605 34.8027C26.2832 34.8027 26.8561 34.7181 27.2793 34.5488C27.709 34.3796 28.015 34.1354 28.1973 33.8164C28.3861 33.4974 28.4805 33.1133 28.4805 32.6641C28.4805 32.2669 28.3796 31.9316 28.1777 31.6582C27.9759 31.3848 27.6243 31.1764 27.123 31.0332C26.6283 30.89 25.9349 30.8184 25.043 30.8184H23.959V28.5039H25.0625C25.9414 28.5039 26.6087 28.4225 27.0645 28.2598C27.5267 28.0905 27.8392 27.8626 28.002 27.5762C28.1712 27.2832 28.2559 26.9512 28.2559 26.5801C28.2559 26.0723 28.0996 25.6751 27.7871 25.3887C27.4746 25.1022 26.9538 24.959 26.2246 24.959C25.541 24.959 24.9486 25.0794 24.4473 25.3203C23.946 25.5547 23.5228 25.7826 23.1777 26.0039L21.7812 23.9238C22.3411 23.5202 22.9954 23.1849 23.7441 22.918C24.4993 22.651 25.3978 22.5176 26.4395 22.5176C27.9108 22.5176 29.0762 22.8138 29.9355 23.4062C30.7949 23.9987 31.2246 24.8353 31.2246 25.916Z" fill="#FFC700"/>
</svg>
