<svg width="24" height="25" viewBox="0 0 24 25" fill="none" xmlns="http://www.w3.org/2000/svg">
<path d="M11.0748 3.75583C11.4141 2.92845 12.5859 2.92845 12.9252 3.75583L14.6493 7.95955C14.793 8.30979 15.1221 8.54889 15.4995 8.57727L20.0303 8.91798C20.922 8.98504 21.2841 10.0994 20.6021 10.6778L17.1369 13.6166C16.8482 13.8614 16.7225 14.2483 16.8122 14.6161L17.8882 19.0304C18.1 19.8992 17.152 20.5879 16.3912 20.118L12.5255 17.7305C12.2034 17.5316 11.7966 17.5316 11.4745 17.7305L7.60881 20.118C6.84796 20.5879 5.90001 19.8992 6.1118 19.0304L7.18785 14.6161C7.2775 14.2483 7.1518 13.8614 6.86309 13.6166L3.3979 10.6778C2.71588 10.0994 3.07796 8.98504 3.96971 8.91798L8.50046 8.57727C8.87794 8.54889 9.20704 8.30979 9.35068 7.95955L11.0748 3.75583Z" stroke="#3D3E55" stroke-width="2"/>
</svg>
