<svg width="55" height="55" viewBox="0 0 55 55" fill="none" xmlns="http://www.w3.org/2000/svg">
<path d="M27 17V27.2857L35 35" stroke="#FFC700" stroke-width="3" stroke-linecap="round"/>
<path d="M27.5 52C41.031 52 52 41.031 52 27.5C52 13.969 41.031 3 27.5 3C13.969 3 3 13.969 3 27.5C3 28.6883 3.0846 29.8569 3.24811 31" stroke="#FFC700" stroke-width="3" stroke-linecap="round"/>
<path d="M21.2059 47.5921V50.978C21.2059 51.5692 20.7276 52.0475 20.1364 52.0475H4.06951C3.47833 52.0475 3 51.5692 3 50.978L3 40.6994C3 40.1082 3.47833 39.6299 4.06951 39.6299H20.1391C20.7303 39.6299 21.2086 40.1082 21.2086 40.6994V44.0853" stroke="#FFC700" stroke-width="3" stroke-miterlimit="10"/>
<path d="M21.929 47.5928H19.0724C18.4786 47.5928 17.9976 47.1118 17.9976 46.5179V45.1608C17.9976 44.567 18.4786 44.0859 19.0724 44.0859H21.929C22.0768 44.0859 22.1977 44.2069 22.1977 44.3547V47.324C22.1977 47.4718 22.0794 47.5928 21.929 47.5928Z" stroke="#FFC700" stroke-width="3" stroke-miterlimit="10"/>
<path d="M3 40.7001V38.4347C3 37.8436 3.47833 37.3652 4.06951 37.3652H9.24242" stroke="#FFC700" stroke-width="3" stroke-miterlimit="10"/>
<path d="M7.94434 39.6301L13.7649 29.2386C14.0524 28.7227 14.7054 28.5399 15.2186 28.8275L22.4526 32.8798C22.9686 33.1673 23.1513 33.8203 22.8638 34.3336L19.8971 39.6301" stroke="#FFC700" stroke-width="3" stroke-miterlimit="10"/>
</svg>
