<svg width="24" height="25" viewBox="0 0 24 25" fill="none" xmlns="http://www.w3.org/2000/svg">
<path fill-rule="evenodd" clip-rule="evenodd" d="M12 6.5C9.79088 6.5 8.00002 8.29086 8.00002 10.5C8.00002 12.7091 9.79088 14.5 12 14.5C14.2092 14.5 16 12.7091 16 10.5C16 8.29086 14.2092 6.5 12 6.5ZM10 10.5C10 9.39543 10.8954 8.5 12 8.5C13.1046 8.5 14 9.39543 14 10.5C14 11.6046 13.1046 12.5 12 12.5C10.8954 12.5 10 11.6046 10 10.5Z" fill="#3D3E55"/>
<path fill-rule="evenodd" clip-rule="evenodd" d="M19.3281 19.3044C17.502 21.2701 14.8946 22.5 12 22.5C6.47715 22.5 2 18.0228 2 12.5C2 6.97715 6.47715 2.5 12 2.5C17.5228 2.5 22 6.97715 22 12.5C22 15.0636 21.0353 17.4019 19.4492 19.1717C19.4574 19.2043 19.4654 19.2371 19.4732 19.2701L19.3281 19.3044ZM4 12.5C4 8.08172 7.58172 4.5 12 4.5C16.4183 4.5 20 8.08172 20 12.5C20 14.2512 19.4373 15.8709 18.483 17.1883C18.4787 17.1833 18.4745 17.1783 18.4702 17.1733C17.9897 16.6093 17.3996 16.2355 16.7537 15.9902C15.5207 15.5218 13.9981 15.5 12.5 15.5H11.5C10.0157 15.5 8.58663 15.5178 7.4546 16.0071C6.72237 16.3235 6.15855 16.8097 5.73753 17.4786C4.6499 16.1123 4 14.3821 4 12.5ZM7.23094 18.9237C8.56265 19.914 10.2129 20.5 12 20.5C13.9364 20.5 15.7121 19.812 17.096 18.6672C17.048 18.5951 16.9985 18.5298 16.9479 18.4704C16.7202 18.2032 16.4289 18.0062 16.0436 17.8598C15.2144 17.5449 14.0755 17.5 12.5 17.5H11.5C9.91075 17.5 8.9284 17.5489 8.2481 17.8429C7.85089 18.0146 7.50217 18.2968 7.23094 18.9237Z" fill="#3D3E55"/>
</svg>
