<svg width="24" height="25" viewBox="0 0 24 25" fill="none" xmlns="http://www.w3.org/2000/svg">
<path d="M13.7143 15.0882C13.7143 15.9654 12.9468 16.6765 12 16.6765C11.0532 16.6765 10.2857 15.9654 10.2857 15.0882C10.2857 14.2111 11.0532 13.5 12 13.5C12.9468 13.5 13.7143 14.2111 13.7143 15.0882Z" stroke="#3D3E55" stroke-width="2"/>
<path d="M8 21.7059C8 19.8054 9.66294 18.2647 11.7143 18.2647H12.2857C14.3371 18.2647 16 19.8054 16 21.7059V21.9706C16 22.263 15.7442 22.5 15.4286 22.5H8.57143C8.25584 22.5 8 22.263 8 21.9706V21.7059Z" stroke="#3D3E55" stroke-width="2"/>
<path d="M7.28571 4.73529C7.28571 5.41753 6.71008 5.97059 6 5.97059C5.28992 5.97059 4.71429 5.41753 4.71429 4.73529C4.71429 4.05306 5.28992 3.5 6 3.5C6.71008 3.5 7.28571 4.05306 7.28571 4.73529Z" stroke="#3D3E55" stroke-width="2"/>
<path d="M3 9.88235C3 8.40418 4.24721 7.20588 5.78571 7.20588H6.21429C7.75279 7.20588 9 8.40418 9 9.88235V10.0882C9 10.3156 8.80812 10.5 8.57143 10.5H3.42857C3.19188 10.5 3 10.3156 3 10.0882V9.88235Z" stroke="#3D3E55" stroke-width="2"/>
<path d="M19.2857 4.73529C19.2857 5.41753 18.7101 5.97059 18 5.97059C17.2899 5.97059 16.7143 5.41753 16.7143 4.73529C16.7143 4.05306 17.2899 3.5 18 3.5C18.7101 3.5 19.2857 4.05306 19.2857 4.73529Z" stroke="#3D3E55" stroke-width="2"/>
<path d="M15 9.88235C15 8.40418 16.2472 7.20588 17.7857 7.20588H18.2143C19.7528 7.20588 21 8.40418 21 9.88235V10.0882C21 10.3156 20.8081 10.5 20.5714 10.5H15.4286C15.1919 10.5 15 10.3156 15 10.0882V9.88235Z" stroke="#3D3E55" stroke-width="2"/>
</svg>
