<svg width="55" height="55" viewBox="0 0 55 55" fill="none" xmlns="http://www.w3.org/2000/svg">
<path d="M45.2324 42.6914V49.8018C45.2324 51.0433 44.228 52.0478 42.9865 52.0478H9.24598C8.00448 52.0478 7 51.0433 7 49.8018L7 28.2167C7 26.9752 8.00448 25.9707 9.24598 25.9707L42.9921 25.9707C44.2336 25.9707 45.2381 26.9752 45.2381 28.2167V35.3271" stroke="#FFC700" stroke-width="3" stroke-miterlimit="10"/>
<path d="M46.7506 42.6915H40.7519C39.5048 42.6915 38.4946 41.6814 38.4946 40.4342V37.5844C38.4946 36.3373 39.5048 35.3271 40.7519 35.3271H46.7506C47.061 35.3271 47.3149 35.5811 47.3149 35.8915V42.1272C47.3149 42.4375 47.0666 42.6915 46.7506 42.6915Z" stroke="#FFC700" stroke-width="3" stroke-miterlimit="10"/>
<path d="M7 28.217V23.4598C7 22.2184 8.00448 21.2139 9.24598 21.2139H20.1091" stroke="#FFC700" stroke-width="3" stroke-miterlimit="10"/>
<path d="M17.3833 25.9712L29.6064 4.14913C30.2102 3.06564 31.5815 2.6819 32.6594 3.28572L47.8508 11.7956C48.9342 12.3994 49.318 13.7707 48.7142 14.8486L42.4841 25.9712" stroke="#FFC700" stroke-width="3" stroke-miterlimit="10"/>
<path d="M40.6784 18.1894C39.5949 17.5856 39.2112 16.2143 39.815 15.1364L40.6446 13.6579C41.2484 12.5744 42.6197 12.1907 43.6975 12.7945C44.781 13.3983 45.1647 14.7696 44.5609 15.8475L43.7314 17.326C43.1276 18.4095 41.7563 18.7932 40.6784 18.1894Z" stroke="#FFC700" stroke-width="3" stroke-miterlimit="10"/>
<path d="M35.0126 4.60645L23.0435 25.9715" stroke="#FFC700" stroke-width="3" stroke-miterlimit="10"/>
<path d="M38.6583 6.64941L27.8291 25.9716" stroke="#FFC700" stroke-width="3" stroke-miterlimit="10"/>
</svg>
