<svg width="55" height="55" viewBox="0 0 55 55" fill="none" xmlns="http://www.w3.org/2000/svg">
<path d="M45.2324 42.6914V49.8018C45.2324 51.0433 44.228 52.0478 42.9865 52.0478H9.24598C8.00448 52.0478 7 51.0433 7 49.8018L7 28.2167C7 26.9752 8.00448 25.9707 9.24598 25.9707L42.9921 25.9707C44.2336 25.9707 45.2381 26.9752 45.2381 28.2167V35.3271" stroke="#FFC700" stroke-width="3" stroke-miterlimit="10"/>
<path d="M46.7506 42.6925H40.7519C39.5048 42.6925 38.4946 41.6823 38.4946 40.4352V37.5854C38.4946 36.3383 39.5048 35.3281 40.7519 35.3281H46.7506C47.061 35.3281 47.3149 35.5821 47.3149 35.8924V42.1281C47.3149 42.4385 47.0666 42.6925 46.7506 42.6925Z" stroke="#FFC700" stroke-width="3" stroke-miterlimit="10"/>
<path d="M7 28.218V23.4608C7 22.2193 8.00448 21.2148 9.24598 21.2148H20.1091" stroke="#FFC700" stroke-width="3" stroke-miterlimit="10"/>
<path d="M17.3833 25.9712L29.6064 4.14913C30.2102 3.06564 31.5815 2.6819 32.6594 3.28572L47.8508 11.7956C48.9342 12.3994 49.318 13.7707 48.7142 14.8486L42.4841 25.9712" stroke="#FFC700" stroke-width="3" stroke-miterlimit="10"/>
<path d="M40.6784 18.1884C39.5949 17.5846 39.2112 16.2133 39.815 15.1354L40.6446 13.6569C41.2484 12.5734 42.6197 12.1897 43.6975 12.7935C44.781 13.3974 45.1647 14.7686 44.5609 15.8465L43.7314 17.325C43.1276 18.4085 41.7563 18.7922 40.6784 18.1884Z" stroke="#FFC700" stroke-width="3" stroke-miterlimit="10"/>
<path d="M35.0126 4.60547L23.0435 25.9705" stroke="#FFC700" stroke-width="3" stroke-miterlimit="10"/>
<path d="M38.6583 6.64844L27.8291 25.9706" stroke="#FFC700" stroke-width="3" stroke-miterlimit="10"/>
</svg>
