<?xml version="1.0" encoding="utf-8"?><svg viewBox="0 0 25 24" xmlns="http://www.w3.org/2000/svg" xmlns:xlink="http://www.w3.org/1999/xlink"><style>:root>svg{display:none}:root>svg:target{display:block}</style><svg viewBox="0 0 16 17" id="arrow-bottom" xmlns="http://www.w3.org/2000/svg"><path d="M8 9.835l2.823-2.823a.69.69 0 11.975.976l-3.31 3.31a.69.69 0 01-.976 0l-3.31-3.31a.69.69 0 11.975-.976L8 9.835z"/></svg><svg fill="none" viewBox="0 0 8 6" id="arrow-down" xmlns="http://www.w3.org/2000/svg"><path d="M4 5.28a.559.559 0 01-.396-.164l-3.44-3.44A.56.56 0 11.956.884L4 3.928 7.044.884a.56.56 0 01.792.792l-3.44 3.44A.558.558 0 014 5.28z" fill="#D5D5D5"/></svg><svg viewBox="0 0 16 16" id="arrow-down-2" xmlns="http://www.w3.org/2000/svg"><path d="M4.174 5a1 1 0 00-.759 1.65l3.826 4.464a1 1 0 001.518 0l3.826-4.463A1 1 0 0011.825 5h-7.65z"/></svg><svg fill="none" viewBox="0 0 24 24" id="arrow-right" xmlns="http://www.w3.org/2000/svg"><path d="M15 8l4 4m0 0l-4 4m4-4H5"/></svg><svg fill="none" viewBox="0 0 24 24" id="arrow_to_right" xmlns="http://www.w3.org/2000/svg"><path d="M15 8l4 4m0 0l-4 4m4-4H5"/></svg><svg fill="none" viewBox="0 0 24 24" id="calculator-mini-light" xmlns="http://www.w3.org/2000/svg"><rect x="3" y="5" width="18" height="16" rx="4" stroke="#fff" stroke-width="2"/><circle cx="8" cy="13" r="1" fill="#fff"/><circle cx="8" cy="17" r="1" fill="#fff"/><circle cx="12" cy="13" r="1" fill="#fff"/><circle cx="12" cy="17" r="1" fill="#fff"/><circle cx="16" cy="13" r="1" fill="#fff"/><circle cx="16" cy="17" r="1" fill="#fff"/><path stroke="#fff" stroke-width="1.5" stroke-linecap="round" d="M7.75 9.25h8.5"/></svg><svg fill="none" viewBox="0 0 25 24" id="chevron-down" xmlns="http://www.w3.org/2000/svg"><path d="M18.5 8l-5.772 6.734a.3.3 0 01-.456 0L6.5 8"/></svg><svg fill="none" viewBox="0 0 22 22" id="chevron-left" xmlns="http://www.w3.org/2000/svg"><path d="M12.75 15.375l-4.163-4.163a.3.3 0 010-.424l4.163-4.163"/></svg><svg fill="none" viewBox="0 0 22 22" id="chevron-right" xmlns="http://www.w3.org/2000/svg"><path d="M9.25 6.625l4.163 4.163a.3.3 0 010 .424L9.25 15.375"/></svg><svg fill="none" viewBox="0 0 16 16" id="cross" xmlns="http://www.w3.org/2000/svg"><path d="M11.766 4.234a.8.8 0 00-1.13 0L8.005 6.865 5.374 4.234a.799.799 0 00-1.13 1.13l2.631 2.631-2.631 2.631a.8.8 0 101.13 1.13l2.631-2.631 2.631 2.631a.799.799 0 001.13-1.13L9.135 7.995l2.631-2.631a.8.8 0 000-1.13z" fill="#fff"/></svg><svg fill="none" viewBox="0 0 20 20" id="magnifier" xmlns="http://www.w3.org/2000/svg"><path fill-rule="evenodd" clip-rule="evenodd" d="M2 9a7 7 0 1114 0A7 7 0 012 9zm7-9a9 9 0 105.618 16.032l3.675 3.675a1 1 0 001.414-1.414l-3.675-3.675A9 9 0 009 0z" fill="#D5D5D5"/></svg><svg viewBox="0 0 16 16" id="map-point" xmlns="http://www.w3.org/2000/svg"><path fill-rule="evenodd" clip-rule="evenodd" d="M8 8.667a2 2 0 100-4 2 2 0 000 4zm-.667-2a.667.667 0 111.334 0 .667.667 0 01-1.334 0z"/><path fill-rule="evenodd" clip-rule="evenodd" d="M8.967 14.281l3.25-3.086a5.605 5.605 0 000-8.198C9.882.779 6.12.779 3.783 2.997a5.605 5.605 0 000 8.198l3.25 3.086a1.406 1.406 0 001.935 0zM4.7 10.228c-1.822-1.73-1.822-4.534 0-6.264 1.823-1.73 4.777-1.73 6.6 0 1.822 1.73 1.822 4.535 0 6.264l-3.25 3.086a.072.072 0 01-.1 0L4.7 10.229z"/></svg><svg fill="none" viewBox="0 0 20 14" id="menu" xmlns="http://www.w3.org/2000/svg"><path d="M0 7a1 1 0 011-1h18a1 1 0 110 2H1a1 1 0 01-1-1zm0 6a1 1 0 011-1h18a1 1 0 110 2H1a1 1 0 01-1-1zM0 1a1 1 0 011-1h18a1 1 0 110 2H1a1 1 0 01-1-1z" fill="#3D3E55"/></svg><svg fill="none" viewBox="0 0 16 16" id="menu-close" xmlns="http://www.w3.org/2000/svg"><path d="M.929.929a1 1 0 011.414 0L15.07 13.657a1 1 0 01-1.414 1.414L.929 2.343a1 1 0 010-1.414z" fill="#3D3E55"/><path d="M.929 14.85a1 1 0 010-1.415L13.657.707a1 1 0 111.414 1.414L2.343 14.85a1 1 0 01-1.414 0z" fill="#3D3E55"/></svg><svg fill="none" viewBox="0 0 8 2" id="minus" xmlns="http://www.w3.org/2000/svg"><path d="M7.316.25C7.694.25 8 .586 8 1s-.306.75-.684.75H.684C.306 1.75 0 1.414 0 1S.306.25.684.25h6.632z" fill="#1A051D"/></svg><svg fill="none" viewBox="0 0 16 16" id="phone" xmlns="http://www.w3.org/2000/svg"><path d="M14 11.798c0 .216-.048.438-.15.654a2.48 2.48 0 01-.409.612 2.71 2.71 0 01-.985.708 3.02 3.02 0 01-1.172.228c-.613 0-1.268-.144-1.959-.438a10.558 10.558 0 01-2.067-1.188 17.27 17.27 0 01-1.971-1.68A17.054 17.054 0 013.61 8.732a10.692 10.692 0 01-1.177-2.046C2.144 6.002 2 5.348 2 4.724a3.1 3.1 0 01.216-1.158c.145-.366.373-.702.691-1.002.385-.378.806-.564 1.25-.564.168 0 .337.036.487.108a.98.98 0 01.403.336L6.44 4.406c.108.15.186.288.24.42a.947.947 0 01.084.366.814.814 0 01-.126.426 2.041 2.041 0 01-.337.426l-.456.474a.32.32 0 00-.096.24c0 .048.006.09.018.138.018.048.036.084.048.12.108.198.294.456.559.768.27.312.558.63.87.948.325.318.638.612.956.882.313.264.571.444.775.552.03.012.067.03.109.048a.415.415 0 00.15.024.33.33 0 00.246-.102l.457-.45c.15-.15.294-.264.433-.336a.801.801 0 01.426-.126.96.96 0 01.367.078c.132.054.27.132.42.234l1.99 1.41a.91.91 0 01.33.384c.06.15.096.3.096.468z"/></svg><svg fill="none" viewBox="0 0 8 8" id="plus" xmlns="http://www.w3.org/2000/svg"><path fill-rule="evenodd" clip-rule="evenodd" d="M4 0c-.414 0-.75.306-.75.684V3.25H.684C.306 3.25 0 3.586 0 4s.306.75.684.75H3.25v2.566c0 .378.336.684.75.684s.75-.306.75-.684V4.75h2.566C7.694 4.75 8 4.414 8 4s-.306-.75-.684-.75H4.75V.684C4.75.306 4.414 0 4 0z" fill="#1A051D"/></svg><svg viewBox="0 0 11 11" id="ringing-phone" xmlns="http://www.w3.org/2000/svg"><path d="M10.155 7.96c-.342-.27-.709-.512-1.068-.76-.718-.495-1.375-.533-1.91.262-.301.447-.722.467-1.162.27-1.214-.539-2.151-1.37-2.7-2.58-.243-.535-.24-1.015.328-1.393.3-.2.604-.437.58-.874C4.19 2.315 2.779.409 2.22.207c-.224-.08-.47-.08-.695 0C.218.637-.324 1.692.195 2.941c1.547 3.725 4.27 6.318 8.02 7.9.213.09.45.127.57.159.854.008 1.854-.798 2.143-1.598.278-.77-.31-1.075-.774-1.442zM5.95.59c2.74.413 4.005 1.69 4.354 4.396.032.25-.063.627.301.634.38.007.288-.364.292-.614C10.93 2.457 8.663.094 6.03.008c-.198.027-.61-.135-.636.301-.017.295.33.246.557.28z"/><path d="M6.228 1.395c-.282-.032-.654-.16-.72.216-.069.393.346.353.612.41 1.81.389 2.442 1.02 2.74 2.743.043.251-.043.642.402.577.33-.048.21-.382.238-.579.015-1.653-1.463-3.158-3.272-3.367z"/><path d="M6.426 3c-.171.004-.339.022-.402.199-.094.264.105.327.307.36.675.103 1.03.488 1.098 1.14.018.176.134.319.31.3.245-.03.267-.24.26-.44C8.01 3.83 7.156 2.983 6.426 3z"/></svg><svg fill="none" viewBox="0 0 12 12" id="round-cross" xmlns="http://www.w3.org/2000/svg"><path fill-rule="evenodd" clip-rule="evenodd" d="M0 6c0-3.3 2.7-6 6-6s6 2.7 6 6-2.7 6-6 6-6-2.7-6-6zm7.575 2.625l1.05-1.05L7.05 6l1.575-1.575-1.05-1.05L6 4.95 4.425 3.375l-1.05 1.05L4.95 6 3.375 7.575l1.05 1.05L6 7.05l1.575 1.575z" fill="#D5D5D5"/></svg><svg fill="none" viewBox="0 0 24 24" id="search" xmlns="http://www.w3.org/2000/svg"><path fill-rule="evenodd" clip-rule="evenodd" d="M4 11a7 7 0 1114 0 7 7 0 01-14 0zm7-9a9 9 0 105.618 16.032l3.675 3.675a1 1 0 001.414-1.414l-3.675-3.675A9 9 0 0011 2z" fill="#FF8A00"/></svg><svg fill="none" viewBox="0 0 5 8" id="small-arrow-right" xmlns="http://www.w3.org/2000/svg"><path d="M5 4a.559.559 0 01-.164.396l-3.44 3.44a.56.56 0 11-.792-.792L3.648 4 .604.956a.56.56 0 01.792-.792l3.44 3.44A.559.559 0 015 4z" fill="#232436"/></svg><svg viewBox="0 0 11 9" id="telegram" xmlns="http://www.w3.org/2000/svg"><path d="M10.257.06L.514 3.725c-.665.26-.662.623-.121.784l2.43.74.93 2.78c.112.305.056.426.384.426.253 0 .365-.113.506-.247l1.215-1.153 2.528 1.823c.465.25.801.12.916-.422l1.66-7.628c.17-.664-.26-.966-.705-.768zM3.204 5.079L8.68 1.708c.274-.162.525-.075.318.103L4.31 5.94l-.182 1.9-.923-2.76z"/></svg><svg viewBox="0 0 16 16" id="text-files" xmlns="http://www.w3.org/2000/svg"><path d="M4.25 4.421c-.359 0-.65.306-.65.684 0 .378.291.684.65.684h3.9c.359 0 .65-.306.65-.684 0-.378-.291-.684-.65-.684h-3.9zM3.6 7.842c0-.378.291-.684.65-.684h3.9c.359 0 .65.306.65.684 0 .378-.291.684-.65.684h-3.9c-.359 0-.65-.306-.65-.684zm.65 2.053c-.359 0-.65.306-.65.684 0 .378.291.684.65.684h3.9c.359 0 .65-.306.65-.684 0-.378-.291-.684-.65-.684h-3.9z"/><path fill-rule="evenodd" clip-rule="evenodd" d="M3.356 1.684h.916A2.422 2.422 0 015.956 1h5.688C12.87 1 14 1.948 14 3.28v6.387c0 1.333-1.129 2.28-2.356 2.28h-.283C11.161 13.11 10.206 14 9.044 14H3.356C2.046 14 1 12.867 1 11.491V4.193c0-1.375 1.045-2.509 2.356-2.509zm8.288 8.895H11.4V4.193c0-.716-.283-1.366-.739-1.825h.983c.657 0 1.056.482 1.056.913v6.386c0 .43-.399.912-1.056.912zM3.356 3.053c-.573 0-1.056.5-1.056 1.14v7.298c0 .64.483 1.14 1.056 1.14h5.688c.573 0 1.056-.5 1.056-1.14V4.193c0-.64-.482-1.14-1.056-1.14H3.356z"/></svg><svg viewBox="0 0 11 6" id="vk" xmlns="http://www.w3.org/2000/svg"><path d="M10.75.407c.075-.234 0-.407-.364-.407H9.183c-.306 0-.447.148-.523.313 0 0-.612 1.37-1.478 2.26-.28.256-.409.339-.562.339-.075 0-.192-.083-.192-.317V.407C6.428.126 6.343 0 6.09 0H4.2c-.193 0-.307.131-.307.253 0 .266.433.328.478 1.078V2.96c0 .356-.07.422-.223.422-.408 0-1.4-1.377-1.989-2.952C2.04.124 1.924 0 1.615 0H.412C.07 0 0 .148 0 .313 0 .606.408 2.06 1.901 3.98 2.896 5.289 4.296 6 5.571 6c.765 0 .86-.157.86-.43 0-1.252-.07-1.37.314-1.37.178 0 .484.082 1.199.714C8.76 5.664 8.895 6 9.353 6h1.202c.343 0 .517-.157.417-.469-.229-.654-1.775-2-1.844-2.09-.178-.21-.127-.304 0-.492.002-.002 1.47-1.899 1.621-2.542z"/></svg><svg viewBox="0 0 11 11" id="whatsApp" xmlns="http://www.w3.org/2000/svg"><path d="M11 5.358c0 2.96-2.418 5.359-5.4 5.359a5.41 5.41 0 01-2.61-.667L0 11l.975-2.875A5.303 5.303 0 01.2 5.358C.2 2.398 2.617 0 5.6 0 8.582 0 11 2.4 11 5.358zM5.6.853c-2.503 0-4.54 2.021-4.54 4.505 0 .95.302 1.876.865 2.642l-.567 1.672 1.744-.554c.742.488 1.61.747 2.498.746 2.504 0 4.54-2.022 4.54-4.506C10.14 2.874 8.104.853 5.6.853zm2.727 5.74c-.034-.056-.122-.089-.254-.154a21.918 21.918 0 00-.904-.427c-.122-.044-.21-.066-.299.066-.132.177-.272.35-.42.514-.076.088-.153.099-.285.033-.133-.066-.56-.204-1.065-.651a3.96 3.96 0 01-.736-.91c-.077-.131-.009-.203.058-.268.06-.06.132-.153.199-.23.066-.077.088-.13.132-.219.044-.088.022-.164-.011-.23s-.298-.712-.409-.975c-.11-.263-.22-.219-.297-.219-.077 0-.165-.01-.254-.01a.488.488 0 00-.353.164c-.121.13-.463.449-.463 1.095 0 .646.474 1.27.54 1.358.066.088.916 1.457 2.261 1.983 1.347.525 1.347.35 1.589.328.242-.021.783-.317.893-.624.11-.307.11-.57.078-.625z"/></svg></svg>