<svg width="70" height="70" viewBox="0 0 70 70" fill="none" xmlns="http://www.w3.org/2000/svg">
<g filter="url(#filter0_dd_575_1665)">
<path d="M46.5631 30.1817C46.4545 30.0466 46.3228 30.0731 46.2538 30.1007C46.1959 30.124 46.0635 30.1984 46.0818 30.3848C46.1038 30.6086 46.1162 30.8368 46.1185 31.0631C46.1284 32.002 45.7491 32.9219 45.078 33.5868C44.4111 34.2474 43.5341 34.6034 42.6002 34.593C41.3246 34.5769 40.2666 33.9162 39.5405 32.6824C38.9401 31.6621 39.204 30.3463 39.4834 28.9531C39.6469 28.1376 39.8159 27.2943 39.8159 26.4918C39.8159 20.2426 35.5853 16.6373 33.0635 15.0445C33.0113 15.0116 32.9617 15 32.9177 15C32.8462 15 32.7896 15.0306 32.7616 15.0494C32.7075 15.0858 32.6209 15.1687 32.6487 15.3156C33.6126 20.3986 30.7376 23.4557 27.6937 26.6922C24.5561 30.0284 21 33.8097 21 40.6294C21 48.5534 27.492 55 35.4717 55C42.042 55 47.8348 50.4513 49.5587 43.9383C50.7343 39.4975 49.5024 33.8406 46.5631 30.1817ZM35.8327 51.9326C33.8346 52.0231 31.9343 51.3114 30.4828 49.9333C29.0469 48.5699 28.2234 46.6671 28.2234 44.7129C28.2234 41.0457 29.6354 38.3535 33.4333 34.7795C33.4955 34.7209 33.5591 34.7024 33.6146 34.7024C33.6649 34.7024 33.7085 34.7177 33.7384 34.732C33.8016 34.7622 33.9055 34.837 33.8915 34.9989C33.7557 36.568 33.758 37.8705 33.8984 38.8701C34.2571 41.4236 36.1396 43.1393 38.5828 43.1393C39.7807 43.1393 40.9217 42.6917 41.7957 41.8788C41.8294 41.8466 41.8706 41.8231 41.9156 41.8103C41.9606 41.7976 42.0081 41.7959 42.0538 41.8056C42.1113 41.8179 42.1884 41.8529 42.2287 41.9496C42.5911 42.8184 42.7763 43.7407 42.7791 44.6906C42.7907 48.5128 39.6746 51.7617 35.8327 51.9326Z" fill="#FFF500"/>
</g>
<defs>
<filter id="filter0_dd_575_1665" x="-194.068" y="-182.146" width="459.137" height="470.137" filterUnits="userSpaceOnUse" color-interpolation-filters="sRGB">
<feFlood flood-opacity="0" result="BackgroundImageFix"/>
<feColorMatrix in="SourceAlpha" type="matrix" values="0 0 0 0 0 0 0 0 0 0 0 0 0 0 0 0 0 0 127 0" result="hardAlpha"/>
<feOffset dy="17.9224"/>
<feGaussianBlur stdDeviation="107.534"/>
<feComposite in2="hardAlpha" operator="out"/>
<feColorMatrix type="matrix" values="0 0 0 0 0.598618 0 0 0 0 0.920833 0 0 0 0 0.0728993 0 0 0 1 0"/>
<feBlend mode="normal" in2="BackgroundImageFix" result="effect1_dropShadow_575_1665"/>
<feColorMatrix in="SourceAlpha" type="matrix" values="0 0 0 0 0 0 0 0 0 0 0 0 0 0 0 0 0 0 127 0" result="hardAlpha"/>
<feOffset dy="-2"/>
<feGaussianBlur stdDeviation="22.5"/>
<feComposite in2="hardAlpha" operator="out"/>
<feColorMatrix type="matrix" values="0 0 0 0 0.6375 0 0 0 0 0.620606 0 0 0 0 0.215156 0 0 0 1 0"/>
<feBlend mode="normal" in2="effect1_dropShadow_575_1665" result="effect2_dropShadow_575_1665"/>
<feBlend mode="normal" in="SourceGraphic" in2="effect2_dropShadow_575_1665" result="shape"/>
</filter>
</defs>
</svg>
