<svg width="70" height="70" viewBox="0 0 70 70" fill="none" xmlns="http://www.w3.org/2000/svg">
<g filter="url(#filter0_dd_575_1674)">
<path d="M48 42.6429V23H27.4667V37.2857C27.4667 37.2857 26.2545 37.2857 25.6 37.2857C22.5072 37.2857 20 39.6842 20 42.6429C20 45.6015 22.5072 48 25.6 48C28.6928 48 31.2 45.6015 31.2 42.6429V30.1429H44.2667V37.2857C44.2667 37.2857 43.0545 37.2857 42.4 37.2857C39.3072 37.2857 36.8 39.6842 36.8 42.6429C36.8 45.6015 39.3072 48 42.4 48C45.4928 48 48 45.6015 48 42.6429Z" fill="#9023FE"/>
</g>
<defs>
<filter id="filter0_dd_575_1674" x="-195.068" y="-174.146" width="458.137" height="455.137" filterUnits="userSpaceOnUse" color-interpolation-filters="sRGB">
<feFlood flood-opacity="0" result="BackgroundImageFix"/>
<feColorMatrix in="SourceAlpha" type="matrix" values="0 0 0 0 0 0 0 0 0 0 0 0 0 0 0 0 0 0 127 0" result="hardAlpha"/>
<feOffset dy="-2"/>
<feGaussianBlur stdDeviation="22.5"/>
<feComposite in2="hardAlpha" operator="out"/>
<feColorMatrix type="matrix" values="0 0 0 0 0.375647 0 0 0 0 0.215156 0 0 0 0 0.6375 0 0 0 1 0"/>
<feBlend mode="normal" in2="BackgroundImageFix" result="effect1_dropShadow_575_1674"/>
<feColorMatrix in="SourceAlpha" type="matrix" values="0 0 0 0 0 0 0 0 0 0 0 0 0 0 0 0 0 0 127 0" result="hardAlpha"/>
<feOffset dy="17.9224"/>
<feGaussianBlur stdDeviation="107.534"/>
<feComposite in2="hardAlpha" operator="out"/>
<feColorMatrix type="matrix" values="0 0 0 0 0.903875 0 0 0 0 0.0728993 0 0 0 0 0.920833 0 0 0 1 0"/>
<feBlend mode="normal" in2="effect1_dropShadow_575_1674" result="effect2_dropShadow_575_1674"/>
<feBlend mode="normal" in="SourceGraphic" in2="effect2_dropShadow_575_1674" result="shape"/>
</filter>
</defs>
</svg>
