<svg width="24" height="24" viewBox="0 0 24 24" fill="none" xmlns="http://www.w3.org/2000/svg">
<path d="M17.3491 6.20573C15.9262 4.78776 14.029 4 12.0263 4C7.86302 4 4.4902 7.36111 4.4902 11.51C4.4902 12.8229 4.8591 14.1359 5.49151 15.2387L4.4375 19.125L8.44273 18.0747C9.54944 18.6523 10.7615 18.9674 12.0263 18.9674C16.1897 18.9674 19.5625 15.6063 19.5625 11.4575C19.5098 9.51432 18.772 7.6237 17.3491 6.20573ZM15.6627 14.1884C15.5046 14.6085 14.7668 15.0286 14.3979 15.0812C14.0817 15.1337 13.6601 15.1337 13.2385 15.0286C12.975 14.9236 12.6061 14.8186 12.1845 14.6085C10.2872 13.8207 9.07513 11.9301 8.96973 11.7726C8.86433 11.6675 8.17923 10.7747 8.17923 9.82943C8.17923 8.88411 8.65353 8.46398 8.81163 8.25391C8.96973 8.04384 9.18053 8.04384 9.33863 8.04384C9.44403 8.04384 9.60213 8.04384 9.70753 8.04384C9.81293 8.04384 9.97104 7.99132 10.1291 8.35894C10.2872 8.72656 10.6561 9.67188 10.7088 9.72439C10.7615 9.82943 10.7615 9.93446 10.7088 10.0395C10.6561 10.1445 10.6034 10.2496 10.498 10.3546C10.3926 10.4596 10.2872 10.6172 10.2345 10.6697C10.1291 10.7747 10.0237 10.8798 10.1291 11.0373C10.2345 11.2474 10.6034 11.8251 11.1831 12.3503C11.9209 12.9805 12.5007 13.1905 12.7115 13.2956C12.9223 13.4006 13.0277 13.3481 13.1331 13.2431C13.2385 13.138 13.6074 12.7179 13.7128 12.5078C13.8182 12.2977 13.9763 12.3503 14.1344 12.4028C14.2925 12.4553 15.2411 12.928 15.3992 13.033C15.61 13.138 15.7154 13.1905 15.7681 13.2431C15.8208 13.4006 15.8208 13.7682 15.6627 14.1884Z" fill="white"/>
</svg>
