<?xml version="1.0" encoding="UTF-8"?> <svg xmlns="http://www.w3.org/2000/svg" width="650" height="650" viewBox="0 0 650 650" fill="none"> <path fill-rule="evenodd" clip-rule="evenodd" d="M11.8958 359L12 359.39V358.886L11.8958 359ZM579.244 318H594.599L579.244 301.214V318ZM152.469 227.551L322 42.2235L515.746 254.023L525.992 243L322 20L142.26 216.488L152.469 227.551ZM545.912 287L559.244 301.574V287H545.912Z" fill="white"></path> <path fill-rule="evenodd" clip-rule="evenodd" d="M448.865 209.876L263.311 155.147L261.153 134.856L320.148 71.38L448.865 209.876Z" fill="white"></path> <path fill-rule="evenodd" clip-rule="evenodd" d="M215.992 178.662L326.307 149.482L327.917 137.554L294.19 99.1459L215.992 178.662Z" fill="white"></path> <path fill-rule="evenodd" clip-rule="evenodd" d="M570.275 180L650 267.154V281.97L570.275 194.816L504.244 267H490.691L570.275 180ZM383.495 399L389.2 392.763V377.947L373.84 394.739V399H383.495ZM399.434 381.576L425.994 352.541L428.681 334.787L413.577 351.299L411.28 366.52L409.522 355.732L397.356 369.032L399.434 381.576ZM431.12 346.937L447.76 328.747V313.931L431.12 332.121V346.937ZM466.962 307.756L482.642 290.615V287H472.395L466.962 292.94V307.756ZM410.924 634H394.272C401.476 639.677 408.958 645.018 416.694 650H436.042C427.37 645.107 418.987 639.763 410.924 634Z" fill="white"></path> <path fill-rule="evenodd" clip-rule="evenodd" d="M0 264.817L93.3064 162.816L205.129 285.058C208.028 283.683 211.047 282.659 214.122 281.93V280.073L93.3064 148L0 250.001V264.817ZM299.524 388.249L309.358 399H313.964L315.222 390.593L301.542 375.639L299.524 388.249ZM284.203 358.68V356.684L266.763 337.619V352.435L282.775 369.94C283.642 366.954 284.114 363.574 284.191 359.8C284.199 359.43 284.203 359.057 284.203 358.68ZM227.562 300.44H232.753L251.402 320.827V335.643L234.122 316.753V315.96H233.397L219.842 301.143C222.192 300.674 224.765 300.44 227.562 300.44Z" fill="white"></path> <path fill-rule="evenodd" clip-rule="evenodd" d="M163.701 259.876L67.6694 213.257L94.0215 184.903L163.701 259.876Z" fill="white"></path> <path fill-rule="evenodd" clip-rule="evenodd" d="M624.431 269.528L549.729 233.263L570.228 211.206L624.431 269.528Z" fill="white"></path> <path d="M99.2801 414.04V399H61.6801V414.04H44.5601V383.32H51.4401C52.9334 381.4 53.9468 379.32 54.4801 377.08C55.1201 374.84 55.5468 372.067 55.7601 368.76L59.7601 287H109.04V383.32H116.72V414.04H99.2801ZM73.0401 368.44C72.8268 372.707 72.2934 375.907 71.4401 378.04C70.6934 380.173 69.5734 381.933 68.0801 383.32H91.1201V303H76.2401L73.0401 368.44Z" fill="white"></path> <path d="M149.085 373.24C149.085 377.293 149.885 380.173 151.485 381.88C153.192 383.48 155.432 384.28 158.205 384.28C160.978 384.28 163.165 383.48 164.765 381.88C166.472 380.173 167.325 377.293 167.325 373.24V312.76C167.325 308.707 166.472 305.88 164.765 304.28C163.165 302.573 160.978 301.72 158.205 301.72C155.432 301.72 153.192 302.573 151.485 304.28C149.885 305.88 149.085 308.707 149.085 312.76V373.24ZM131.485 313.88C131.485 304.813 133.778 297.88 138.365 293.08C142.952 288.173 149.565 285.72 158.205 285.72C166.845 285.72 173.458 288.173 178.045 293.08C182.632 297.88 184.925 304.813 184.925 313.88V372.12C184.925 381.187 182.632 388.173 178.045 393.08C173.458 397.88 166.845 400.28 158.205 400.28C149.565 400.28 142.952 397.88 138.365 393.08C133.778 388.173 131.485 381.187 131.485 372.12V313.88Z" fill="white"></path> <path d="M234.122 386.36H227.562C218.709 386.36 212.096 384.013 207.723 379.32C203.456 374.627 201.322 367.747 201.322 358.68V328.12C201.322 319.053 203.456 312.173 207.723 307.48C212.096 302.787 218.709 300.44 227.562 300.44H234.122V287H251.402V300.44H257.963C266.816 300.44 273.376 302.787 277.643 307.48C282.016 312.173 284.202 319.053 284.202 328.12V358.68C284.202 367.747 282.016 374.627 277.643 379.32C273.376 384.013 266.816 386.36 257.963 386.36H251.402V399H234.122V386.36ZM251.402 315.96V371H257.963C260.736 371 262.869 370.147 264.363 368.44C265.963 366.733 266.763 363.853 266.763 359.8V327C266.763 322.947 265.963 320.12 264.363 318.52C262.869 316.813 260.736 315.96 257.963 315.96H251.402ZM234.122 315.96H227.562C224.789 315.96 222.603 316.813 221.003 318.52C219.509 320.12 218.762 322.947 218.762 327V359.8C218.762 363.853 219.509 366.733 221.003 368.44C222.603 370.147 224.789 371 227.562 371H234.122V315.96Z" fill="white"></path> <path d="M359.404 399H341.644L338.604 378.68H317.004L313.964 399H297.804L315.724 287H341.484L359.404 399ZM319.244 363.48H336.204L327.724 306.84L319.244 363.48Z" fill="white"></path> <path d="M411.28 366.52L423.28 287H447.76V399H431.12V318.68L418.96 399H402.32L389.2 319.8V399H373.84V287H398.32L411.28 366.52Z" fill="white"></path> <path d="M485.043 399H466.962V287H482.642V357.88L489.043 333.24L503.443 287H522.802V399H506.962V320.12L499.763 347.64L485.043 399Z" fill="white"></path> <path d="M559.244 399H541.644V287H559.244V335H579.244V287H597.164V399H579.244V351H559.244V399Z" fill="white"></path> <path fill-rule="evenodd" clip-rule="evenodd" d="M238.493 530C250.276 534.102 262.378 537.977 273.997 541.697C275.306 542.116 276.608 542.533 277.904 542.948C279.74 543.536 281.643 544.029 283.538 544.519L283.541 544.52L283.549 544.522C285.712 545.082 287.865 545.64 289.891 546.332C291.487 546.878 293.026 547.445 294.56 548.009C296.655 548.781 298.741 549.548 300.949 550.255C306.786 552.126 312.601 553.97 318.394 555.806C331.919 560.094 345.316 564.342 358.558 568.797C360.162 569.337 361.705 569.911 363.246 570.485L363.264 570.492C365.337 571.265 367.407 572.036 369.617 572.72C374.13 574.117 378.42 575.601 382.631 577.058L382.639 577.061L382.705 577.084C385.891 578.186 389.034 579.273 392.197 580.295C393.362 580.672 394.58 581.005 395.802 581.34L395.809 581.342C398.631 582.115 401.472 582.894 403.717 584.222C383.687 586.93 362.898 588.856 342.275 590.766L342.069 590.785C332.48 591.674 322.927 592.559 313.505 593.519C311.502 593.724 309.48 593.98 307.449 594.238L307.378 594.247C305.106 594.535 302.823 594.824 300.549 595.042C298.558 595.233 296.553 595.343 294.549 595.453L294.544 595.453C292.064 595.589 289.586 595.725 287.137 596.014C285.542 596.201 283.966 596.409 282.395 596.615L282.345 596.622C279.785 596.959 277.238 597.294 274.644 597.54C271.813 597.808 269.014 598.071 266.235 598.332L266.169 598.338C257.661 599.137 249.34 599.918 240.874 600.788C240.374 600.839 239.801 600.945 239.237 601.05L239.233 601.051C238.661 601.158 238.098 601.262 237.634 601.305C236.902 601.373 236.239 601.48 235.606 601.583L235.597 601.584C235.028 601.676 234.483 601.765 233.932 601.817C228.327 602.356 222.819 602.824 217.371 603.286L217.331 603.29H217.33C207.013 604.167 196.906 605.026 186.747 606.31C180.527 607.096 174.216 607.66 167.894 608.224C163.225 608.641 158.55 609.059 153.902 609.567C143.825 610.667 133.705 611.687 123.589 612.706L123.46 612.719C111.834 613.892 100.213 615.064 88.6704 616.355C88.7536 617.834 90.7012 618.982 92.3892 619.976C92.6902 620.153 92.9829 620.325 93.2553 620.494C94.4628 621.24 95.8726 621.937 97.27 622.627C98.264 623.118 99.2518 623.606 100.156 624.106C103.765 626.103 107.187 628.394 110.478 630.597L110.482 630.6L110.542 630.64C112.324 631.833 114.067 633 115.781 634.079C121.463 637.655 127.811 641.065 134.075 644.428L134.256 644.525C137.665 646.357 141.049 648.175 144.284 650H230.398C226.434 647.886 222.528 645.795 218.766 643.74C211.503 639.775 203.995 635.781 196.559 631.826L196.185 631.627C189.948 628.308 183.766 625.02 177.826 621.797C177.239 621.479 176.57 621.176 175.886 620.867L175.875 620.862C174.099 620.059 172.219 619.209 171.39 617.917C182.548 616.686 193.508 615.434 204.243 613.84C209.266 613.095 214.545 612.451 219.787 611.812L219.844 611.805C227.533 610.866 235.139 609.938 241.727 608.714C258.289 606.89 274.834 604.767 291.425 602.638C307.342 600.595 323.301 598.547 339.359 596.753C372.056 593.098 404.612 588.994 435.611 583.96C398.068 572.547 359.78 560.658 322.678 549.136C320.806 548.555 318.938 547.975 317.073 547.395C315.252 546.83 313.436 546.266 311.622 545.703C306.788 544.202 301.841 542.81 296.897 541.419L296.756 541.379C293.244 540.391 289.734 539.402 286.267 538.375L286.184 538.35C276.946 535.614 267.587 532.842 258.619 530H238.493Z" fill="white"></path> <path fill-rule="evenodd" clip-rule="evenodd" d="M277.545 530C277.821 530.084 278.096 530.168 278.37 530.252C283.514 531.83 288.663 533.348 293.804 534.863L293.82 534.868C301.451 537.117 309.067 539.362 316.63 541.793C328.087 545.476 339.952 548.87 351.813 552.263L351.972 552.308C357.416 553.864 362.858 555.42 368.26 557.004C377.262 559.643 386.128 562.396 395.009 565.154L395.139 565.194C403.033 567.645 410.938 570.099 418.961 572.48C424.437 574.104 429.976 575.854 435.534 577.611L435.552 577.617C444.943 580.584 454.39 583.569 463.674 585.991C464.158 586.118 464.677 586.224 465.2 586.331L465.266 586.345L465.269 586.346C467.044 586.707 468.875 587.081 469.662 588.23C452.727 590.123 436.009 592.545 419.255 594.972L419.223 594.977C405.869 596.912 392.492 598.85 378.961 600.527L378.839 600.542C368.58 601.814 358.131 603.11 347.956 604.619C326.895 607.746 305.603 610.536 284.324 613.325L284.198 613.341L284.092 613.355C264.583 615.911 245.084 618.466 225.786 621.278C226.401 622.789 228.56 623.758 230.556 624.655L230.561 624.657L230.598 624.673C231.166 624.929 231.72 625.177 232.22 625.432C236.024 627.369 239.718 629.277 243.389 631.174C246.87 632.973 250.33 634.761 253.844 636.552C255.685 637.49 257.52 638.435 259.358 639.382L259.604 639.509L259.647 639.531C266.601 643.114 273.584 646.712 280.973 650H358.287C355.594 648.739 352.772 647.569 349.953 646.401L349.927 646.39C347.744 645.486 345.563 644.582 343.447 643.637C340.199 642.187 337.086 640.655 333.981 639.127L333.919 639.096L333.86 639.067C331.849 638.077 329.84 637.088 327.8 636.124C325.762 635.161 323.754 634.171 321.745 633.18L321.734 633.174C318.586 631.62 315.434 630.065 312.152 628.609C311.825 628.464 311.496 628.319 311.167 628.174C310.723 627.978 310.277 627.782 309.829 627.586L309.82 627.582C305.227 625.564 300.537 623.503 296.505 621.096C319.31 618.12 341.587 614.203 363.765 610.303C374.987 608.329 386.184 606.36 397.411 604.52C407.224 602.912 417.041 601.359 426.843 599.809C450.852 596.012 474.772 592.229 498.322 587.672C497.212 586.688 495.218 586.177 493.427 585.717L493.413 585.714C493.041 585.619 492.678 585.526 492.333 585.432C490.539 584.942 488.747 584.453 486.956 583.964L484.349 583.252L484.274 583.232C452.492 574.555 421.078 565.98 390.445 556.662C378.643 553.072 366.42 549.722 354.307 546.401L354.287 546.396C343.538 543.45 332.877 540.527 322.673 537.483C320.424 536.812 318.057 536.218 315.687 535.624C313.372 535.044 311.054 534.463 308.84 533.808C305.719 532.885 302.652 531.86 299.619 530.845L299.594 530.837L299.553 530.823C298.727 530.547 297.904 530.272 297.084 530H277.545Z" fill="white"></path> <path fill-rule="evenodd" clip-rule="evenodd" d="M319.123 530C335.046 534.853 351.317 539.465 367.783 544.018C374.232 545.802 380.734 547.557 387.25 549.316C399.242 552.554 411.28 555.804 423.113 559.263C425.833 560.058 428.533 560.863 431.229 561.666C437.538 563.546 443.826 565.419 450.312 567.154C455.315 568.492 460.334 569.83 465.355 571.168C479 574.804 492.666 578.446 506.102 582.129C506.967 582.366 507.844 582.605 508.731 582.847C515.898 584.801 523.643 586.913 529.611 589.168C529.828 589.25 529.872 589.385 529.916 589.524C529.976 589.712 530.039 589.907 530.528 589.996C530.577 590.005 530.691 589.955 530.841 589.89C531.285 589.696 532.046 589.364 532.377 590.013C505.778 594.444 478.956 599.36 453.217 604.077C451.358 604.417 449.506 604.757 447.659 605.095C445.36 605.516 443.011 605.871 440.667 606.225C438.188 606.599 435.714 606.973 433.31 607.423C427.766 608.462 422.196 609.438 416.729 610.395C411.473 611.316 406.314 612.219 401.367 613.146C397.164 613.933 392.998 614.705 388.862 615.471C375.489 617.948 362.435 620.366 349.511 623.059C349.613 623.959 350.906 624.424 352.087 624.848C352.483 624.991 352.867 625.129 353.189 625.277C357.258 627.156 361.205 629.056 365.126 630.945C370.769 633.662 376.36 636.354 382.187 638.92C390.587 642.62 398.999 646.316 407.427 650H474.535C470.798 648.658 467.048 647.328 463.301 646C450.7 641.53 438.128 637.072 426.154 632.213C424.898 631.564 423.373 631.07 421.849 630.577C419.862 629.934 417.876 629.29 416.483 628.303C412.808 627.268 408.977 626.129 406.348 624.661C424.776 621.071 443.288 617.125 461.862 613.166C486.328 607.951 510.903 602.713 535.538 598.234C537.266 597.92 538.999 597.522 540.739 597.122C542.242 596.777 543.75 596.43 545.263 596.136C546.541 595.888 547.895 595.668 549.273 595.445C554.558 594.589 560.204 593.674 563.337 590.836C560.741 589.281 557.342 588.502 553.979 587.73C552.455 587.38 550.939 587.033 549.508 586.615C530.744 581.138 511.532 576.27 492.301 571.396C477.034 567.528 461.755 563.656 446.679 559.474C442.149 558.217 437.515 557.07 432.868 555.919C427.609 554.616 422.333 553.31 417.169 551.835C415.104 551.246 413.074 550.593 411.051 549.943C408.487 549.118 405.934 548.297 403.34 547.615C388.052 543.595 372.466 539.935 357.283 536.369C356.338 536.148 355.395 535.926 354.454 535.705C347.109 533.981 340.086 531.965 333.308 530H319.123Z" fill="white"></path> <path d="M112.176 484.544L109.552 488.96V504H104.56V459.2H109.552V480.832L121.456 459.2H126.512L115.184 479.616L126.896 504H121.776L112.176 484.544Z" fill="white"></path> <path d="M142.844 463.744L141.82 492.864C141.734 494.656 141.542 496.235 141.244 497.6C140.945 498.965 140.454 500.139 139.772 501.12C139.089 502.059 138.172 502.784 137.02 503.296C135.91 503.808 134.502 504.064 132.796 504.064H131.964V499.52C132.988 499.52 133.82 499.392 134.46 499.136C135.1 498.88 135.59 498.496 135.932 497.984C136.316 497.429 136.572 496.747 136.7 495.936C136.828 495.125 136.913 494.187 136.956 493.12L138.172 459.2H156.412V504H151.42V463.744H142.844Z" fill="white"></path> <path d="M177.745 494.144C177.361 495.808 176.892 497.28 176.337 498.56C175.825 499.84 175.121 500.907 174.225 501.76C173.329 502.613 172.198 503.232 170.833 503.616C169.51 504 167.825 504.149 165.777 504.064V499.584C167.697 499.669 169.126 499.392 170.065 498.752C171.046 498.069 171.75 496.875 172.177 495.168L173.201 492.224L162.897 459.2H167.889L172.433 474.752L175.505 486.016L178.129 474.752L182.161 459.2H187.345L177.745 494.144Z" fill="white"></path> <path d="M203.793 477.696C207.291 477.696 209.915 478.549 211.665 480.256C213.457 481.92 214.353 484.565 214.353 488.192V493.12C214.353 496.619 213.521 499.307 211.857 501.184C210.193 503.061 207.59 504 204.049 504H193.617V459.2H212.497V463.744H198.545V477.696H203.793ZM204.049 499.456C205.883 499.456 207.227 498.987 208.081 498.048C208.934 497.067 209.361 495.531 209.361 493.44V487.872C209.361 485.696 208.891 484.203 207.953 483.392C207.014 482.581 205.627 482.176 203.793 482.176H198.545V499.456H204.049Z" fill="white"></path> <path d="M239.29 463.744V504H234.298V459.2H255.29V504H250.298V463.744H239.29Z" fill="white"></path> <path d="M276.423 494.144C276.039 495.808 275.569 497.28 275.015 498.56C274.503 499.84 273.799 500.907 272.903 501.76C272.007 502.613 270.876 503.232 269.511 503.616C268.188 504 266.503 504.149 264.455 504.064V499.584C266.375 499.669 267.804 499.392 268.743 498.752C269.724 498.069 270.428 496.875 270.855 495.168L271.879 492.224L261.575 459.2H266.567L271.111 474.752L274.183 486.016L276.807 474.752L280.839 459.2H286.023L276.423 494.144Z" fill="white"></path> <path d="M299.078 504V463.744H290.822V459.2H312.326V463.744H304.07V504H299.078Z" fill="white"></path> <path d="M334.539 479.04V483.52H323.595V499.456H337.035V504H318.603V459.2H337.035V463.744H323.595V479.04H334.539Z" fill="white"></path> <path d="M349.217 459.2V499.456H357.793V459.2H362.785V499.456H371.361V459.2H376.289V504H344.225V459.2H349.217Z" fill="white"></path> <path d="M399.909 479.04V483.52H388.965V499.456H402.405V504H383.973V459.2H402.405V463.744H388.965V479.04H399.909Z" fill="white"></path> <path d="M419.259 458.752C422.715 458.752 425.254 459.776 426.875 461.824C428.539 463.872 429.371 466.603 429.371 470.016V474.048H424.635V469.76C424.635 467.712 424.208 466.133 423.355 465.024C422.544 463.872 421.222 463.296 419.387 463.296C417.595 463.296 416.272 463.872 415.419 465.024C414.566 466.133 414.139 467.712 414.139 469.76V493.44C414.139 495.488 414.566 497.088 415.419 498.24C416.272 499.349 417.595 499.904 419.387 499.904C421.222 499.904 422.544 499.349 423.355 498.24C424.208 497.088 424.635 495.488 424.635 493.44V487.616H429.371V493.184C429.371 496.597 428.539 499.328 426.875 501.376C425.254 503.424 422.715 504.448 419.259 504.448C415.846 504.448 413.307 503.424 411.643 501.376C410.022 499.328 409.211 496.597 409.211 493.184V470.016C409.211 468.309 409.403 466.773 409.787 465.408C410.214 464 410.832 462.805 411.643 461.824C412.496 460.843 413.542 460.096 414.779 459.584C416.059 459.029 417.552 458.752 419.259 458.752Z" fill="white"></path> <path d="M443.316 504V463.744H435.06V459.2H456.564V463.744H448.308V504H443.316Z" fill="white"></path> <path d="M472.888 459.2C476.387 459.2 478.883 460.032 480.376 461.696C481.869 463.317 482.616 465.792 482.616 469.12V471.232C482.616 473.621 482.232 475.563 481.464 477.056C480.696 478.507 479.331 479.531 477.368 480.128C479.544 480.725 481.08 481.856 481.976 483.52C482.915 485.184 483.384 487.253 483.384 489.728V493.504C483.384 496.875 482.552 499.477 480.888 501.312C479.224 503.104 476.643 504 473.144 504H462.84V459.2H472.888ZM471.672 478.208C473.677 478.208 475.171 477.803 476.152 476.992C477.176 476.181 477.688 474.603 477.688 472.256V469.632C477.688 467.627 477.304 466.155 476.536 465.216C475.811 464.235 474.552 463.744 472.76 463.744H467.832V478.208H471.672ZM473.144 499.456C476.685 499.456 478.456 497.429 478.456 493.376V489.408C478.456 486.891 477.944 485.163 476.92 484.224C475.939 483.243 474.36 482.752 472.184 482.752H467.832V499.456H473.144Z" fill="white"></path> <path d="M502.239 483.328L495.647 504H490.463V459.2H494.879V492.608L498.847 480.256L506.015 459.2H511.583V504H507.103V468.352L502.239 483.328Z" fill="white"></path> <path d="M536.938 450.048C536.938 452.011 536.319 453.547 535.082 454.656C533.887 455.765 532.202 456.32 530.026 456.32C527.85 456.32 526.165 455.765 524.97 454.656C523.818 453.547 523.199 452.011 523.114 450.048H526.25C526.335 451.285 526.719 452.139 527.402 452.608C528.085 453.077 528.959 453.312 530.026 453.312C531.093 453.312 531.967 453.077 532.65 452.608C533.375 452.139 533.781 451.285 533.866 450.048H536.938ZM531.37 482.432L524.394 504H519.21V459.2H523.626V492.608L527.786 479.68L534.762 459.2H540.33V504H535.85V468.352L531.37 482.432Z" fill="white"></path> <path d="M0 432H650" stroke="white" stroke-width="10"></path> <path d="M0 530L650 530" stroke="white" stroke-width="10"></path> </svg> 