<?xml version="1.0" encoding="utf-8"?><!DOCTYPE svg PUBLIC "-//W3C//DTD SVG 1.1//EN" "http://www.w3.org/Graphics/SVG/1.1/DTD/svg11.dtd"><svg viewBox="0 0 408 174" xmlns="http://www.w3.org/2000/svg" xmlns:xlink="http://www.w3.org/1999/xlink"><style>:root>svg{display:none}:root>svg:target{display:block}</style><svg viewBox="0 0 24 24" id="arrow-down" xmlns="http://www.w3.org/2000/svg"><path d="M19.707 9.707a1 1 0 00-1.414-1.414l1.414 1.414zM12 16l-.707.707a1 1 0 001.414 0L12 16zM5.707 8.293a1 1 0 00-1.414 1.414l1.414-1.414zm12.586 0l-7 7 1.414 1.414 7-7-1.414-1.414zm-5.586 7l-7-7-1.414 1.414 7 7 1.414-1.414z"/></svg><svg fill="none" viewBox="0 0 24 24" id="arrow-left" xmlns="http://www.w3.org/2000/svg"><path d="M19 13a1 1 0 100-2v2zM5 11a1 1 0 100 2v-2zm14 0H5v2h14v-2z" fill="#fff"/><path d="M10.293 18.707a1 1 0 001.414-1.414l-1.414 1.414zM5 12l-.707-.707a1 1 0 000 1.414L5 12zm6.707-5.293a1 1 0 00-1.414-1.414l1.414 1.414zm0 10.586l-6-6-1.414 1.414 6 6 1.414-1.414zm-6-4.586l6-6-1.414-1.414-6 6 1.414 1.414z" fill="#fff"/></svg><svg fill="none" viewBox="0 0 24 24" id="big-arrow-left" xmlns="http://www.w3.org/2000/svg"><path d="M14.293 19.707a1 1 0 001.414-1.414l-1.414 1.414zM8 12l-.707-.707a1 1 0 000 1.414L8 12zm7.707-6.293a1 1 0 00-1.414-1.414l1.414 1.414zm0 12.586l-7-7-1.414 1.414 7 7 1.414-1.414zm-7-5.586l7-7-1.414-1.414-7 7 1.414 1.414z" fill="#fff"/></svg><svg fill="none" viewBox="0 0 24 24" id="big-arrow-right" xmlns="http://www.w3.org/2000/svg"><path d="M9.707 4.293a1 1 0 00-1.414 1.414l1.414-1.414zM16 12l.707.707a1 1 0 000-1.414L16 12zm-7.707 6.293a1 1 0 101.414 1.414l-1.414-1.414zm0-12.586l7 7 1.414-1.414-7-7-1.414 1.414zm7 5.586l-7 7 1.414 1.414 7-7-1.414-1.414z" fill="#fff"/></svg><svg baseProfile="full" viewBox="0 0 408 174" id="logo" xmlns="http://www.w3.org/2000/svg"><g fill="#f5e503"><path d="M64.6 85.95c-.343-2.958-.55-6.328-.55-10.386V66.76h10.867c13.343 0 21.183-7.29 21.183-19.533 0-11.967-7.497-18.5-21.114-18.5H59.924c-4.402 0-6.878-.07-10.11-.207.412 3.232.55 6.327.55 10.041V75.77c0 4.058-.138 7.153-.55 10.18zm-.55-30.881v-14.65h10.248c4.952 0 7.634 2.476 7.634 7.222 0 4.745-2.82 7.428-7.634 7.428zm64.426 1.375l-8.46-20.151c-1.306-3.164-2.063-5.434-2.544-7.566h-16.713c1.582 2.614 2.27 3.99 4.746 9.148l15.268 31.98-1.17 1.789c-1.168 1.719-1.581 2.2-2.888 2.888-1.1.62-2.407.894-3.782.894-2.27 0-3.714-.481-6.121-1.925l-1.857 12.448c2.338.894 6.258 1.444 10.11 1.444 8.528 0 14.305-3.37 17.606-10.178l18.845-39.478c1.444-2.889 3.095-6.052 4.883-9.01h-16.85c-.344 1.926-1.1 3.99-2.614 7.703zm82.582-10.591c-.894-3.99-2.063-6.534-4.264-9.354-4.47-5.983-11.416-9.01-20.289-9.01-8.046 0-14.993 2.545-19.738 7.153-5.434 5.365-8.322 13.274-8.322 22.627 0 9.216 2.888 17.263 7.978 22.421 4.883 4.952 11.967 7.566 20.358 7.566 8.321 0 14.993-2.614 19.257-7.497 2.888-3.37 4.402-6.74 5.708-12.586l-14.305-2.132c-.413 2.82-.894 4.264-2.063 5.915-1.995 2.75-5.227 4.333-9.01 4.333-8.528 0-13.618-6.81-13.618-18.02 0-11.348 4.883-17.95 13.274-17.95 5.915 0 9.56 3.095 10.867 9.285zM39.935 144.327c2.608.85 5.156 1.274 7.644 1.274 7.826 0 12.679-4.914 13.164-13.468l1.517-27.482h13.225v31c0 4.43-.121 6.31-.485 8.797h13.104c-.425-2.73-.485-4.671-.485-8.796V102.71c0-3.337.121-5.946.485-8.918-2.79.12-4.307.182-8.857.182H58.863c-4.611 0-6.128-.061-8.918-.182.121 2.002.182 3.094.182 4.246 0 2.548-.061 3.519-.243 7.28L48.61 130.01c-.182 2.972-1.395 4.55-3.519 4.55-.97 0-1.88-.364-2.912-1.092zm87.663-51.445c-14.924 0-24.51 10.252-24.51 26.268 0 16.077 9.586 26.45 24.45 26.45 14.741 0 24.509-10.616 24.509-26.632 0-15.894-9.525-26.086-24.449-26.086zm0 42.224c-7.401 0-11.951-6.128-11.951-16.016 0-9.768 4.55-15.774 11.951-15.774 7.34 0 11.83 5.946 11.83 15.774 0 9.949-4.49 16.016-11.83 16.016zm65.884 9.342c.303-1.941 1.092-4.61 2.609-8.918l5.884-16.622c.789-2.184 1.396-4.368 2.73-9.1-.06.91-.06.91-.242 4.125-.122 1.88-.304 6.43-.304 7.887v13.225c0 4.307-.121 6.613-.485 9.403h11.951c-.364-2.426-.485-4.792-.485-9.403v-31.607c0-4.065.121-6.552.485-9.464H199.55c-.364 2.548-.85 4.489-2.245 8.554l-9.04 26.147-9.1-26.147c-1.395-4.004-1.88-5.946-2.305-8.554h-16.016c.304 2.608.486 5.824.486 9.464v31.607c0 4.125-.122 6.673-.486 9.403h11.952c-.364-2.548-.486-5.217-.486-9.403V121.88c0-3.215-.242-8.19-.606-12.012.303.85.303.85.97 3.034.182.485 2.002 6.127 2.063 6.43l5.581 16.138c1.638 4.61 2.306 6.855 2.609 8.978zM315.237 55.394c-2.848-7.05-5.153-10.983-9.085-15.186-7.322-7.729-18.44-11.932-31.728-11.932-16.949 0-29.423 5.966-38.236 18.17-7.051 9.762-11.254 25.626-11.254 42.71 0 18.44 4.745 33.626 13.83 43.66 7.864 8.949 19.796 13.695 33.897 13.695 26.712 0 45.152-16.407 45.152-39.864 0-23.321-15.457-37.965-40-37.965-7.05 0-12.88 1.085-18.033 3.525-3.39 1.492-5.288 2.848-8.542 6.102.814-8.136 1.763-12.203 3.932-16.813 3.661-7.729 9.898-11.661 18.17-11.661 8.27 0 12.88 3.39 15.321 11.254zm-42.304 34.847c11.66 0 18.711 6.372 18.711 16.813 0 10.305-8 17.491-19.254 17.491-10.847 0-18.847-7.186-18.847-17.22 0-10.44 7.593-17.084 19.39-17.084zm44.693-35.526c5.966-.678 11.254-.95 16.542-.95h5.423v69.152c0 7.864-.27 14.237-1.084 20.474h29.558c-.813-6.644-1.084-12.339-1.084-20.474v-71.05c0-8.949.27-14.643.949-21.83-5.424.543-7.186.543-16.813.543h-17.22c-7.865 0-11.39-.136-16.271-.95z"/></g></svg><svg viewBox="0 0 24 24" id="phone" xmlns="http://www.w3.org/2000/svg"><path d="M9.503 4.257l-.929.372.929-.372zm1.054 2.636l.929-.372-.929.372zm-.32 2.023l.768.64-.768-.64zm-.568.68l.768.641-.768-.64zm.122 2.695L9.084 13l.707-.708zm1.918 1.918l.707-.708-.707.708zm2.694.122l-.64-.768.64.768zm.681-.568l.64.769-.64-.769zm2.023-.32l-.371.928.371-.928zm2.636 1.054l.371-.928-.371.928zM4.895 4h2.75V2h-2.75v2zm3.68.629l1.054 2.635 1.857-.743-1.055-2.635-1.857.743zm.893 3.647l-.567.68 1.537 1.281.567-.68-1.537-1.281zm-.384 4.723l1.917 1.917 1.415-1.415-1.917-1.917L9.084 13zm5.96 2.1l.68-.567-1.28-1.537-.681.568 1.28 1.536zm1.692-.728l2.635 1.055.743-1.857-2.636-1.055-.742 1.857zM20 16.354v2.751h2v-2.75h-2zM19.105 20C10.763 20 4 13.237 4 4.895H2C2 14.342 9.658 22 19.105 22v-2zm.895-.895c0 .494-.4.895-.895.895v2A2.895 2.895 0 0022 19.105h-2zm-.629-3.68a1 1 0 01.629.93h2a3 3 0 00-1.886-2.786l-.743 1.857zm-3.647-.893a1 1 0 011.012-.16l.742-1.858a3 3 0 00-3.034.481l1.28 1.537zm-4.723.384a3 3 0 004.042.183l-1.28-1.537a1 1 0 01-1.347-.06L11 14.915zm-2.1-5.96A3 3 0 009.084 13l1.415-1.415a1 1 0 01-.062-1.347l-1.536-1.28zm.728-1.692a1 1 0 01-.16 1.012l1.536 1.28a3 3 0 00.48-3.035l-1.856.743zM7.646 4a1 1 0 01.928.629l1.857-.743A3 3 0 007.646 2v2zM4.895 2A2.895 2.895 0 002 4.895h2C4 4.4 4.4 4 4.895 4V2z"/></svg><svg fill="none" viewBox="0 0 24 24" id="point" xmlns="http://www.w3.org/2000/svg"><path d="M12 11a2 2 0 100-4 2 2 0 000 4z"/><path d="M12 21s7-4.846 7-11.077a6.885 6.885 0 00-2.05-4.895A7.04 7.04 0 0012 3a7.04 7.04 0 00-4.95 2.028A6.885 6.885 0 005 9.923C5 16.153 12 21 12 21z"/></svg><svg viewBox="0 0 24 24" id="round-arrow-up" xmlns="http://www.w3.org/2000/svg"><path d="M20 12a8 8 0 01-8 8v2c5.523 0 10-4.477 10-10h-2zm-8 8a8 8 0 01-8-8H2c0 5.523 4.477 10 10 10v-2zm-8-8a8 8 0 018-8V2C6.477 2 2 6.477 2 12h2zm8-8a8 8 0 018 8h2c0-5.523-4.477-10-10-10v2zM8.293 12.293a1 1 0 101.414 1.414l-1.414-1.414zM12 10l.707-.707a1 1 0 00-1.414 0L12 10zm2.293 3.707a1 1 0 001.414-1.414l-1.414 1.414zm-4.586 0l3-3-1.414-1.414-3 3 1.414 1.414zm1.586-3l3 3 1.414-1.414-3-3-1.414 1.414z"/></svg><svg viewBox="0 0 50 50" id="whatsapp" xmlns="http://www.w3.org/2000/svg"><path d="M19.102 15.022c-.479-1.137-.966-.983-1.329-1.001A25.177 25.177 0 0016.642 14c-.394 0-1.033.146-1.575.73S13 16.724 13 19.594s2.116 5.641 2.411 6.031c.296.389 4.164 6.278 10.087 8.804 1.409.6 2.509.959 3.366 1.228 1.414.444 2.702.381 3.72.231 1.134-.167 3.494-1.411 3.986-2.772.492-1.362.492-2.529.344-2.772-.148-.243-.542-.389-1.132-.681-.59-.292-3.494-1.703-4.036-1.896-.542-.195-.935-.292-1.329.292-.394.584-1.525 1.896-1.869 2.286-.344.389-.689.438-1.279.146-.59-.292-2.494-.907-4.748-2.894-1.756-1.546-2.941-3.455-3.285-4.039s-.037-.899.259-1.19c.266-.262.59-.681.886-1.022.296-.341.394-.584.59-.973s.098-.73-.05-1.022c-.146-.292-1.327-3.161-1.819-4.329z"/><path fill="none" d="M25 3C12.85 3 3 12.85 3 25a21.89 21.89 0 003.04 11.155L3 47l11.274-2.793A21.896 21.896 0 0025 47c12.15 0 22-9.85 22-22S37.15 3 25 3z"/></svg></svg>